%TF.GenerationSoftware,KiCad,Pcbnew,9.0.2*%
%TF.CreationDate,2025-06-22T13:00:46+02:00*%
%TF.ProjectId,kicad,6b696361-642e-46b6-9963-61645f706362,rev?*%
%TF.SameCoordinates,Original*%
%TF.FileFunction,Drillmap*%
%TF.FilePolarity,Positive*%
%FSLAX45Y45*%
G04 Gerber Fmt 4.5, Leading zero omitted, Abs format (unit mm)*
G04 Created by KiCad (PCBNEW 9.0.2) date 2025-06-22 13:00:46*
%MOMM*%
%LPD*%
G01*
G04 APERTURE LIST*
%ADD10C,0.150000*%
%ADD11C,0.200000*%
G04 APERTURE END LIST*
D10*
X5050000Y-9600000D02*
X6450000Y-9600000D01*
X11500000Y-11550000D02*
X6450000Y-11550000D01*
X6450000Y-11550000D02*
X6450000Y-9600000D01*
X5050000Y-9600000D02*
X4700000Y-9250000D01*
X4700000Y-9250000D02*
X3000000Y-9250000D01*
X1300000Y-7550000D02*
X1300000Y-4150000D01*
X4100000Y-1350000D02*
X11500000Y-1350000D01*
X1300000Y-4150000D02*
X4100000Y-1350000D01*
X3000000Y-9250000D02*
X1300000Y-7550000D01*
X11500000Y-11550000D02*
X11500000Y-1350000D01*
D11*
X1553277Y-11868984D02*
X1553277Y-11668984D01*
X1553277Y-11668984D02*
X1600896Y-11668984D01*
X1600896Y-11668984D02*
X1629467Y-11678508D01*
X1629467Y-11678508D02*
X1648515Y-11697555D01*
X1648515Y-11697555D02*
X1658039Y-11716603D01*
X1658039Y-11716603D02*
X1667562Y-11754698D01*
X1667562Y-11754698D02*
X1667562Y-11783269D01*
X1667562Y-11783269D02*
X1658039Y-11821365D01*
X1658039Y-11821365D02*
X1648515Y-11840412D01*
X1648515Y-11840412D02*
X1629467Y-11859460D01*
X1629467Y-11859460D02*
X1600896Y-11868984D01*
X1600896Y-11868984D02*
X1553277Y-11868984D01*
X1753277Y-11868984D02*
X1753277Y-11735650D01*
X1753277Y-11773746D02*
X1762801Y-11754698D01*
X1762801Y-11754698D02*
X1772324Y-11745174D01*
X1772324Y-11745174D02*
X1791372Y-11735650D01*
X1791372Y-11735650D02*
X1810420Y-11735650D01*
X1877086Y-11868984D02*
X1877086Y-11735650D01*
X1877086Y-11668984D02*
X1867562Y-11678508D01*
X1867562Y-11678508D02*
X1877086Y-11688031D01*
X1877086Y-11688031D02*
X1886610Y-11678508D01*
X1886610Y-11678508D02*
X1877086Y-11668984D01*
X1877086Y-11668984D02*
X1877086Y-11688031D01*
X2000896Y-11868984D02*
X1981848Y-11859460D01*
X1981848Y-11859460D02*
X1972324Y-11840412D01*
X1972324Y-11840412D02*
X1972324Y-11668984D01*
X2105658Y-11868984D02*
X2086610Y-11859460D01*
X2086610Y-11859460D02*
X2077086Y-11840412D01*
X2077086Y-11840412D02*
X2077086Y-11668984D01*
X2334229Y-11868984D02*
X2334229Y-11668984D01*
X2334229Y-11668984D02*
X2400896Y-11811841D01*
X2400896Y-11811841D02*
X2467563Y-11668984D01*
X2467563Y-11668984D02*
X2467563Y-11868984D01*
X2648515Y-11868984D02*
X2648515Y-11764222D01*
X2648515Y-11764222D02*
X2638991Y-11745174D01*
X2638991Y-11745174D02*
X2619944Y-11735650D01*
X2619944Y-11735650D02*
X2581848Y-11735650D01*
X2581848Y-11735650D02*
X2562801Y-11745174D01*
X2648515Y-11859460D02*
X2629467Y-11868984D01*
X2629467Y-11868984D02*
X2581848Y-11868984D01*
X2581848Y-11868984D02*
X2562801Y-11859460D01*
X2562801Y-11859460D02*
X2553277Y-11840412D01*
X2553277Y-11840412D02*
X2553277Y-11821365D01*
X2553277Y-11821365D02*
X2562801Y-11802317D01*
X2562801Y-11802317D02*
X2581848Y-11792793D01*
X2581848Y-11792793D02*
X2629467Y-11792793D01*
X2629467Y-11792793D02*
X2648515Y-11783269D01*
X2743753Y-11735650D02*
X2743753Y-11935650D01*
X2743753Y-11745174D02*
X2762801Y-11735650D01*
X2762801Y-11735650D02*
X2800896Y-11735650D01*
X2800896Y-11735650D02*
X2819943Y-11745174D01*
X2819943Y-11745174D02*
X2829467Y-11754698D01*
X2829467Y-11754698D02*
X2838991Y-11773746D01*
X2838991Y-11773746D02*
X2838991Y-11830888D01*
X2838991Y-11830888D02*
X2829467Y-11849936D01*
X2829467Y-11849936D02*
X2819943Y-11859460D01*
X2819943Y-11859460D02*
X2800896Y-11868984D01*
X2800896Y-11868984D02*
X2762801Y-11868984D01*
X2762801Y-11868984D02*
X2743753Y-11859460D01*
X2924705Y-11849936D02*
X2934229Y-11859460D01*
X2934229Y-11859460D02*
X2924705Y-11868984D01*
X2924705Y-11868984D02*
X2915182Y-11859460D01*
X2915182Y-11859460D02*
X2924705Y-11849936D01*
X2924705Y-11849936D02*
X2924705Y-11868984D01*
X2924705Y-11745174D02*
X2934229Y-11754698D01*
X2934229Y-11754698D02*
X2924705Y-11764222D01*
X2924705Y-11764222D02*
X2915182Y-11754698D01*
X2915182Y-11754698D02*
X2924705Y-11745174D01*
X2924705Y-11745174D02*
X2924705Y-11764222D01*
M02*
