%TF.GenerationSoftware,KiCad,Pcbnew,9.0.2*%
%TF.CreationDate,2025-06-22T13:00:46+02:00*%
%TF.ProjectId,kicad,6b696361-642e-46b6-9963-61645f706362,rev?*%
%TF.SameCoordinates,Original*%
%TF.FileFunction,Drillmap*%
%TF.FilePolarity,Positive*%
%FSLAX45Y45*%
G04 Gerber Fmt 4.5, Leading zero omitted, Abs format (unit mm)*
G04 Created by KiCad (PCBNEW 9.0.2) date 2025-06-22 13:00:46*
%MOMM*%
%LPD*%
G01*
G04 APERTURE LIST*
%ADD10C,0.150000*%
%ADD11C,0.200000*%
%ADD12C,0.220000*%
%ADD13C,0.320000*%
G04 APERTURE END LIST*
D10*
X5050000Y-9600000D02*
X6450000Y-9600000D01*
X11500000Y-11550000D02*
X6450000Y-11550000D01*
X6450000Y-11550000D02*
X6450000Y-9600000D01*
X5050000Y-9600000D02*
X4700000Y-9250000D01*
X4700000Y-9250000D02*
X3000000Y-9250000D01*
X1300000Y-7550000D02*
X1300000Y-4150000D01*
X4100000Y-1350000D02*
X11500000Y-1350000D01*
X1300000Y-4150000D02*
X4100000Y-1350000D01*
X3000000Y-9250000D02*
X1300000Y-7550000D01*
X11500000Y-11550000D02*
X11500000Y-1350000D01*
D11*
D12*
X4890000Y-9190000D02*
X5110000Y-9410000D01*
X5110000Y-9190000D02*
X4890000Y-9410000D01*
X6490000Y-9590000D02*
X6710000Y-9810000D01*
X6710000Y-9590000D02*
X6490000Y-9810000D01*
X6490000Y-11190000D02*
X6710000Y-11410000D01*
X6710000Y-11190000D02*
X6490000Y-11410000D01*
D13*
X2310000Y-3650000D02*
G75*
G02*
X1990000Y-3650000I-160000J0D01*
G01*
X1990000Y-3650000D02*
G75*
G02*
X2310000Y-3650000I160000J0D01*
G01*
X2310000Y-8050000D02*
G75*
G02*
X1990000Y-8050000I-160000J0D01*
G01*
X1990000Y-8050000D02*
G75*
G02*
X2310000Y-8050000I160000J0D01*
G01*
X4385000Y-1600000D02*
G75*
G02*
X4065000Y-1600000I-160000J0D01*
G01*
X4065000Y-1600000D02*
G75*
G02*
X4385000Y-1600000I160000J0D01*
G01*
X11410000Y-1600000D02*
G75*
G02*
X11090000Y-1600000I-160000J0D01*
G01*
X11090000Y-1600000D02*
G75*
G02*
X11410000Y-1600000I160000J0D01*
G01*
X11410000Y-11300000D02*
G75*
G02*
X11090000Y-11300000I-160000J0D01*
G01*
X11090000Y-11300000D02*
G75*
G02*
X11410000Y-11300000I160000J0D01*
G01*
D11*
X1553277Y-11868984D02*
X1553277Y-11668984D01*
X1553277Y-11668984D02*
X1600896Y-11668984D01*
X1600896Y-11668984D02*
X1629467Y-11678508D01*
X1629467Y-11678508D02*
X1648515Y-11697555D01*
X1648515Y-11697555D02*
X1658039Y-11716603D01*
X1658039Y-11716603D02*
X1667562Y-11754698D01*
X1667562Y-11754698D02*
X1667562Y-11783269D01*
X1667562Y-11783269D02*
X1658039Y-11821365D01*
X1658039Y-11821365D02*
X1648515Y-11840412D01*
X1648515Y-11840412D02*
X1629467Y-11859460D01*
X1629467Y-11859460D02*
X1600896Y-11868984D01*
X1600896Y-11868984D02*
X1553277Y-11868984D01*
X1753277Y-11868984D02*
X1753277Y-11735650D01*
X1753277Y-11773746D02*
X1762801Y-11754698D01*
X1762801Y-11754698D02*
X1772324Y-11745174D01*
X1772324Y-11745174D02*
X1791372Y-11735650D01*
X1791372Y-11735650D02*
X1810420Y-11735650D01*
X1877086Y-11868984D02*
X1877086Y-11735650D01*
X1877086Y-11668984D02*
X1867562Y-11678508D01*
X1867562Y-11678508D02*
X1877086Y-11688031D01*
X1877086Y-11688031D02*
X1886610Y-11678508D01*
X1886610Y-11678508D02*
X1877086Y-11668984D01*
X1877086Y-11668984D02*
X1877086Y-11688031D01*
X2000896Y-11868984D02*
X1981848Y-11859460D01*
X1981848Y-11859460D02*
X1972324Y-11840412D01*
X1972324Y-11840412D02*
X1972324Y-11668984D01*
X2105658Y-11868984D02*
X2086610Y-11859460D01*
X2086610Y-11859460D02*
X2077086Y-11840412D01*
X2077086Y-11840412D02*
X2077086Y-11668984D01*
X2334229Y-11868984D02*
X2334229Y-11668984D01*
X2334229Y-11668984D02*
X2400896Y-11811841D01*
X2400896Y-11811841D02*
X2467563Y-11668984D01*
X2467563Y-11668984D02*
X2467563Y-11868984D01*
X2648515Y-11868984D02*
X2648515Y-11764222D01*
X2648515Y-11764222D02*
X2638991Y-11745174D01*
X2638991Y-11745174D02*
X2619944Y-11735650D01*
X2619944Y-11735650D02*
X2581848Y-11735650D01*
X2581848Y-11735650D02*
X2562801Y-11745174D01*
X2648515Y-11859460D02*
X2629467Y-11868984D01*
X2629467Y-11868984D02*
X2581848Y-11868984D01*
X2581848Y-11868984D02*
X2562801Y-11859460D01*
X2562801Y-11859460D02*
X2553277Y-11840412D01*
X2553277Y-11840412D02*
X2553277Y-11821365D01*
X2553277Y-11821365D02*
X2562801Y-11802317D01*
X2562801Y-11802317D02*
X2581848Y-11792793D01*
X2581848Y-11792793D02*
X2629467Y-11792793D01*
X2629467Y-11792793D02*
X2648515Y-11783269D01*
X2743753Y-11735650D02*
X2743753Y-11935650D01*
X2743753Y-11745174D02*
X2762801Y-11735650D01*
X2762801Y-11735650D02*
X2800896Y-11735650D01*
X2800896Y-11735650D02*
X2819943Y-11745174D01*
X2819943Y-11745174D02*
X2829467Y-11754698D01*
X2829467Y-11754698D02*
X2838991Y-11773746D01*
X2838991Y-11773746D02*
X2838991Y-11830888D01*
X2838991Y-11830888D02*
X2829467Y-11849936D01*
X2829467Y-11849936D02*
X2819943Y-11859460D01*
X2819943Y-11859460D02*
X2800896Y-11868984D01*
X2800896Y-11868984D02*
X2762801Y-11868984D01*
X2762801Y-11868984D02*
X2743753Y-11859460D01*
X2924705Y-11849936D02*
X2934229Y-11859460D01*
X2934229Y-11859460D02*
X2924705Y-11868984D01*
X2924705Y-11868984D02*
X2915182Y-11859460D01*
X2915182Y-11859460D02*
X2924705Y-11849936D01*
X2924705Y-11849936D02*
X2924705Y-11868984D01*
X2924705Y-11745174D02*
X2934229Y-11754698D01*
X2934229Y-11754698D02*
X2924705Y-11764222D01*
X2924705Y-11764222D02*
X2915182Y-11754698D01*
X2915182Y-11754698D02*
X2924705Y-11745174D01*
X2924705Y-11745174D02*
X2924705Y-11764222D01*
X1092500Y-12097500D02*
X1292500Y-12297500D01*
X1292500Y-12097500D02*
X1092500Y-12297500D01*
X1543753Y-12108031D02*
X1553277Y-12098508D01*
X1553277Y-12098508D02*
X1572324Y-12088984D01*
X1572324Y-12088984D02*
X1619943Y-12088984D01*
X1619943Y-12088984D02*
X1638991Y-12098508D01*
X1638991Y-12098508D02*
X1648515Y-12108031D01*
X1648515Y-12108031D02*
X1658039Y-12127079D01*
X1658039Y-12127079D02*
X1658039Y-12146127D01*
X1658039Y-12146127D02*
X1648515Y-12174698D01*
X1648515Y-12174698D02*
X1534229Y-12288984D01*
X1534229Y-12288984D02*
X1658039Y-12288984D01*
X1743753Y-12269936D02*
X1753277Y-12279460D01*
X1753277Y-12279460D02*
X1743753Y-12288984D01*
X1743753Y-12288984D02*
X1734229Y-12279460D01*
X1734229Y-12279460D02*
X1743753Y-12269936D01*
X1743753Y-12269936D02*
X1743753Y-12288984D01*
X1829467Y-12108031D02*
X1838991Y-12098508D01*
X1838991Y-12098508D02*
X1858039Y-12088984D01*
X1858039Y-12088984D02*
X1905658Y-12088984D01*
X1905658Y-12088984D02*
X1924705Y-12098508D01*
X1924705Y-12098508D02*
X1934229Y-12108031D01*
X1934229Y-12108031D02*
X1943753Y-12127079D01*
X1943753Y-12127079D02*
X1943753Y-12146127D01*
X1943753Y-12146127D02*
X1934229Y-12174698D01*
X1934229Y-12174698D02*
X1819943Y-12288984D01*
X1819943Y-12288984D02*
X1943753Y-12288984D01*
X2067562Y-12088984D02*
X2086610Y-12088984D01*
X2086610Y-12088984D02*
X2105658Y-12098508D01*
X2105658Y-12098508D02*
X2115182Y-12108031D01*
X2115182Y-12108031D02*
X2124705Y-12127079D01*
X2124705Y-12127079D02*
X2134229Y-12165174D01*
X2134229Y-12165174D02*
X2134229Y-12212793D01*
X2134229Y-12212793D02*
X2124705Y-12250888D01*
X2124705Y-12250888D02*
X2115182Y-12269936D01*
X2115182Y-12269936D02*
X2105658Y-12279460D01*
X2105658Y-12279460D02*
X2086610Y-12288984D01*
X2086610Y-12288984D02*
X2067562Y-12288984D01*
X2067562Y-12288984D02*
X2048515Y-12279460D01*
X2048515Y-12279460D02*
X2038991Y-12269936D01*
X2038991Y-12269936D02*
X2029467Y-12250888D01*
X2029467Y-12250888D02*
X2019943Y-12212793D01*
X2019943Y-12212793D02*
X2019943Y-12165174D01*
X2019943Y-12165174D02*
X2029467Y-12127079D01*
X2029467Y-12127079D02*
X2038991Y-12108031D01*
X2038991Y-12108031D02*
X2048515Y-12098508D01*
X2048515Y-12098508D02*
X2067562Y-12088984D01*
X2258039Y-12088984D02*
X2277086Y-12088984D01*
X2277086Y-12088984D02*
X2296134Y-12098508D01*
X2296134Y-12098508D02*
X2305658Y-12108031D01*
X2305658Y-12108031D02*
X2315182Y-12127079D01*
X2315182Y-12127079D02*
X2324705Y-12165174D01*
X2324705Y-12165174D02*
X2324705Y-12212793D01*
X2324705Y-12212793D02*
X2315182Y-12250888D01*
X2315182Y-12250888D02*
X2305658Y-12269936D01*
X2305658Y-12269936D02*
X2296134Y-12279460D01*
X2296134Y-12279460D02*
X2277086Y-12288984D01*
X2277086Y-12288984D02*
X2258039Y-12288984D01*
X2258039Y-12288984D02*
X2238991Y-12279460D01*
X2238991Y-12279460D02*
X2229467Y-12269936D01*
X2229467Y-12269936D02*
X2219944Y-12250888D01*
X2219944Y-12250888D02*
X2210420Y-12212793D01*
X2210420Y-12212793D02*
X2210420Y-12165174D01*
X2210420Y-12165174D02*
X2219944Y-12127079D01*
X2219944Y-12127079D02*
X2229467Y-12108031D01*
X2229467Y-12108031D02*
X2238991Y-12098508D01*
X2238991Y-12098508D02*
X2258039Y-12088984D01*
X2410420Y-12288984D02*
X2410420Y-12155650D01*
X2410420Y-12174698D02*
X2419944Y-12165174D01*
X2419944Y-12165174D02*
X2438991Y-12155650D01*
X2438991Y-12155650D02*
X2467563Y-12155650D01*
X2467563Y-12155650D02*
X2486610Y-12165174D01*
X2486610Y-12165174D02*
X2496134Y-12184222D01*
X2496134Y-12184222D02*
X2496134Y-12288984D01*
X2496134Y-12184222D02*
X2505658Y-12165174D01*
X2505658Y-12165174D02*
X2524705Y-12155650D01*
X2524705Y-12155650D02*
X2553277Y-12155650D01*
X2553277Y-12155650D02*
X2572325Y-12165174D01*
X2572325Y-12165174D02*
X2581848Y-12184222D01*
X2581848Y-12184222D02*
X2581848Y-12288984D01*
X2677086Y-12288984D02*
X2677086Y-12155650D01*
X2677086Y-12174698D02*
X2686610Y-12165174D01*
X2686610Y-12165174D02*
X2705658Y-12155650D01*
X2705658Y-12155650D02*
X2734229Y-12155650D01*
X2734229Y-12155650D02*
X2753277Y-12165174D01*
X2753277Y-12165174D02*
X2762801Y-12184222D01*
X2762801Y-12184222D02*
X2762801Y-12288984D01*
X2762801Y-12184222D02*
X2772325Y-12165174D01*
X2772325Y-12165174D02*
X2791372Y-12155650D01*
X2791372Y-12155650D02*
X2819943Y-12155650D01*
X2819943Y-12155650D02*
X2838991Y-12165174D01*
X2838991Y-12165174D02*
X2848515Y-12184222D01*
X2848515Y-12184222D02*
X2848515Y-12288984D01*
X3238991Y-12079460D02*
X3067563Y-12336603D01*
X3496134Y-12088984D02*
X3515182Y-12088984D01*
X3515182Y-12088984D02*
X3534229Y-12098508D01*
X3534229Y-12098508D02*
X3543753Y-12108031D01*
X3543753Y-12108031D02*
X3553277Y-12127079D01*
X3553277Y-12127079D02*
X3562801Y-12165174D01*
X3562801Y-12165174D02*
X3562801Y-12212793D01*
X3562801Y-12212793D02*
X3553277Y-12250888D01*
X3553277Y-12250888D02*
X3543753Y-12269936D01*
X3543753Y-12269936D02*
X3534229Y-12279460D01*
X3534229Y-12279460D02*
X3515182Y-12288984D01*
X3515182Y-12288984D02*
X3496134Y-12288984D01*
X3496134Y-12288984D02*
X3477086Y-12279460D01*
X3477086Y-12279460D02*
X3467563Y-12269936D01*
X3467563Y-12269936D02*
X3458039Y-12250888D01*
X3458039Y-12250888D02*
X3448515Y-12212793D01*
X3448515Y-12212793D02*
X3448515Y-12165174D01*
X3448515Y-12165174D02*
X3458039Y-12127079D01*
X3458039Y-12127079D02*
X3467563Y-12108031D01*
X3467563Y-12108031D02*
X3477086Y-12098508D01*
X3477086Y-12098508D02*
X3496134Y-12088984D01*
X3648515Y-12269936D02*
X3658039Y-12279460D01*
X3658039Y-12279460D02*
X3648515Y-12288984D01*
X3648515Y-12288984D02*
X3638991Y-12279460D01*
X3638991Y-12279460D02*
X3648515Y-12269936D01*
X3648515Y-12269936D02*
X3648515Y-12288984D01*
X3781848Y-12088984D02*
X3800896Y-12088984D01*
X3800896Y-12088984D02*
X3819944Y-12098508D01*
X3819944Y-12098508D02*
X3829467Y-12108031D01*
X3829467Y-12108031D02*
X3838991Y-12127079D01*
X3838991Y-12127079D02*
X3848515Y-12165174D01*
X3848515Y-12165174D02*
X3848515Y-12212793D01*
X3848515Y-12212793D02*
X3838991Y-12250888D01*
X3838991Y-12250888D02*
X3829467Y-12269936D01*
X3829467Y-12269936D02*
X3819944Y-12279460D01*
X3819944Y-12279460D02*
X3800896Y-12288984D01*
X3800896Y-12288984D02*
X3781848Y-12288984D01*
X3781848Y-12288984D02*
X3762801Y-12279460D01*
X3762801Y-12279460D02*
X3753277Y-12269936D01*
X3753277Y-12269936D02*
X3743753Y-12250888D01*
X3743753Y-12250888D02*
X3734229Y-12212793D01*
X3734229Y-12212793D02*
X3734229Y-12165174D01*
X3734229Y-12165174D02*
X3743753Y-12127079D01*
X3743753Y-12127079D02*
X3753277Y-12108031D01*
X3753277Y-12108031D02*
X3762801Y-12098508D01*
X3762801Y-12098508D02*
X3781848Y-12088984D01*
X3962801Y-12174698D02*
X3943753Y-12165174D01*
X3943753Y-12165174D02*
X3934229Y-12155650D01*
X3934229Y-12155650D02*
X3924706Y-12136603D01*
X3924706Y-12136603D02*
X3924706Y-12127079D01*
X3924706Y-12127079D02*
X3934229Y-12108031D01*
X3934229Y-12108031D02*
X3943753Y-12098508D01*
X3943753Y-12098508D02*
X3962801Y-12088984D01*
X3962801Y-12088984D02*
X4000896Y-12088984D01*
X4000896Y-12088984D02*
X4019944Y-12098508D01*
X4019944Y-12098508D02*
X4029467Y-12108031D01*
X4029467Y-12108031D02*
X4038991Y-12127079D01*
X4038991Y-12127079D02*
X4038991Y-12136603D01*
X4038991Y-12136603D02*
X4029467Y-12155650D01*
X4029467Y-12155650D02*
X4019944Y-12165174D01*
X4019944Y-12165174D02*
X4000896Y-12174698D01*
X4000896Y-12174698D02*
X3962801Y-12174698D01*
X3962801Y-12174698D02*
X3943753Y-12184222D01*
X3943753Y-12184222D02*
X3934229Y-12193746D01*
X3934229Y-12193746D02*
X3924706Y-12212793D01*
X3924706Y-12212793D02*
X3924706Y-12250888D01*
X3924706Y-12250888D02*
X3934229Y-12269936D01*
X3934229Y-12269936D02*
X3943753Y-12279460D01*
X3943753Y-12279460D02*
X3962801Y-12288984D01*
X3962801Y-12288984D02*
X4000896Y-12288984D01*
X4000896Y-12288984D02*
X4019944Y-12279460D01*
X4019944Y-12279460D02*
X4029467Y-12269936D01*
X4029467Y-12269936D02*
X4038991Y-12250888D01*
X4038991Y-12250888D02*
X4038991Y-12212793D01*
X4038991Y-12212793D02*
X4029467Y-12193746D01*
X4029467Y-12193746D02*
X4019944Y-12184222D01*
X4019944Y-12184222D02*
X4000896Y-12174698D01*
X4210420Y-12088984D02*
X4172325Y-12088984D01*
X4172325Y-12088984D02*
X4153277Y-12098508D01*
X4153277Y-12098508D02*
X4143753Y-12108031D01*
X4143753Y-12108031D02*
X4124706Y-12136603D01*
X4124706Y-12136603D02*
X4115182Y-12174698D01*
X4115182Y-12174698D02*
X4115182Y-12250888D01*
X4115182Y-12250888D02*
X4124706Y-12269936D01*
X4124706Y-12269936D02*
X4134229Y-12279460D01*
X4134229Y-12279460D02*
X4153277Y-12288984D01*
X4153277Y-12288984D02*
X4191372Y-12288984D01*
X4191372Y-12288984D02*
X4210420Y-12279460D01*
X4210420Y-12279460D02*
X4219944Y-12269936D01*
X4219944Y-12269936D02*
X4229468Y-12250888D01*
X4229468Y-12250888D02*
X4229468Y-12203269D01*
X4229468Y-12203269D02*
X4219944Y-12184222D01*
X4219944Y-12184222D02*
X4210420Y-12174698D01*
X4210420Y-12174698D02*
X4191372Y-12165174D01*
X4191372Y-12165174D02*
X4153277Y-12165174D01*
X4153277Y-12165174D02*
X4134229Y-12174698D01*
X4134229Y-12174698D02*
X4124706Y-12184222D01*
X4124706Y-12184222D02*
X4115182Y-12203269D01*
X4400896Y-12088984D02*
X4362801Y-12088984D01*
X4362801Y-12088984D02*
X4343753Y-12098508D01*
X4343753Y-12098508D02*
X4334229Y-12108031D01*
X4334229Y-12108031D02*
X4315182Y-12136603D01*
X4315182Y-12136603D02*
X4305658Y-12174698D01*
X4305658Y-12174698D02*
X4305658Y-12250888D01*
X4305658Y-12250888D02*
X4315182Y-12269936D01*
X4315182Y-12269936D02*
X4324706Y-12279460D01*
X4324706Y-12279460D02*
X4343753Y-12288984D01*
X4343753Y-12288984D02*
X4381849Y-12288984D01*
X4381849Y-12288984D02*
X4400896Y-12279460D01*
X4400896Y-12279460D02*
X4410420Y-12269936D01*
X4410420Y-12269936D02*
X4419944Y-12250888D01*
X4419944Y-12250888D02*
X4419944Y-12203269D01*
X4419944Y-12203269D02*
X4410420Y-12184222D01*
X4410420Y-12184222D02*
X4400896Y-12174698D01*
X4400896Y-12174698D02*
X4381849Y-12165174D01*
X4381849Y-12165174D02*
X4343753Y-12165174D01*
X4343753Y-12165174D02*
X4324706Y-12174698D01*
X4324706Y-12174698D02*
X4315182Y-12184222D01*
X4315182Y-12184222D02*
X4305658Y-12203269D01*
X4496134Y-12088984D02*
X4496134Y-12127079D01*
X4572325Y-12088984D02*
X4572325Y-12127079D01*
X4867563Y-12365174D02*
X4858039Y-12355650D01*
X4858039Y-12355650D02*
X4838991Y-12327079D01*
X4838991Y-12327079D02*
X4829468Y-12308031D01*
X4829468Y-12308031D02*
X4819944Y-12279460D01*
X4819944Y-12279460D02*
X4810420Y-12231841D01*
X4810420Y-12231841D02*
X4810420Y-12193746D01*
X4810420Y-12193746D02*
X4819944Y-12146127D01*
X4819944Y-12146127D02*
X4829468Y-12117555D01*
X4829468Y-12117555D02*
X4838991Y-12098508D01*
X4838991Y-12098508D02*
X4858039Y-12069936D01*
X4858039Y-12069936D02*
X4867563Y-12060412D01*
X4924706Y-12088984D02*
X5048515Y-12088984D01*
X5048515Y-12088984D02*
X4981849Y-12165174D01*
X4981849Y-12165174D02*
X5010420Y-12165174D01*
X5010420Y-12165174D02*
X5029468Y-12174698D01*
X5029468Y-12174698D02*
X5038991Y-12184222D01*
X5038991Y-12184222D02*
X5048515Y-12203269D01*
X5048515Y-12203269D02*
X5048515Y-12250888D01*
X5048515Y-12250888D02*
X5038991Y-12269936D01*
X5038991Y-12269936D02*
X5029468Y-12279460D01*
X5029468Y-12279460D02*
X5010420Y-12288984D01*
X5010420Y-12288984D02*
X4953277Y-12288984D01*
X4953277Y-12288984D02*
X4934230Y-12279460D01*
X4934230Y-12279460D02*
X4924706Y-12269936D01*
X5286611Y-12288984D02*
X5286611Y-12088984D01*
X5372325Y-12288984D02*
X5372325Y-12184222D01*
X5372325Y-12184222D02*
X5362801Y-12165174D01*
X5362801Y-12165174D02*
X5343753Y-12155650D01*
X5343753Y-12155650D02*
X5315182Y-12155650D01*
X5315182Y-12155650D02*
X5296134Y-12165174D01*
X5296134Y-12165174D02*
X5286611Y-12174698D01*
X5496134Y-12288984D02*
X5477087Y-12279460D01*
X5477087Y-12279460D02*
X5467563Y-12269936D01*
X5467563Y-12269936D02*
X5458039Y-12250888D01*
X5458039Y-12250888D02*
X5458039Y-12193746D01*
X5458039Y-12193746D02*
X5467563Y-12174698D01*
X5467563Y-12174698D02*
X5477087Y-12165174D01*
X5477087Y-12165174D02*
X5496134Y-12155650D01*
X5496134Y-12155650D02*
X5524706Y-12155650D01*
X5524706Y-12155650D02*
X5543753Y-12165174D01*
X5543753Y-12165174D02*
X5553277Y-12174698D01*
X5553277Y-12174698D02*
X5562801Y-12193746D01*
X5562801Y-12193746D02*
X5562801Y-12250888D01*
X5562801Y-12250888D02*
X5553277Y-12269936D01*
X5553277Y-12269936D02*
X5543753Y-12279460D01*
X5543753Y-12279460D02*
X5524706Y-12288984D01*
X5524706Y-12288984D02*
X5496134Y-12288984D01*
X5677087Y-12288984D02*
X5658039Y-12279460D01*
X5658039Y-12279460D02*
X5648515Y-12260412D01*
X5648515Y-12260412D02*
X5648515Y-12088984D01*
X5829468Y-12279460D02*
X5810420Y-12288984D01*
X5810420Y-12288984D02*
X5772325Y-12288984D01*
X5772325Y-12288984D02*
X5753277Y-12279460D01*
X5753277Y-12279460D02*
X5743753Y-12260412D01*
X5743753Y-12260412D02*
X5743753Y-12184222D01*
X5743753Y-12184222D02*
X5753277Y-12165174D01*
X5753277Y-12165174D02*
X5772325Y-12155650D01*
X5772325Y-12155650D02*
X5810420Y-12155650D01*
X5810420Y-12155650D02*
X5829468Y-12165174D01*
X5829468Y-12165174D02*
X5838991Y-12184222D01*
X5838991Y-12184222D02*
X5838991Y-12203269D01*
X5838991Y-12203269D02*
X5743753Y-12222317D01*
X5915182Y-12279460D02*
X5934230Y-12288984D01*
X5934230Y-12288984D02*
X5972325Y-12288984D01*
X5972325Y-12288984D02*
X5991372Y-12279460D01*
X5991372Y-12279460D02*
X6000896Y-12260412D01*
X6000896Y-12260412D02*
X6000896Y-12250888D01*
X6000896Y-12250888D02*
X5991372Y-12231841D01*
X5991372Y-12231841D02*
X5972325Y-12222317D01*
X5972325Y-12222317D02*
X5943753Y-12222317D01*
X5943753Y-12222317D02*
X5924706Y-12212793D01*
X5924706Y-12212793D02*
X5915182Y-12193746D01*
X5915182Y-12193746D02*
X5915182Y-12184222D01*
X5915182Y-12184222D02*
X5924706Y-12165174D01*
X5924706Y-12165174D02*
X5943753Y-12155650D01*
X5943753Y-12155650D02*
X5972325Y-12155650D01*
X5972325Y-12155650D02*
X5991372Y-12165174D01*
X6067563Y-12365174D02*
X6077087Y-12355650D01*
X6077087Y-12355650D02*
X6096134Y-12327079D01*
X6096134Y-12327079D02*
X6105658Y-12308031D01*
X6105658Y-12308031D02*
X6115182Y-12279460D01*
X6115182Y-12279460D02*
X6124706Y-12231841D01*
X6124706Y-12231841D02*
X6124706Y-12193746D01*
X6124706Y-12193746D02*
X6115182Y-12146127D01*
X6115182Y-12146127D02*
X6105658Y-12117555D01*
X6105658Y-12117555D02*
X6096134Y-12098508D01*
X6096134Y-12098508D02*
X6077087Y-12069936D01*
X6077087Y-12069936D02*
X6067563Y-12060412D01*
X6429468Y-12365174D02*
X6419944Y-12355650D01*
X6419944Y-12355650D02*
X6400896Y-12327079D01*
X6400896Y-12327079D02*
X6391372Y-12308031D01*
X6391372Y-12308031D02*
X6381849Y-12279460D01*
X6381849Y-12279460D02*
X6372325Y-12231841D01*
X6372325Y-12231841D02*
X6372325Y-12193746D01*
X6372325Y-12193746D02*
X6381849Y-12146127D01*
X6381849Y-12146127D02*
X6391372Y-12117555D01*
X6391372Y-12117555D02*
X6400896Y-12098508D01*
X6400896Y-12098508D02*
X6419944Y-12069936D01*
X6419944Y-12069936D02*
X6429468Y-12060412D01*
X6505658Y-12155650D02*
X6505658Y-12288984D01*
X6505658Y-12174698D02*
X6515182Y-12165174D01*
X6515182Y-12165174D02*
X6534230Y-12155650D01*
X6534230Y-12155650D02*
X6562801Y-12155650D01*
X6562801Y-12155650D02*
X6581849Y-12165174D01*
X6581849Y-12165174D02*
X6591372Y-12184222D01*
X6591372Y-12184222D02*
X6591372Y-12288984D01*
X6715182Y-12288984D02*
X6696134Y-12279460D01*
X6696134Y-12279460D02*
X6686611Y-12269936D01*
X6686611Y-12269936D02*
X6677087Y-12250888D01*
X6677087Y-12250888D02*
X6677087Y-12193746D01*
X6677087Y-12193746D02*
X6686611Y-12174698D01*
X6686611Y-12174698D02*
X6696134Y-12165174D01*
X6696134Y-12165174D02*
X6715182Y-12155650D01*
X6715182Y-12155650D02*
X6743753Y-12155650D01*
X6743753Y-12155650D02*
X6762801Y-12165174D01*
X6762801Y-12165174D02*
X6772325Y-12174698D01*
X6772325Y-12174698D02*
X6781849Y-12193746D01*
X6781849Y-12193746D02*
X6781849Y-12250888D01*
X6781849Y-12250888D02*
X6772325Y-12269936D01*
X6772325Y-12269936D02*
X6762801Y-12279460D01*
X6762801Y-12279460D02*
X6743753Y-12288984D01*
X6743753Y-12288984D02*
X6715182Y-12288984D01*
X6838992Y-12155650D02*
X6915182Y-12155650D01*
X6867563Y-12088984D02*
X6867563Y-12260412D01*
X6867563Y-12260412D02*
X6877087Y-12279460D01*
X6877087Y-12279460D02*
X6896134Y-12288984D01*
X6896134Y-12288984D02*
X6915182Y-12288984D01*
X7134230Y-12155650D02*
X7134230Y-12355650D01*
X7134230Y-12165174D02*
X7153277Y-12155650D01*
X7153277Y-12155650D02*
X7191373Y-12155650D01*
X7191373Y-12155650D02*
X7210420Y-12165174D01*
X7210420Y-12165174D02*
X7219944Y-12174698D01*
X7219944Y-12174698D02*
X7229468Y-12193746D01*
X7229468Y-12193746D02*
X7229468Y-12250888D01*
X7229468Y-12250888D02*
X7219944Y-12269936D01*
X7219944Y-12269936D02*
X7210420Y-12279460D01*
X7210420Y-12279460D02*
X7191373Y-12288984D01*
X7191373Y-12288984D02*
X7153277Y-12288984D01*
X7153277Y-12288984D02*
X7134230Y-12279460D01*
X7343753Y-12288984D02*
X7324706Y-12279460D01*
X7324706Y-12279460D02*
X7315182Y-12260412D01*
X7315182Y-12260412D02*
X7315182Y-12088984D01*
X7505658Y-12288984D02*
X7505658Y-12184222D01*
X7505658Y-12184222D02*
X7496134Y-12165174D01*
X7496134Y-12165174D02*
X7477087Y-12155650D01*
X7477087Y-12155650D02*
X7438992Y-12155650D01*
X7438992Y-12155650D02*
X7419944Y-12165174D01*
X7505658Y-12279460D02*
X7486611Y-12288984D01*
X7486611Y-12288984D02*
X7438992Y-12288984D01*
X7438992Y-12288984D02*
X7419944Y-12279460D01*
X7419944Y-12279460D02*
X7410420Y-12260412D01*
X7410420Y-12260412D02*
X7410420Y-12241365D01*
X7410420Y-12241365D02*
X7419944Y-12222317D01*
X7419944Y-12222317D02*
X7438992Y-12212793D01*
X7438992Y-12212793D02*
X7486611Y-12212793D01*
X7486611Y-12212793D02*
X7505658Y-12203269D01*
X7572325Y-12155650D02*
X7648515Y-12155650D01*
X7600896Y-12088984D02*
X7600896Y-12260412D01*
X7600896Y-12260412D02*
X7610420Y-12279460D01*
X7610420Y-12279460D02*
X7629468Y-12288984D01*
X7629468Y-12288984D02*
X7648515Y-12288984D01*
X7791373Y-12279460D02*
X7772325Y-12288984D01*
X7772325Y-12288984D02*
X7734230Y-12288984D01*
X7734230Y-12288984D02*
X7715182Y-12279460D01*
X7715182Y-12279460D02*
X7705658Y-12260412D01*
X7705658Y-12260412D02*
X7705658Y-12184222D01*
X7705658Y-12184222D02*
X7715182Y-12165174D01*
X7715182Y-12165174D02*
X7734230Y-12155650D01*
X7734230Y-12155650D02*
X7772325Y-12155650D01*
X7772325Y-12155650D02*
X7791373Y-12165174D01*
X7791373Y-12165174D02*
X7800896Y-12184222D01*
X7800896Y-12184222D02*
X7800896Y-12203269D01*
X7800896Y-12203269D02*
X7705658Y-12222317D01*
X7972325Y-12288984D02*
X7972325Y-12088984D01*
X7972325Y-12279460D02*
X7953277Y-12288984D01*
X7953277Y-12288984D02*
X7915182Y-12288984D01*
X7915182Y-12288984D02*
X7896134Y-12279460D01*
X7896134Y-12279460D02*
X7886611Y-12269936D01*
X7886611Y-12269936D02*
X7877087Y-12250888D01*
X7877087Y-12250888D02*
X7877087Y-12193746D01*
X7877087Y-12193746D02*
X7886611Y-12174698D01*
X7886611Y-12174698D02*
X7896134Y-12165174D01*
X7896134Y-12165174D02*
X7915182Y-12155650D01*
X7915182Y-12155650D02*
X7953277Y-12155650D01*
X7953277Y-12155650D02*
X7972325Y-12165174D01*
X8048515Y-12365174D02*
X8058039Y-12355650D01*
X8058039Y-12355650D02*
X8077087Y-12327079D01*
X8077087Y-12327079D02*
X8086611Y-12308031D01*
X8086611Y-12308031D02*
X8096134Y-12279460D01*
X8096134Y-12279460D02*
X8105658Y-12231841D01*
X8105658Y-12231841D02*
X8105658Y-12193746D01*
X8105658Y-12193746D02*
X8096134Y-12146127D01*
X8096134Y-12146127D02*
X8086611Y-12117555D01*
X8086611Y-12117555D02*
X8077087Y-12098508D01*
X8077087Y-12098508D02*
X8058039Y-12069936D01*
X8058039Y-12069936D02*
X8048515Y-12060412D01*
X1292500Y-12517500D02*
G75*
G02*
X1092500Y-12517500I-100000J0D01*
G01*
X1092500Y-12517500D02*
G75*
G02*
X1292500Y-12517500I100000J0D01*
G01*
X1534229Y-12408984D02*
X1658039Y-12408984D01*
X1658039Y-12408984D02*
X1591372Y-12485174D01*
X1591372Y-12485174D02*
X1619943Y-12485174D01*
X1619943Y-12485174D02*
X1638991Y-12494698D01*
X1638991Y-12494698D02*
X1648515Y-12504222D01*
X1648515Y-12504222D02*
X1658039Y-12523269D01*
X1658039Y-12523269D02*
X1658039Y-12570888D01*
X1658039Y-12570888D02*
X1648515Y-12589936D01*
X1648515Y-12589936D02*
X1638991Y-12599460D01*
X1638991Y-12599460D02*
X1619943Y-12608984D01*
X1619943Y-12608984D02*
X1562801Y-12608984D01*
X1562801Y-12608984D02*
X1543753Y-12599460D01*
X1543753Y-12599460D02*
X1534229Y-12589936D01*
X1743753Y-12589936D02*
X1753277Y-12599460D01*
X1753277Y-12599460D02*
X1743753Y-12608984D01*
X1743753Y-12608984D02*
X1734229Y-12599460D01*
X1734229Y-12599460D02*
X1743753Y-12589936D01*
X1743753Y-12589936D02*
X1743753Y-12608984D01*
X1829467Y-12428031D02*
X1838991Y-12418508D01*
X1838991Y-12418508D02*
X1858039Y-12408984D01*
X1858039Y-12408984D02*
X1905658Y-12408984D01*
X1905658Y-12408984D02*
X1924705Y-12418508D01*
X1924705Y-12418508D02*
X1934229Y-12428031D01*
X1934229Y-12428031D02*
X1943753Y-12447079D01*
X1943753Y-12447079D02*
X1943753Y-12466127D01*
X1943753Y-12466127D02*
X1934229Y-12494698D01*
X1934229Y-12494698D02*
X1819943Y-12608984D01*
X1819943Y-12608984D02*
X1943753Y-12608984D01*
X2067562Y-12408984D02*
X2086610Y-12408984D01*
X2086610Y-12408984D02*
X2105658Y-12418508D01*
X2105658Y-12418508D02*
X2115182Y-12428031D01*
X2115182Y-12428031D02*
X2124705Y-12447079D01*
X2124705Y-12447079D02*
X2134229Y-12485174D01*
X2134229Y-12485174D02*
X2134229Y-12532793D01*
X2134229Y-12532793D02*
X2124705Y-12570888D01*
X2124705Y-12570888D02*
X2115182Y-12589936D01*
X2115182Y-12589936D02*
X2105658Y-12599460D01*
X2105658Y-12599460D02*
X2086610Y-12608984D01*
X2086610Y-12608984D02*
X2067562Y-12608984D01*
X2067562Y-12608984D02*
X2048515Y-12599460D01*
X2048515Y-12599460D02*
X2038991Y-12589936D01*
X2038991Y-12589936D02*
X2029467Y-12570888D01*
X2029467Y-12570888D02*
X2019943Y-12532793D01*
X2019943Y-12532793D02*
X2019943Y-12485174D01*
X2019943Y-12485174D02*
X2029467Y-12447079D01*
X2029467Y-12447079D02*
X2038991Y-12428031D01*
X2038991Y-12428031D02*
X2048515Y-12418508D01*
X2048515Y-12418508D02*
X2067562Y-12408984D01*
X2258039Y-12408984D02*
X2277086Y-12408984D01*
X2277086Y-12408984D02*
X2296134Y-12418508D01*
X2296134Y-12418508D02*
X2305658Y-12428031D01*
X2305658Y-12428031D02*
X2315182Y-12447079D01*
X2315182Y-12447079D02*
X2324705Y-12485174D01*
X2324705Y-12485174D02*
X2324705Y-12532793D01*
X2324705Y-12532793D02*
X2315182Y-12570888D01*
X2315182Y-12570888D02*
X2305658Y-12589936D01*
X2305658Y-12589936D02*
X2296134Y-12599460D01*
X2296134Y-12599460D02*
X2277086Y-12608984D01*
X2277086Y-12608984D02*
X2258039Y-12608984D01*
X2258039Y-12608984D02*
X2238991Y-12599460D01*
X2238991Y-12599460D02*
X2229467Y-12589936D01*
X2229467Y-12589936D02*
X2219944Y-12570888D01*
X2219944Y-12570888D02*
X2210420Y-12532793D01*
X2210420Y-12532793D02*
X2210420Y-12485174D01*
X2210420Y-12485174D02*
X2219944Y-12447079D01*
X2219944Y-12447079D02*
X2229467Y-12428031D01*
X2229467Y-12428031D02*
X2238991Y-12418508D01*
X2238991Y-12418508D02*
X2258039Y-12408984D01*
X2410420Y-12608984D02*
X2410420Y-12475650D01*
X2410420Y-12494698D02*
X2419944Y-12485174D01*
X2419944Y-12485174D02*
X2438991Y-12475650D01*
X2438991Y-12475650D02*
X2467563Y-12475650D01*
X2467563Y-12475650D02*
X2486610Y-12485174D01*
X2486610Y-12485174D02*
X2496134Y-12504222D01*
X2496134Y-12504222D02*
X2496134Y-12608984D01*
X2496134Y-12504222D02*
X2505658Y-12485174D01*
X2505658Y-12485174D02*
X2524705Y-12475650D01*
X2524705Y-12475650D02*
X2553277Y-12475650D01*
X2553277Y-12475650D02*
X2572325Y-12485174D01*
X2572325Y-12485174D02*
X2581848Y-12504222D01*
X2581848Y-12504222D02*
X2581848Y-12608984D01*
X2677086Y-12608984D02*
X2677086Y-12475650D01*
X2677086Y-12494698D02*
X2686610Y-12485174D01*
X2686610Y-12485174D02*
X2705658Y-12475650D01*
X2705658Y-12475650D02*
X2734229Y-12475650D01*
X2734229Y-12475650D02*
X2753277Y-12485174D01*
X2753277Y-12485174D02*
X2762801Y-12504222D01*
X2762801Y-12504222D02*
X2762801Y-12608984D01*
X2762801Y-12504222D02*
X2772325Y-12485174D01*
X2772325Y-12485174D02*
X2791372Y-12475650D01*
X2791372Y-12475650D02*
X2819943Y-12475650D01*
X2819943Y-12475650D02*
X2838991Y-12485174D01*
X2838991Y-12485174D02*
X2848515Y-12504222D01*
X2848515Y-12504222D02*
X2848515Y-12608984D01*
X3238991Y-12399460D02*
X3067563Y-12656603D01*
X3496134Y-12408984D02*
X3515182Y-12408984D01*
X3515182Y-12408984D02*
X3534229Y-12418508D01*
X3534229Y-12418508D02*
X3543753Y-12428031D01*
X3543753Y-12428031D02*
X3553277Y-12447079D01*
X3553277Y-12447079D02*
X3562801Y-12485174D01*
X3562801Y-12485174D02*
X3562801Y-12532793D01*
X3562801Y-12532793D02*
X3553277Y-12570888D01*
X3553277Y-12570888D02*
X3543753Y-12589936D01*
X3543753Y-12589936D02*
X3534229Y-12599460D01*
X3534229Y-12599460D02*
X3515182Y-12608984D01*
X3515182Y-12608984D02*
X3496134Y-12608984D01*
X3496134Y-12608984D02*
X3477086Y-12599460D01*
X3477086Y-12599460D02*
X3467563Y-12589936D01*
X3467563Y-12589936D02*
X3458039Y-12570888D01*
X3458039Y-12570888D02*
X3448515Y-12532793D01*
X3448515Y-12532793D02*
X3448515Y-12485174D01*
X3448515Y-12485174D02*
X3458039Y-12447079D01*
X3458039Y-12447079D02*
X3467563Y-12428031D01*
X3467563Y-12428031D02*
X3477086Y-12418508D01*
X3477086Y-12418508D02*
X3496134Y-12408984D01*
X3648515Y-12589936D02*
X3658039Y-12599460D01*
X3658039Y-12599460D02*
X3648515Y-12608984D01*
X3648515Y-12608984D02*
X3638991Y-12599460D01*
X3638991Y-12599460D02*
X3648515Y-12589936D01*
X3648515Y-12589936D02*
X3648515Y-12608984D01*
X3848515Y-12608984D02*
X3734229Y-12608984D01*
X3791372Y-12608984D02*
X3791372Y-12408984D01*
X3791372Y-12408984D02*
X3772325Y-12437555D01*
X3772325Y-12437555D02*
X3753277Y-12456603D01*
X3753277Y-12456603D02*
X3734229Y-12466127D01*
X3924706Y-12428031D02*
X3934229Y-12418508D01*
X3934229Y-12418508D02*
X3953277Y-12408984D01*
X3953277Y-12408984D02*
X4000896Y-12408984D01*
X4000896Y-12408984D02*
X4019944Y-12418508D01*
X4019944Y-12418508D02*
X4029467Y-12428031D01*
X4029467Y-12428031D02*
X4038991Y-12447079D01*
X4038991Y-12447079D02*
X4038991Y-12466127D01*
X4038991Y-12466127D02*
X4029467Y-12494698D01*
X4029467Y-12494698D02*
X3915182Y-12608984D01*
X3915182Y-12608984D02*
X4038991Y-12608984D01*
X4210420Y-12408984D02*
X4172325Y-12408984D01*
X4172325Y-12408984D02*
X4153277Y-12418508D01*
X4153277Y-12418508D02*
X4143753Y-12428031D01*
X4143753Y-12428031D02*
X4124706Y-12456603D01*
X4124706Y-12456603D02*
X4115182Y-12494698D01*
X4115182Y-12494698D02*
X4115182Y-12570888D01*
X4115182Y-12570888D02*
X4124706Y-12589936D01*
X4124706Y-12589936D02*
X4134229Y-12599460D01*
X4134229Y-12599460D02*
X4153277Y-12608984D01*
X4153277Y-12608984D02*
X4191372Y-12608984D01*
X4191372Y-12608984D02*
X4210420Y-12599460D01*
X4210420Y-12599460D02*
X4219944Y-12589936D01*
X4219944Y-12589936D02*
X4229468Y-12570888D01*
X4229468Y-12570888D02*
X4229468Y-12523269D01*
X4229468Y-12523269D02*
X4219944Y-12504222D01*
X4219944Y-12504222D02*
X4210420Y-12494698D01*
X4210420Y-12494698D02*
X4191372Y-12485174D01*
X4191372Y-12485174D02*
X4153277Y-12485174D01*
X4153277Y-12485174D02*
X4134229Y-12494698D01*
X4134229Y-12494698D02*
X4124706Y-12504222D01*
X4124706Y-12504222D02*
X4115182Y-12523269D01*
X4353277Y-12408984D02*
X4372325Y-12408984D01*
X4372325Y-12408984D02*
X4391372Y-12418508D01*
X4391372Y-12418508D02*
X4400896Y-12428031D01*
X4400896Y-12428031D02*
X4410420Y-12447079D01*
X4410420Y-12447079D02*
X4419944Y-12485174D01*
X4419944Y-12485174D02*
X4419944Y-12532793D01*
X4419944Y-12532793D02*
X4410420Y-12570888D01*
X4410420Y-12570888D02*
X4400896Y-12589936D01*
X4400896Y-12589936D02*
X4391372Y-12599460D01*
X4391372Y-12599460D02*
X4372325Y-12608984D01*
X4372325Y-12608984D02*
X4353277Y-12608984D01*
X4353277Y-12608984D02*
X4334229Y-12599460D01*
X4334229Y-12599460D02*
X4324706Y-12589936D01*
X4324706Y-12589936D02*
X4315182Y-12570888D01*
X4315182Y-12570888D02*
X4305658Y-12532793D01*
X4305658Y-12532793D02*
X4305658Y-12485174D01*
X4305658Y-12485174D02*
X4315182Y-12447079D01*
X4315182Y-12447079D02*
X4324706Y-12428031D01*
X4324706Y-12428031D02*
X4334229Y-12418508D01*
X4334229Y-12418508D02*
X4353277Y-12408984D01*
X4496134Y-12408984D02*
X4496134Y-12447079D01*
X4572325Y-12408984D02*
X4572325Y-12447079D01*
X4867563Y-12685174D02*
X4858039Y-12675650D01*
X4858039Y-12675650D02*
X4838991Y-12647079D01*
X4838991Y-12647079D02*
X4829468Y-12628031D01*
X4829468Y-12628031D02*
X4819944Y-12599460D01*
X4819944Y-12599460D02*
X4810420Y-12551841D01*
X4810420Y-12551841D02*
X4810420Y-12513746D01*
X4810420Y-12513746D02*
X4819944Y-12466127D01*
X4819944Y-12466127D02*
X4829468Y-12437555D01*
X4829468Y-12437555D02*
X4838991Y-12418508D01*
X4838991Y-12418508D02*
X4858039Y-12389936D01*
X4858039Y-12389936D02*
X4867563Y-12380412D01*
X5038991Y-12408984D02*
X4943753Y-12408984D01*
X4943753Y-12408984D02*
X4934230Y-12504222D01*
X4934230Y-12504222D02*
X4943753Y-12494698D01*
X4943753Y-12494698D02*
X4962801Y-12485174D01*
X4962801Y-12485174D02*
X5010420Y-12485174D01*
X5010420Y-12485174D02*
X5029468Y-12494698D01*
X5029468Y-12494698D02*
X5038991Y-12504222D01*
X5038991Y-12504222D02*
X5048515Y-12523269D01*
X5048515Y-12523269D02*
X5048515Y-12570888D01*
X5048515Y-12570888D02*
X5038991Y-12589936D01*
X5038991Y-12589936D02*
X5029468Y-12599460D01*
X5029468Y-12599460D02*
X5010420Y-12608984D01*
X5010420Y-12608984D02*
X4962801Y-12608984D01*
X4962801Y-12608984D02*
X4943753Y-12599460D01*
X4943753Y-12599460D02*
X4934230Y-12589936D01*
X5286611Y-12608984D02*
X5286611Y-12408984D01*
X5372325Y-12608984D02*
X5372325Y-12504222D01*
X5372325Y-12504222D02*
X5362801Y-12485174D01*
X5362801Y-12485174D02*
X5343753Y-12475650D01*
X5343753Y-12475650D02*
X5315182Y-12475650D01*
X5315182Y-12475650D02*
X5296134Y-12485174D01*
X5296134Y-12485174D02*
X5286611Y-12494698D01*
X5496134Y-12608984D02*
X5477087Y-12599460D01*
X5477087Y-12599460D02*
X5467563Y-12589936D01*
X5467563Y-12589936D02*
X5458039Y-12570888D01*
X5458039Y-12570888D02*
X5458039Y-12513746D01*
X5458039Y-12513746D02*
X5467563Y-12494698D01*
X5467563Y-12494698D02*
X5477087Y-12485174D01*
X5477087Y-12485174D02*
X5496134Y-12475650D01*
X5496134Y-12475650D02*
X5524706Y-12475650D01*
X5524706Y-12475650D02*
X5543753Y-12485174D01*
X5543753Y-12485174D02*
X5553277Y-12494698D01*
X5553277Y-12494698D02*
X5562801Y-12513746D01*
X5562801Y-12513746D02*
X5562801Y-12570888D01*
X5562801Y-12570888D02*
X5553277Y-12589936D01*
X5553277Y-12589936D02*
X5543753Y-12599460D01*
X5543753Y-12599460D02*
X5524706Y-12608984D01*
X5524706Y-12608984D02*
X5496134Y-12608984D01*
X5677087Y-12608984D02*
X5658039Y-12599460D01*
X5658039Y-12599460D02*
X5648515Y-12580412D01*
X5648515Y-12580412D02*
X5648515Y-12408984D01*
X5829468Y-12599460D02*
X5810420Y-12608984D01*
X5810420Y-12608984D02*
X5772325Y-12608984D01*
X5772325Y-12608984D02*
X5753277Y-12599460D01*
X5753277Y-12599460D02*
X5743753Y-12580412D01*
X5743753Y-12580412D02*
X5743753Y-12504222D01*
X5743753Y-12504222D02*
X5753277Y-12485174D01*
X5753277Y-12485174D02*
X5772325Y-12475650D01*
X5772325Y-12475650D02*
X5810420Y-12475650D01*
X5810420Y-12475650D02*
X5829468Y-12485174D01*
X5829468Y-12485174D02*
X5838991Y-12504222D01*
X5838991Y-12504222D02*
X5838991Y-12523269D01*
X5838991Y-12523269D02*
X5743753Y-12542317D01*
X5915182Y-12599460D02*
X5934230Y-12608984D01*
X5934230Y-12608984D02*
X5972325Y-12608984D01*
X5972325Y-12608984D02*
X5991372Y-12599460D01*
X5991372Y-12599460D02*
X6000896Y-12580412D01*
X6000896Y-12580412D02*
X6000896Y-12570888D01*
X6000896Y-12570888D02*
X5991372Y-12551841D01*
X5991372Y-12551841D02*
X5972325Y-12542317D01*
X5972325Y-12542317D02*
X5943753Y-12542317D01*
X5943753Y-12542317D02*
X5924706Y-12532793D01*
X5924706Y-12532793D02*
X5915182Y-12513746D01*
X5915182Y-12513746D02*
X5915182Y-12504222D01*
X5915182Y-12504222D02*
X5924706Y-12485174D01*
X5924706Y-12485174D02*
X5943753Y-12475650D01*
X5943753Y-12475650D02*
X5972325Y-12475650D01*
X5972325Y-12475650D02*
X5991372Y-12485174D01*
X6067563Y-12685174D02*
X6077087Y-12675650D01*
X6077087Y-12675650D02*
X6096134Y-12647079D01*
X6096134Y-12647079D02*
X6105658Y-12628031D01*
X6105658Y-12628031D02*
X6115182Y-12599460D01*
X6115182Y-12599460D02*
X6124706Y-12551841D01*
X6124706Y-12551841D02*
X6124706Y-12513746D01*
X6124706Y-12513746D02*
X6115182Y-12466127D01*
X6115182Y-12466127D02*
X6105658Y-12437555D01*
X6105658Y-12437555D02*
X6096134Y-12418508D01*
X6096134Y-12418508D02*
X6077087Y-12389936D01*
X6077087Y-12389936D02*
X6067563Y-12380412D01*
X6429468Y-12685174D02*
X6419944Y-12675650D01*
X6419944Y-12675650D02*
X6400896Y-12647079D01*
X6400896Y-12647079D02*
X6391372Y-12628031D01*
X6391372Y-12628031D02*
X6381849Y-12599460D01*
X6381849Y-12599460D02*
X6372325Y-12551841D01*
X6372325Y-12551841D02*
X6372325Y-12513746D01*
X6372325Y-12513746D02*
X6381849Y-12466127D01*
X6381849Y-12466127D02*
X6391372Y-12437555D01*
X6391372Y-12437555D02*
X6400896Y-12418508D01*
X6400896Y-12418508D02*
X6419944Y-12389936D01*
X6419944Y-12389936D02*
X6429468Y-12380412D01*
X6505658Y-12475650D02*
X6505658Y-12608984D01*
X6505658Y-12494698D02*
X6515182Y-12485174D01*
X6515182Y-12485174D02*
X6534230Y-12475650D01*
X6534230Y-12475650D02*
X6562801Y-12475650D01*
X6562801Y-12475650D02*
X6581849Y-12485174D01*
X6581849Y-12485174D02*
X6591372Y-12504222D01*
X6591372Y-12504222D02*
X6591372Y-12608984D01*
X6715182Y-12608984D02*
X6696134Y-12599460D01*
X6696134Y-12599460D02*
X6686611Y-12589936D01*
X6686611Y-12589936D02*
X6677087Y-12570888D01*
X6677087Y-12570888D02*
X6677087Y-12513746D01*
X6677087Y-12513746D02*
X6686611Y-12494698D01*
X6686611Y-12494698D02*
X6696134Y-12485174D01*
X6696134Y-12485174D02*
X6715182Y-12475650D01*
X6715182Y-12475650D02*
X6743753Y-12475650D01*
X6743753Y-12475650D02*
X6762801Y-12485174D01*
X6762801Y-12485174D02*
X6772325Y-12494698D01*
X6772325Y-12494698D02*
X6781849Y-12513746D01*
X6781849Y-12513746D02*
X6781849Y-12570888D01*
X6781849Y-12570888D02*
X6772325Y-12589936D01*
X6772325Y-12589936D02*
X6762801Y-12599460D01*
X6762801Y-12599460D02*
X6743753Y-12608984D01*
X6743753Y-12608984D02*
X6715182Y-12608984D01*
X6838992Y-12475650D02*
X6915182Y-12475650D01*
X6867563Y-12408984D02*
X6867563Y-12580412D01*
X6867563Y-12580412D02*
X6877087Y-12599460D01*
X6877087Y-12599460D02*
X6896134Y-12608984D01*
X6896134Y-12608984D02*
X6915182Y-12608984D01*
X7134230Y-12475650D02*
X7134230Y-12675650D01*
X7134230Y-12485174D02*
X7153277Y-12475650D01*
X7153277Y-12475650D02*
X7191373Y-12475650D01*
X7191373Y-12475650D02*
X7210420Y-12485174D01*
X7210420Y-12485174D02*
X7219944Y-12494698D01*
X7219944Y-12494698D02*
X7229468Y-12513746D01*
X7229468Y-12513746D02*
X7229468Y-12570888D01*
X7229468Y-12570888D02*
X7219944Y-12589936D01*
X7219944Y-12589936D02*
X7210420Y-12599460D01*
X7210420Y-12599460D02*
X7191373Y-12608984D01*
X7191373Y-12608984D02*
X7153277Y-12608984D01*
X7153277Y-12608984D02*
X7134230Y-12599460D01*
X7343753Y-12608984D02*
X7324706Y-12599460D01*
X7324706Y-12599460D02*
X7315182Y-12580412D01*
X7315182Y-12580412D02*
X7315182Y-12408984D01*
X7505658Y-12608984D02*
X7505658Y-12504222D01*
X7505658Y-12504222D02*
X7496134Y-12485174D01*
X7496134Y-12485174D02*
X7477087Y-12475650D01*
X7477087Y-12475650D02*
X7438992Y-12475650D01*
X7438992Y-12475650D02*
X7419944Y-12485174D01*
X7505658Y-12599460D02*
X7486611Y-12608984D01*
X7486611Y-12608984D02*
X7438992Y-12608984D01*
X7438992Y-12608984D02*
X7419944Y-12599460D01*
X7419944Y-12599460D02*
X7410420Y-12580412D01*
X7410420Y-12580412D02*
X7410420Y-12561365D01*
X7410420Y-12561365D02*
X7419944Y-12542317D01*
X7419944Y-12542317D02*
X7438992Y-12532793D01*
X7438992Y-12532793D02*
X7486611Y-12532793D01*
X7486611Y-12532793D02*
X7505658Y-12523269D01*
X7572325Y-12475650D02*
X7648515Y-12475650D01*
X7600896Y-12408984D02*
X7600896Y-12580412D01*
X7600896Y-12580412D02*
X7610420Y-12599460D01*
X7610420Y-12599460D02*
X7629468Y-12608984D01*
X7629468Y-12608984D02*
X7648515Y-12608984D01*
X7791373Y-12599460D02*
X7772325Y-12608984D01*
X7772325Y-12608984D02*
X7734230Y-12608984D01*
X7734230Y-12608984D02*
X7715182Y-12599460D01*
X7715182Y-12599460D02*
X7705658Y-12580412D01*
X7705658Y-12580412D02*
X7705658Y-12504222D01*
X7705658Y-12504222D02*
X7715182Y-12485174D01*
X7715182Y-12485174D02*
X7734230Y-12475650D01*
X7734230Y-12475650D02*
X7772325Y-12475650D01*
X7772325Y-12475650D02*
X7791373Y-12485174D01*
X7791373Y-12485174D02*
X7800896Y-12504222D01*
X7800896Y-12504222D02*
X7800896Y-12523269D01*
X7800896Y-12523269D02*
X7705658Y-12542317D01*
X7972325Y-12608984D02*
X7972325Y-12408984D01*
X7972325Y-12599460D02*
X7953277Y-12608984D01*
X7953277Y-12608984D02*
X7915182Y-12608984D01*
X7915182Y-12608984D02*
X7896134Y-12599460D01*
X7896134Y-12599460D02*
X7886611Y-12589936D01*
X7886611Y-12589936D02*
X7877087Y-12570888D01*
X7877087Y-12570888D02*
X7877087Y-12513746D01*
X7877087Y-12513746D02*
X7886611Y-12494698D01*
X7886611Y-12494698D02*
X7896134Y-12485174D01*
X7896134Y-12485174D02*
X7915182Y-12475650D01*
X7915182Y-12475650D02*
X7953277Y-12475650D01*
X7953277Y-12475650D02*
X7972325Y-12485174D01*
X8048515Y-12685174D02*
X8058039Y-12675650D01*
X8058039Y-12675650D02*
X8077087Y-12647079D01*
X8077087Y-12647079D02*
X8086611Y-12628031D01*
X8086611Y-12628031D02*
X8096134Y-12599460D01*
X8096134Y-12599460D02*
X8105658Y-12551841D01*
X8105658Y-12551841D02*
X8105658Y-12513746D01*
X8105658Y-12513746D02*
X8096134Y-12466127D01*
X8096134Y-12466127D02*
X8086611Y-12437555D01*
X8086611Y-12437555D02*
X8077087Y-12418508D01*
X8077087Y-12418508D02*
X8058039Y-12389936D01*
X8058039Y-12389936D02*
X8048515Y-12380412D01*
M02*
