%TF.GenerationSoftware,KiCad,Pcbnew,9.0.2*%
%TF.CreationDate,2025-05-25T15:49:36+02:00*%
%TF.ProjectId,kicad,6b696361-642e-46b6-9963-61645f706362,rev?*%
%TF.SameCoordinates,Original*%
%TF.FileFunction,Drillmap*%
%TF.FilePolarity,Positive*%
%FSLAX45Y45*%
G04 Gerber Fmt 4.5, Leading zero omitted, Abs format (unit mm)*
G04 Created by KiCad (PCBNEW 9.0.2) date 2025-05-25 15:49:36*
%MOMM*%
%LPD*%
G01*
G04 APERTURE LIST*
%ADD10C,0.150000*%
%ADD11C,0.200000*%
%ADD12C,0.100000*%
G04 APERTURE END LIST*
D10*
X11450000Y-1400000D02*
X11450000Y-11400000D01*
X11450000Y-11400000D02*
X1450000Y-11400000D01*
X1450000Y-11400000D02*
X1450000Y-1400000D01*
X1450000Y-1400000D02*
X11450000Y-1400000D01*
D11*
D12*
X2342500Y-5085000D02*
X2372500Y-5115000D01*
X2372500Y-5085000D02*
X2342500Y-5115000D01*
X2342500Y-6785000D02*
X2372500Y-6815000D01*
X2372500Y-6785000D02*
X2342500Y-6815000D01*
X2422500Y-5085000D02*
X2452500Y-5115000D01*
X2452500Y-5085000D02*
X2422500Y-5115000D01*
X2422500Y-6785000D02*
X2452500Y-6815000D01*
X2452500Y-6785000D02*
X2422500Y-6815000D01*
X2635000Y-5935000D02*
X2665000Y-5965000D01*
X2665000Y-5935000D02*
X2635000Y-5965000D01*
X2635000Y-8485000D02*
X2665000Y-8515000D01*
X2665000Y-8485000D02*
X2635000Y-8515000D01*
X4042500Y-3385000D02*
X4072500Y-3415000D01*
X4072500Y-3385000D02*
X4042500Y-3415000D01*
X4042500Y-5085000D02*
X4072500Y-5115000D01*
X4072500Y-5085000D02*
X4042500Y-5115000D01*
X4042500Y-6785000D02*
X4072500Y-6815000D01*
X4072500Y-6785000D02*
X4042500Y-6815000D01*
X4042500Y-8485000D02*
X4072500Y-8515000D01*
X4072500Y-8485000D02*
X4042500Y-8515000D01*
X4122500Y-3385000D02*
X4152500Y-3415000D01*
X4152500Y-3385000D02*
X4122500Y-3415000D01*
X4122500Y-5085000D02*
X4152500Y-5115000D01*
X4152500Y-5085000D02*
X4122500Y-5115000D01*
X4122500Y-6785000D02*
X4152500Y-6815000D01*
X4152500Y-6785000D02*
X4122500Y-6815000D01*
X4122500Y-8485000D02*
X4152500Y-8515000D01*
X4152500Y-8485000D02*
X4122500Y-8515000D01*
X4330000Y-4230000D02*
X4360000Y-4260000D01*
X4360000Y-4230000D02*
X4330000Y-4260000D01*
X4335000Y-5935000D02*
X4365000Y-5965000D01*
X4365000Y-5935000D02*
X4335000Y-5965000D01*
X4335000Y-7635000D02*
X4365000Y-7665000D01*
X4365000Y-7635000D02*
X4335000Y-7665000D01*
X4435000Y-9435000D02*
X4465000Y-9465000D01*
X4465000Y-9435000D02*
X4435000Y-9465000D01*
X5742500Y-2585000D02*
X5772500Y-2615000D01*
X5772500Y-2585000D02*
X5742500Y-2615000D01*
X5742500Y-4285000D02*
X5772500Y-4315000D01*
X5772500Y-4285000D02*
X5742500Y-4315000D01*
X5742500Y-5985000D02*
X5772500Y-6015000D01*
X5772500Y-5985000D02*
X5742500Y-6015000D01*
X5742500Y-7685000D02*
X5772500Y-7715000D01*
X5772500Y-7685000D02*
X5742500Y-7715000D01*
X5822500Y-2585000D02*
X5852500Y-2615000D01*
X5852500Y-2585000D02*
X5822500Y-2615000D01*
X5822500Y-4285000D02*
X5852500Y-4315000D01*
X5852500Y-4285000D02*
X5822500Y-4315000D01*
X5822500Y-5985000D02*
X5852500Y-6015000D01*
X5852500Y-5985000D02*
X5822500Y-6015000D01*
X5822500Y-7685000D02*
X5852500Y-7715000D01*
X5852500Y-7685000D02*
X5822500Y-7715000D01*
X6035000Y-3435000D02*
X6065000Y-3465000D01*
X6065000Y-3435000D02*
X6035000Y-3465000D01*
X6035000Y-5135000D02*
X6065000Y-5165000D01*
X6065000Y-5135000D02*
X6035000Y-5165000D01*
X6035000Y-6835000D02*
X6065000Y-6865000D01*
X6065000Y-6835000D02*
X6035000Y-6865000D01*
X6035000Y-8635000D02*
X6065000Y-8665000D01*
X6065000Y-8635000D02*
X6035000Y-8665000D01*
X7442500Y-2385000D02*
X7472500Y-2415000D01*
X7472500Y-2385000D02*
X7442500Y-2415000D01*
X7442500Y-4085000D02*
X7472500Y-4115000D01*
X7472500Y-4085000D02*
X7442500Y-4115000D01*
X7442500Y-5785000D02*
X7472500Y-5815000D01*
X7472500Y-5785000D02*
X7442500Y-5815000D01*
X7442500Y-7485000D02*
X7472500Y-7515000D01*
X7472500Y-7485000D02*
X7442500Y-7515000D01*
X7522500Y-2385000D02*
X7552500Y-2415000D01*
X7552500Y-2385000D02*
X7522500Y-2415000D01*
X7522500Y-4085000D02*
X7552500Y-4115000D01*
X7552500Y-4085000D02*
X7522500Y-4115000D01*
X7522500Y-5785000D02*
X7552500Y-5815000D01*
X7552500Y-5785000D02*
X7522500Y-5815000D01*
X7522500Y-7485000D02*
X7552500Y-7515000D01*
X7552500Y-7485000D02*
X7522500Y-7515000D01*
X7735000Y-3235000D02*
X7765000Y-3265000D01*
X7765000Y-3235000D02*
X7735000Y-3265000D01*
X7735000Y-4935000D02*
X7765000Y-4965000D01*
X7765000Y-4935000D02*
X7735000Y-4965000D01*
X7735000Y-6635000D02*
X7765000Y-6665000D01*
X7765000Y-6635000D02*
X7735000Y-6665000D01*
X7735000Y-8335000D02*
X7765000Y-8365000D01*
X7765000Y-8335000D02*
X7735000Y-8365000D01*
X9142500Y-3185000D02*
X9172500Y-3215000D01*
X9172500Y-3185000D02*
X9142500Y-3215000D01*
X9142500Y-4885000D02*
X9172500Y-4915000D01*
X9172500Y-4885000D02*
X9142500Y-4915000D01*
X9142500Y-6585000D02*
X9172500Y-6615000D01*
X9172500Y-6585000D02*
X9142500Y-6615000D01*
X9142500Y-8285000D02*
X9172500Y-8315000D01*
X9172500Y-8285000D02*
X9142500Y-8315000D01*
X9222500Y-3185000D02*
X9252500Y-3215000D01*
X9252500Y-3185000D02*
X9222500Y-3215000D01*
X9222500Y-4885000D02*
X9252500Y-4915000D01*
X9252500Y-4885000D02*
X9222500Y-4915000D01*
X9222500Y-6585000D02*
X9252500Y-6615000D01*
X9252500Y-6585000D02*
X9222500Y-6615000D01*
X9222500Y-8285000D02*
X9252500Y-8315000D01*
X9252500Y-8285000D02*
X9222500Y-8315000D01*
X9435000Y-4035000D02*
X9465000Y-4065000D01*
X9465000Y-4035000D02*
X9435000Y-4065000D01*
X9435000Y-5735000D02*
X9465000Y-5765000D01*
X9465000Y-5735000D02*
X9435000Y-5765000D01*
X9435000Y-7435000D02*
X9465000Y-7465000D01*
X9465000Y-7435000D02*
X9435000Y-7465000D01*
X9435000Y-9335000D02*
X9465000Y-9365000D01*
X9465000Y-9335000D02*
X9435000Y-9365000D01*
X10842500Y-3185000D02*
X10872500Y-3215000D01*
X10872500Y-3185000D02*
X10842500Y-3215000D01*
X10842500Y-4885000D02*
X10872500Y-4915000D01*
X10872500Y-4885000D02*
X10842500Y-4915000D01*
X10842500Y-6585000D02*
X10872500Y-6615000D01*
X10872500Y-6585000D02*
X10842500Y-6615000D01*
X10842500Y-8285000D02*
X10872500Y-8315000D01*
X10872500Y-8285000D02*
X10842500Y-8315000D01*
X10842500Y-10385000D02*
X10872500Y-10415000D01*
X10872500Y-10385000D02*
X10842500Y-10415000D01*
X10922500Y-3185000D02*
X10952500Y-3215000D01*
X10952500Y-3185000D02*
X10922500Y-3215000D01*
X10922500Y-4885000D02*
X10952500Y-4915000D01*
X10952500Y-4885000D02*
X10922500Y-4915000D01*
X10922500Y-6585000D02*
X10952500Y-6615000D01*
X10952500Y-6585000D02*
X10922500Y-6615000D01*
X10922500Y-8285000D02*
X10952500Y-8315000D01*
X10952500Y-8285000D02*
X10922500Y-8315000D01*
X10922500Y-10385000D02*
X10952500Y-10415000D01*
X10952500Y-10385000D02*
X10922500Y-10415000D01*
X11135000Y-4035000D02*
X11165000Y-4065000D01*
X11165000Y-4035000D02*
X11135000Y-4065000D01*
X11135000Y-5735000D02*
X11165000Y-5765000D01*
X11165000Y-5735000D02*
X11135000Y-5765000D01*
X11135000Y-7435000D02*
X11165000Y-7465000D01*
X11165000Y-7435000D02*
X11135000Y-7465000D01*
X11135000Y-9185000D02*
X11165000Y-9215000D01*
X11165000Y-9185000D02*
X11135000Y-9215000D01*
X2065000Y-5400000D02*
G75*
G02*
X2035000Y-5400000I-15000J0D01*
G01*
X2035000Y-5400000D02*
G75*
G02*
X2065000Y-5400000I15000J0D01*
G01*
X2065000Y-7100000D02*
G75*
G02*
X2035000Y-7100000I-15000J0D01*
G01*
X2035000Y-7100000D02*
G75*
G02*
X2065000Y-7100000I15000J0D01*
G01*
X2415000Y-5400000D02*
G75*
G02*
X2385000Y-5400000I-15000J0D01*
G01*
X2385000Y-5400000D02*
G75*
G02*
X2415000Y-5400000I15000J0D01*
G01*
X2415000Y-7100000D02*
G75*
G02*
X2385000Y-7100000I-15000J0D01*
G01*
X2385000Y-7100000D02*
G75*
G02*
X2415000Y-7100000I15000J0D01*
G01*
X3765000Y-3700000D02*
G75*
G02*
X3735000Y-3700000I-15000J0D01*
G01*
X3735000Y-3700000D02*
G75*
G02*
X3765000Y-3700000I15000J0D01*
G01*
X3765000Y-5400000D02*
G75*
G02*
X3735000Y-5400000I-15000J0D01*
G01*
X3735000Y-5400000D02*
G75*
G02*
X3765000Y-5400000I15000J0D01*
G01*
X3765000Y-7100000D02*
G75*
G02*
X3735000Y-7100000I-15000J0D01*
G01*
X3735000Y-7100000D02*
G75*
G02*
X3765000Y-7100000I15000J0D01*
G01*
X3765000Y-8800000D02*
G75*
G02*
X3735000Y-8800000I-15000J0D01*
G01*
X3735000Y-8800000D02*
G75*
G02*
X3765000Y-8800000I15000J0D01*
G01*
X4115000Y-3700000D02*
G75*
G02*
X4085000Y-3700000I-15000J0D01*
G01*
X4085000Y-3700000D02*
G75*
G02*
X4115000Y-3700000I15000J0D01*
G01*
X4115000Y-5400000D02*
G75*
G02*
X4085000Y-5400000I-15000J0D01*
G01*
X4085000Y-5400000D02*
G75*
G02*
X4115000Y-5400000I15000J0D01*
G01*
X4115000Y-7100000D02*
G75*
G02*
X4085000Y-7100000I-15000J0D01*
G01*
X4085000Y-7100000D02*
G75*
G02*
X4115000Y-7100000I15000J0D01*
G01*
X4115000Y-8800000D02*
G75*
G02*
X4085000Y-8800000I-15000J0D01*
G01*
X4085000Y-8800000D02*
G75*
G02*
X4115000Y-8800000I15000J0D01*
G01*
X5465000Y-2900000D02*
G75*
G02*
X5435000Y-2900000I-15000J0D01*
G01*
X5435000Y-2900000D02*
G75*
G02*
X5465000Y-2900000I15000J0D01*
G01*
X5465000Y-4600000D02*
G75*
G02*
X5435000Y-4600000I-15000J0D01*
G01*
X5435000Y-4600000D02*
G75*
G02*
X5465000Y-4600000I15000J0D01*
G01*
X5465000Y-6300000D02*
G75*
G02*
X5435000Y-6300000I-15000J0D01*
G01*
X5435000Y-6300000D02*
G75*
G02*
X5465000Y-6300000I15000J0D01*
G01*
X5465000Y-8000000D02*
G75*
G02*
X5435000Y-8000000I-15000J0D01*
G01*
X5435000Y-8000000D02*
G75*
G02*
X5465000Y-8000000I15000J0D01*
G01*
X5815000Y-2900000D02*
G75*
G02*
X5785000Y-2900000I-15000J0D01*
G01*
X5785000Y-2900000D02*
G75*
G02*
X5815000Y-2900000I15000J0D01*
G01*
X5815000Y-4600000D02*
G75*
G02*
X5785000Y-4600000I-15000J0D01*
G01*
X5785000Y-4600000D02*
G75*
G02*
X5815000Y-4600000I15000J0D01*
G01*
X5815000Y-6300000D02*
G75*
G02*
X5785000Y-6300000I-15000J0D01*
G01*
X5785000Y-6300000D02*
G75*
G02*
X5815000Y-6300000I15000J0D01*
G01*
X5815000Y-8000000D02*
G75*
G02*
X5785000Y-8000000I-15000J0D01*
G01*
X5785000Y-8000000D02*
G75*
G02*
X5815000Y-8000000I15000J0D01*
G01*
X7165000Y-2700000D02*
G75*
G02*
X7135000Y-2700000I-15000J0D01*
G01*
X7135000Y-2700000D02*
G75*
G02*
X7165000Y-2700000I15000J0D01*
G01*
X7165000Y-4400000D02*
G75*
G02*
X7135000Y-4400000I-15000J0D01*
G01*
X7135000Y-4400000D02*
G75*
G02*
X7165000Y-4400000I15000J0D01*
G01*
X7165000Y-6100000D02*
G75*
G02*
X7135000Y-6100000I-15000J0D01*
G01*
X7135000Y-6100000D02*
G75*
G02*
X7165000Y-6100000I15000J0D01*
G01*
X7165000Y-7800000D02*
G75*
G02*
X7135000Y-7800000I-15000J0D01*
G01*
X7135000Y-7800000D02*
G75*
G02*
X7165000Y-7800000I15000J0D01*
G01*
X7515000Y-2700000D02*
G75*
G02*
X7485000Y-2700000I-15000J0D01*
G01*
X7485000Y-2700000D02*
G75*
G02*
X7515000Y-2700000I15000J0D01*
G01*
X7515000Y-4400000D02*
G75*
G02*
X7485000Y-4400000I-15000J0D01*
G01*
X7485000Y-4400000D02*
G75*
G02*
X7515000Y-4400000I15000J0D01*
G01*
X7515000Y-6100000D02*
G75*
G02*
X7485000Y-6100000I-15000J0D01*
G01*
X7485000Y-6100000D02*
G75*
G02*
X7515000Y-6100000I15000J0D01*
G01*
X7515000Y-7800000D02*
G75*
G02*
X7485000Y-7800000I-15000J0D01*
G01*
X7485000Y-7800000D02*
G75*
G02*
X7515000Y-7800000I15000J0D01*
G01*
X8865000Y-3500000D02*
G75*
G02*
X8835000Y-3500000I-15000J0D01*
G01*
X8835000Y-3500000D02*
G75*
G02*
X8865000Y-3500000I15000J0D01*
G01*
X8865000Y-5200000D02*
G75*
G02*
X8835000Y-5200000I-15000J0D01*
G01*
X8835000Y-5200000D02*
G75*
G02*
X8865000Y-5200000I15000J0D01*
G01*
X8865000Y-6900000D02*
G75*
G02*
X8835000Y-6900000I-15000J0D01*
G01*
X8835000Y-6900000D02*
G75*
G02*
X8865000Y-6900000I15000J0D01*
G01*
X8865000Y-8600000D02*
G75*
G02*
X8835000Y-8600000I-15000J0D01*
G01*
X8835000Y-8600000D02*
G75*
G02*
X8865000Y-8600000I15000J0D01*
G01*
X9215000Y-3500000D02*
G75*
G02*
X9185000Y-3500000I-15000J0D01*
G01*
X9185000Y-3500000D02*
G75*
G02*
X9215000Y-3500000I15000J0D01*
G01*
X9215000Y-5200000D02*
G75*
G02*
X9185000Y-5200000I-15000J0D01*
G01*
X9185000Y-5200000D02*
G75*
G02*
X9215000Y-5200000I15000J0D01*
G01*
X9215000Y-6900000D02*
G75*
G02*
X9185000Y-6900000I-15000J0D01*
G01*
X9185000Y-6900000D02*
G75*
G02*
X9215000Y-6900000I15000J0D01*
G01*
X9215000Y-8600000D02*
G75*
G02*
X9185000Y-8600000I-15000J0D01*
G01*
X9185000Y-8600000D02*
G75*
G02*
X9215000Y-8600000I15000J0D01*
G01*
X10565000Y-3500000D02*
G75*
G02*
X10535000Y-3500000I-15000J0D01*
G01*
X10535000Y-3500000D02*
G75*
G02*
X10565000Y-3500000I15000J0D01*
G01*
X10565000Y-5200000D02*
G75*
G02*
X10535000Y-5200000I-15000J0D01*
G01*
X10535000Y-5200000D02*
G75*
G02*
X10565000Y-5200000I15000J0D01*
G01*
X10565000Y-6900000D02*
G75*
G02*
X10535000Y-6900000I-15000J0D01*
G01*
X10535000Y-6900000D02*
G75*
G02*
X10565000Y-6900000I15000J0D01*
G01*
X10565000Y-8600000D02*
G75*
G02*
X10535000Y-8600000I-15000J0D01*
G01*
X10535000Y-8600000D02*
G75*
G02*
X10565000Y-8600000I15000J0D01*
G01*
X10565000Y-10700000D02*
G75*
G02*
X10535000Y-10700000I-15000J0D01*
G01*
X10535000Y-10700000D02*
G75*
G02*
X10565000Y-10700000I15000J0D01*
G01*
X10915000Y-3500000D02*
G75*
G02*
X10885000Y-3500000I-15000J0D01*
G01*
X10885000Y-3500000D02*
G75*
G02*
X10915000Y-3500000I15000J0D01*
G01*
X10915000Y-5200000D02*
G75*
G02*
X10885000Y-5200000I-15000J0D01*
G01*
X10885000Y-5200000D02*
G75*
G02*
X10915000Y-5200000I15000J0D01*
G01*
X10915000Y-6900000D02*
G75*
G02*
X10885000Y-6900000I-15000J0D01*
G01*
X10885000Y-6900000D02*
G75*
G02*
X10915000Y-6900000I15000J0D01*
G01*
X10915000Y-8600000D02*
G75*
G02*
X10885000Y-8600000I-15000J0D01*
G01*
X10885000Y-8600000D02*
G75*
G02*
X10915000Y-8600000I15000J0D01*
G01*
X10915000Y-10700000D02*
G75*
G02*
X10885000Y-10700000I-15000J0D01*
G01*
X10885000Y-10700000D02*
G75*
G02*
X10915000Y-10700000I15000J0D01*
G01*
X4788000Y-9953800D02*
X4788000Y-9993800D01*
X4768000Y-9973800D02*
X4808000Y-9973800D01*
X4788000Y-10606200D02*
X4788000Y-10646200D01*
X4768000Y-10626200D02*
X4808000Y-10626200D01*
X5042000Y-9953800D02*
X5042000Y-9993800D01*
X5022000Y-9973800D02*
X5062000Y-9973800D01*
X5042000Y-10606200D02*
X5042000Y-10646200D01*
X5022000Y-10626200D02*
X5062000Y-10626200D01*
X5296000Y-9953800D02*
X5296000Y-9993800D01*
X5276000Y-9973800D02*
X5316000Y-9973800D01*
X5296000Y-10606200D02*
X5296000Y-10646200D01*
X5276000Y-10626200D02*
X5316000Y-10626200D01*
X1785023Y-4754023D02*
X1785023Y-4683977D01*
X1714977Y-4683977D01*
X1714977Y-4754023D01*
X1785023Y-4754023D01*
X1785023Y-5516023D02*
X1785023Y-5445977D01*
X1714977Y-5445977D01*
X1714977Y-5516023D01*
X1785023Y-5516023D01*
X1785023Y-6454023D02*
X1785023Y-6383977D01*
X1714977Y-6383977D01*
X1714977Y-6454023D01*
X1785023Y-6454023D01*
X1785023Y-7216023D02*
X1785023Y-7145977D01*
X1714977Y-7145977D01*
X1714977Y-7216023D01*
X1785023Y-7216023D01*
X3485023Y-3054023D02*
X3485023Y-2983977D01*
X3414977Y-2983977D01*
X3414977Y-3054023D01*
X3485023Y-3054023D01*
X3485023Y-3816023D02*
X3485023Y-3745977D01*
X3414977Y-3745977D01*
X3414977Y-3816023D01*
X3485023Y-3816023D01*
X3485023Y-4754023D02*
X3485023Y-4683977D01*
X3414977Y-4683977D01*
X3414977Y-4754023D01*
X3485023Y-4754023D01*
X3485023Y-5516023D02*
X3485023Y-5445977D01*
X3414977Y-5445977D01*
X3414977Y-5516023D01*
X3485023Y-5516023D01*
X3485023Y-6454023D02*
X3485023Y-6383977D01*
X3414977Y-6383977D01*
X3414977Y-6454023D01*
X3485023Y-6454023D01*
X3485023Y-7216023D02*
X3485023Y-7145977D01*
X3414977Y-7145977D01*
X3414977Y-7216023D01*
X3485023Y-7216023D01*
X3485023Y-8154023D02*
X3485023Y-8083977D01*
X3414977Y-8083977D01*
X3414977Y-8154023D01*
X3485023Y-8154023D01*
X3485023Y-8916023D02*
X3485023Y-8845977D01*
X3414977Y-8845977D01*
X3414977Y-8916023D01*
X3485023Y-8916023D01*
X5185023Y-2254023D02*
X5185023Y-2183977D01*
X5114977Y-2183977D01*
X5114977Y-2254023D01*
X5185023Y-2254023D01*
X5185023Y-3016023D02*
X5185023Y-2945977D01*
X5114977Y-2945977D01*
X5114977Y-3016023D01*
X5185023Y-3016023D01*
X5185023Y-3954023D02*
X5185023Y-3883977D01*
X5114977Y-3883977D01*
X5114977Y-3954023D01*
X5185023Y-3954023D01*
X5185023Y-4716023D02*
X5185023Y-4645977D01*
X5114977Y-4645977D01*
X5114977Y-4716023D01*
X5185023Y-4716023D01*
X5185023Y-5654023D02*
X5185023Y-5583977D01*
X5114977Y-5583977D01*
X5114977Y-5654023D01*
X5185023Y-5654023D01*
X5185023Y-6416023D02*
X5185023Y-6345977D01*
X5114977Y-6345977D01*
X5114977Y-6416023D01*
X5185023Y-6416023D01*
X5185023Y-7354023D02*
X5185023Y-7283977D01*
X5114977Y-7283977D01*
X5114977Y-7354023D01*
X5185023Y-7354023D01*
X5185023Y-8116023D02*
X5185023Y-8045977D01*
X5114977Y-8045977D01*
X5114977Y-8116023D01*
X5185023Y-8116023D01*
X6885023Y-2054023D02*
X6885023Y-1983977D01*
X6814977Y-1983977D01*
X6814977Y-2054023D01*
X6885023Y-2054023D01*
X6885023Y-2816023D02*
X6885023Y-2745977D01*
X6814977Y-2745977D01*
X6814977Y-2816023D01*
X6885023Y-2816023D01*
X6885023Y-3754023D02*
X6885023Y-3683977D01*
X6814977Y-3683977D01*
X6814977Y-3754023D01*
X6885023Y-3754023D01*
X6885023Y-4516023D02*
X6885023Y-4445977D01*
X6814977Y-4445977D01*
X6814977Y-4516023D01*
X6885023Y-4516023D01*
X6885023Y-5454023D02*
X6885023Y-5383977D01*
X6814977Y-5383977D01*
X6814977Y-5454023D01*
X6885023Y-5454023D01*
X6885023Y-6216023D02*
X6885023Y-6145977D01*
X6814977Y-6145977D01*
X6814977Y-6216023D01*
X6885023Y-6216023D01*
X6885023Y-7154023D02*
X6885023Y-7083977D01*
X6814977Y-7083977D01*
X6814977Y-7154023D01*
X6885023Y-7154023D01*
X6885023Y-7916023D02*
X6885023Y-7845977D01*
X6814977Y-7845977D01*
X6814977Y-7916023D01*
X6885023Y-7916023D01*
X8585023Y-2854023D02*
X8585023Y-2783977D01*
X8514977Y-2783977D01*
X8514977Y-2854023D01*
X8585023Y-2854023D01*
X8585023Y-3616023D02*
X8585023Y-3545977D01*
X8514977Y-3545977D01*
X8514977Y-3616023D01*
X8585023Y-3616023D01*
X8585023Y-4554023D02*
X8585023Y-4483977D01*
X8514977Y-4483977D01*
X8514977Y-4554023D01*
X8585023Y-4554023D01*
X8585023Y-5316023D02*
X8585023Y-5245977D01*
X8514977Y-5245977D01*
X8514977Y-5316023D01*
X8585023Y-5316023D01*
X8585023Y-6254023D02*
X8585023Y-6183977D01*
X8514977Y-6183977D01*
X8514977Y-6254023D01*
X8585023Y-6254023D01*
X8585023Y-7016023D02*
X8585023Y-6945977D01*
X8514977Y-6945977D01*
X8514977Y-7016023D01*
X8585023Y-7016023D01*
X8585023Y-7954023D02*
X8585023Y-7883977D01*
X8514977Y-7883977D01*
X8514977Y-7954023D01*
X8585023Y-7954023D01*
X8585023Y-8716023D02*
X8585023Y-8645977D01*
X8514977Y-8645977D01*
X8514977Y-8716023D01*
X8585023Y-8716023D01*
X10285023Y-2854023D02*
X10285023Y-2783977D01*
X10214977Y-2783977D01*
X10214977Y-2854023D01*
X10285023Y-2854023D01*
X10285023Y-3616023D02*
X10285023Y-3545977D01*
X10214977Y-3545977D01*
X10214977Y-3616023D01*
X10285023Y-3616023D01*
X10285023Y-4554023D02*
X10285023Y-4483977D01*
X10214977Y-4483977D01*
X10214977Y-4554023D01*
X10285023Y-4554023D01*
X10285023Y-5316023D02*
X10285023Y-5245977D01*
X10214977Y-5245977D01*
X10214977Y-5316023D01*
X10285023Y-5316023D01*
X10285023Y-6254023D02*
X10285023Y-6183977D01*
X10214977Y-6183977D01*
X10214977Y-6254023D01*
X10285023Y-6254023D01*
X10285023Y-7016023D02*
X10285023Y-6945977D01*
X10214977Y-6945977D01*
X10214977Y-7016023D01*
X10285023Y-7016023D01*
X10285023Y-7954023D02*
X10285023Y-7883977D01*
X10214977Y-7883977D01*
X10214977Y-7954023D01*
X10285023Y-7954023D01*
X10285023Y-8716023D02*
X10285023Y-8645977D01*
X10214977Y-8645977D01*
X10214977Y-8716023D01*
X10285023Y-8716023D01*
X10285023Y-10054023D02*
X10285023Y-9983977D01*
X10214977Y-9983977D01*
X10214977Y-10054023D01*
X10285023Y-10054023D01*
X10285023Y-10816023D02*
X10285023Y-10745977D01*
X10214977Y-10745977D01*
X10214977Y-10816023D01*
X10285023Y-10816023D01*
X4788000Y-9588000D02*
X4838000Y-9538000D01*
X4788000Y-9488000D01*
X4738000Y-9538000D01*
X4788000Y-9588000D01*
X4788000Y-11112000D02*
X4838000Y-11062000D01*
X4788000Y-11012000D01*
X4738000Y-11062000D01*
X4788000Y-11112000D01*
X5042000Y-9588000D02*
X5092000Y-9538000D01*
X5042000Y-9488000D01*
X4992000Y-9538000D01*
X5042000Y-9588000D01*
X5042000Y-11112000D02*
X5092000Y-11062000D01*
X5042000Y-11012000D01*
X4992000Y-11062000D01*
X5042000Y-11112000D01*
X5296000Y-9588000D02*
X5346000Y-9538000D01*
X5296000Y-9488000D01*
X5246000Y-9538000D01*
X5296000Y-9588000D01*
X5296000Y-11112000D02*
X5346000Y-11062000D01*
X5296000Y-11012000D01*
X5246000Y-11062000D01*
X5296000Y-11112000D01*
X5550000Y-9588000D02*
X5600000Y-9538000D01*
X5550000Y-9488000D01*
X5500000Y-9538000D01*
X5550000Y-9588000D01*
X5550000Y-11112000D02*
X5600000Y-11062000D01*
X5550000Y-11012000D01*
X5500000Y-11062000D01*
X5550000Y-11112000D01*
X5804000Y-9588000D02*
X5854000Y-9538000D01*
X5804000Y-9488000D01*
X5754000Y-9538000D01*
X5804000Y-9588000D01*
X5804000Y-11112000D02*
X5854000Y-11062000D01*
X5804000Y-11012000D01*
X5754000Y-11062000D01*
X5804000Y-11112000D01*
X6058000Y-9588000D02*
X6108000Y-9538000D01*
X6058000Y-9488000D01*
X6008000Y-9538000D01*
X6058000Y-9588000D01*
X6058000Y-11112000D02*
X6108000Y-11062000D01*
X6058000Y-11012000D01*
X6008000Y-11062000D01*
X6058000Y-11112000D01*
X6312000Y-9588000D02*
X6362000Y-9538000D01*
X6312000Y-9488000D01*
X6262000Y-9538000D01*
X6312000Y-9588000D01*
X6312000Y-11112000D02*
X6362000Y-11062000D01*
X6312000Y-11012000D01*
X6262000Y-11062000D01*
X6312000Y-11112000D01*
D11*
X1703277Y-11718984D02*
X1703277Y-11518984D01*
X1703277Y-11518984D02*
X1750896Y-11518984D01*
X1750896Y-11518984D02*
X1779467Y-11528508D01*
X1779467Y-11528508D02*
X1798515Y-11547555D01*
X1798515Y-11547555D02*
X1808039Y-11566603D01*
X1808039Y-11566603D02*
X1817562Y-11604698D01*
X1817562Y-11604698D02*
X1817562Y-11633269D01*
X1817562Y-11633269D02*
X1808039Y-11671365D01*
X1808039Y-11671365D02*
X1798515Y-11690412D01*
X1798515Y-11690412D02*
X1779467Y-11709460D01*
X1779467Y-11709460D02*
X1750896Y-11718984D01*
X1750896Y-11718984D02*
X1703277Y-11718984D01*
X1903277Y-11718984D02*
X1903277Y-11585650D01*
X1903277Y-11623746D02*
X1912801Y-11604698D01*
X1912801Y-11604698D02*
X1922324Y-11595174D01*
X1922324Y-11595174D02*
X1941372Y-11585650D01*
X1941372Y-11585650D02*
X1960420Y-11585650D01*
X2027086Y-11718984D02*
X2027086Y-11585650D01*
X2027086Y-11518984D02*
X2017562Y-11528508D01*
X2017562Y-11528508D02*
X2027086Y-11538031D01*
X2027086Y-11538031D02*
X2036610Y-11528508D01*
X2036610Y-11528508D02*
X2027086Y-11518984D01*
X2027086Y-11518984D02*
X2027086Y-11538031D01*
X2150896Y-11718984D02*
X2131848Y-11709460D01*
X2131848Y-11709460D02*
X2122324Y-11690412D01*
X2122324Y-11690412D02*
X2122324Y-11518984D01*
X2255658Y-11718984D02*
X2236610Y-11709460D01*
X2236610Y-11709460D02*
X2227086Y-11690412D01*
X2227086Y-11690412D02*
X2227086Y-11518984D01*
X2484229Y-11718984D02*
X2484229Y-11518984D01*
X2484229Y-11518984D02*
X2550896Y-11661841D01*
X2550896Y-11661841D02*
X2617563Y-11518984D01*
X2617563Y-11518984D02*
X2617563Y-11718984D01*
X2798515Y-11718984D02*
X2798515Y-11614222D01*
X2798515Y-11614222D02*
X2788991Y-11595174D01*
X2788991Y-11595174D02*
X2769944Y-11585650D01*
X2769944Y-11585650D02*
X2731848Y-11585650D01*
X2731848Y-11585650D02*
X2712801Y-11595174D01*
X2798515Y-11709460D02*
X2779467Y-11718984D01*
X2779467Y-11718984D02*
X2731848Y-11718984D01*
X2731848Y-11718984D02*
X2712801Y-11709460D01*
X2712801Y-11709460D02*
X2703277Y-11690412D01*
X2703277Y-11690412D02*
X2703277Y-11671365D01*
X2703277Y-11671365D02*
X2712801Y-11652317D01*
X2712801Y-11652317D02*
X2731848Y-11642793D01*
X2731848Y-11642793D02*
X2779467Y-11642793D01*
X2779467Y-11642793D02*
X2798515Y-11633269D01*
X2893753Y-11585650D02*
X2893753Y-11785650D01*
X2893753Y-11595174D02*
X2912801Y-11585650D01*
X2912801Y-11585650D02*
X2950896Y-11585650D01*
X2950896Y-11585650D02*
X2969943Y-11595174D01*
X2969943Y-11595174D02*
X2979467Y-11604698D01*
X2979467Y-11604698D02*
X2988991Y-11623746D01*
X2988991Y-11623746D02*
X2988991Y-11680888D01*
X2988991Y-11680888D02*
X2979467Y-11699936D01*
X2979467Y-11699936D02*
X2969943Y-11709460D01*
X2969943Y-11709460D02*
X2950896Y-11718984D01*
X2950896Y-11718984D02*
X2912801Y-11718984D01*
X2912801Y-11718984D02*
X2893753Y-11709460D01*
X3074705Y-11699936D02*
X3084229Y-11709460D01*
X3084229Y-11709460D02*
X3074705Y-11718984D01*
X3074705Y-11718984D02*
X3065182Y-11709460D01*
X3065182Y-11709460D02*
X3074705Y-11699936D01*
X3074705Y-11699936D02*
X3074705Y-11718984D01*
X3074705Y-11595174D02*
X3084229Y-11604698D01*
X3084229Y-11604698D02*
X3074705Y-11614222D01*
X3074705Y-11614222D02*
X3065182Y-11604698D01*
X3065182Y-11604698D02*
X3074705Y-11595174D01*
X3074705Y-11595174D02*
X3074705Y-11614222D01*
D12*
X1412500Y-12032500D02*
X1442500Y-12062500D01*
X1442500Y-12032500D02*
X1412500Y-12062500D01*
D11*
X1741372Y-11938984D02*
X1760420Y-11938984D01*
X1760420Y-11938984D02*
X1779467Y-11948508D01*
X1779467Y-11948508D02*
X1788991Y-11958031D01*
X1788991Y-11958031D02*
X1798515Y-11977079D01*
X1798515Y-11977079D02*
X1808039Y-12015174D01*
X1808039Y-12015174D02*
X1808039Y-12062793D01*
X1808039Y-12062793D02*
X1798515Y-12100888D01*
X1798515Y-12100888D02*
X1788991Y-12119936D01*
X1788991Y-12119936D02*
X1779467Y-12129460D01*
X1779467Y-12129460D02*
X1760420Y-12138984D01*
X1760420Y-12138984D02*
X1741372Y-12138984D01*
X1741372Y-12138984D02*
X1722324Y-12129460D01*
X1722324Y-12129460D02*
X1712801Y-12119936D01*
X1712801Y-12119936D02*
X1703277Y-12100888D01*
X1703277Y-12100888D02*
X1693753Y-12062793D01*
X1693753Y-12062793D02*
X1693753Y-12015174D01*
X1693753Y-12015174D02*
X1703277Y-11977079D01*
X1703277Y-11977079D02*
X1712801Y-11958031D01*
X1712801Y-11958031D02*
X1722324Y-11948508D01*
X1722324Y-11948508D02*
X1741372Y-11938984D01*
X1893753Y-12119936D02*
X1903277Y-12129460D01*
X1903277Y-12129460D02*
X1893753Y-12138984D01*
X1893753Y-12138984D02*
X1884229Y-12129460D01*
X1884229Y-12129460D02*
X1893753Y-12119936D01*
X1893753Y-12119936D02*
X1893753Y-12138984D01*
X1969943Y-11938984D02*
X2093753Y-11938984D01*
X2093753Y-11938984D02*
X2027086Y-12015174D01*
X2027086Y-12015174D02*
X2055658Y-12015174D01*
X2055658Y-12015174D02*
X2074705Y-12024698D01*
X2074705Y-12024698D02*
X2084229Y-12034222D01*
X2084229Y-12034222D02*
X2093753Y-12053269D01*
X2093753Y-12053269D02*
X2093753Y-12100888D01*
X2093753Y-12100888D02*
X2084229Y-12119936D01*
X2084229Y-12119936D02*
X2074705Y-12129460D01*
X2074705Y-12129460D02*
X2055658Y-12138984D01*
X2055658Y-12138984D02*
X1998515Y-12138984D01*
X1998515Y-12138984D02*
X1979467Y-12129460D01*
X1979467Y-12129460D02*
X1969943Y-12119936D01*
X2217563Y-11938984D02*
X2236610Y-11938984D01*
X2236610Y-11938984D02*
X2255658Y-11948508D01*
X2255658Y-11948508D02*
X2265182Y-11958031D01*
X2265182Y-11958031D02*
X2274705Y-11977079D01*
X2274705Y-11977079D02*
X2284229Y-12015174D01*
X2284229Y-12015174D02*
X2284229Y-12062793D01*
X2284229Y-12062793D02*
X2274705Y-12100888D01*
X2274705Y-12100888D02*
X2265182Y-12119936D01*
X2265182Y-12119936D02*
X2255658Y-12129460D01*
X2255658Y-12129460D02*
X2236610Y-12138984D01*
X2236610Y-12138984D02*
X2217563Y-12138984D01*
X2217563Y-12138984D02*
X2198515Y-12129460D01*
X2198515Y-12129460D02*
X2188991Y-12119936D01*
X2188991Y-12119936D02*
X2179467Y-12100888D01*
X2179467Y-12100888D02*
X2169944Y-12062793D01*
X2169944Y-12062793D02*
X2169944Y-12015174D01*
X2169944Y-12015174D02*
X2179467Y-11977079D01*
X2179467Y-11977079D02*
X2188991Y-11958031D01*
X2188991Y-11958031D02*
X2198515Y-11948508D01*
X2198515Y-11948508D02*
X2217563Y-11938984D01*
X2408039Y-11938984D02*
X2427086Y-11938984D01*
X2427086Y-11938984D02*
X2446134Y-11948508D01*
X2446134Y-11948508D02*
X2455658Y-11958031D01*
X2455658Y-11958031D02*
X2465182Y-11977079D01*
X2465182Y-11977079D02*
X2474705Y-12015174D01*
X2474705Y-12015174D02*
X2474705Y-12062793D01*
X2474705Y-12062793D02*
X2465182Y-12100888D01*
X2465182Y-12100888D02*
X2455658Y-12119936D01*
X2455658Y-12119936D02*
X2446134Y-12129460D01*
X2446134Y-12129460D02*
X2427086Y-12138984D01*
X2427086Y-12138984D02*
X2408039Y-12138984D01*
X2408039Y-12138984D02*
X2388991Y-12129460D01*
X2388991Y-12129460D02*
X2379467Y-12119936D01*
X2379467Y-12119936D02*
X2369944Y-12100888D01*
X2369944Y-12100888D02*
X2360420Y-12062793D01*
X2360420Y-12062793D02*
X2360420Y-12015174D01*
X2360420Y-12015174D02*
X2369944Y-11977079D01*
X2369944Y-11977079D02*
X2379467Y-11958031D01*
X2379467Y-11958031D02*
X2388991Y-11948508D01*
X2388991Y-11948508D02*
X2408039Y-11938984D01*
X2560420Y-12138984D02*
X2560420Y-12005650D01*
X2560420Y-12024698D02*
X2569944Y-12015174D01*
X2569944Y-12015174D02*
X2588991Y-12005650D01*
X2588991Y-12005650D02*
X2617563Y-12005650D01*
X2617563Y-12005650D02*
X2636610Y-12015174D01*
X2636610Y-12015174D02*
X2646134Y-12034222D01*
X2646134Y-12034222D02*
X2646134Y-12138984D01*
X2646134Y-12034222D02*
X2655658Y-12015174D01*
X2655658Y-12015174D02*
X2674705Y-12005650D01*
X2674705Y-12005650D02*
X2703277Y-12005650D01*
X2703277Y-12005650D02*
X2722325Y-12015174D01*
X2722325Y-12015174D02*
X2731848Y-12034222D01*
X2731848Y-12034222D02*
X2731848Y-12138984D01*
X2827086Y-12138984D02*
X2827086Y-12005650D01*
X2827086Y-12024698D02*
X2836610Y-12015174D01*
X2836610Y-12015174D02*
X2855658Y-12005650D01*
X2855658Y-12005650D02*
X2884229Y-12005650D01*
X2884229Y-12005650D02*
X2903277Y-12015174D01*
X2903277Y-12015174D02*
X2912801Y-12034222D01*
X2912801Y-12034222D02*
X2912801Y-12138984D01*
X2912801Y-12034222D02*
X2922324Y-12015174D01*
X2922324Y-12015174D02*
X2941372Y-12005650D01*
X2941372Y-12005650D02*
X2969943Y-12005650D01*
X2969943Y-12005650D02*
X2988991Y-12015174D01*
X2988991Y-12015174D02*
X2998515Y-12034222D01*
X2998515Y-12034222D02*
X2998515Y-12138984D01*
X3388991Y-11929460D02*
X3217563Y-12186603D01*
X3646134Y-11938984D02*
X3665182Y-11938984D01*
X3665182Y-11938984D02*
X3684229Y-11948508D01*
X3684229Y-11948508D02*
X3693753Y-11958031D01*
X3693753Y-11958031D02*
X3703277Y-11977079D01*
X3703277Y-11977079D02*
X3712801Y-12015174D01*
X3712801Y-12015174D02*
X3712801Y-12062793D01*
X3712801Y-12062793D02*
X3703277Y-12100888D01*
X3703277Y-12100888D02*
X3693753Y-12119936D01*
X3693753Y-12119936D02*
X3684229Y-12129460D01*
X3684229Y-12129460D02*
X3665182Y-12138984D01*
X3665182Y-12138984D02*
X3646134Y-12138984D01*
X3646134Y-12138984D02*
X3627086Y-12129460D01*
X3627086Y-12129460D02*
X3617563Y-12119936D01*
X3617563Y-12119936D02*
X3608039Y-12100888D01*
X3608039Y-12100888D02*
X3598515Y-12062793D01*
X3598515Y-12062793D02*
X3598515Y-12015174D01*
X3598515Y-12015174D02*
X3608039Y-11977079D01*
X3608039Y-11977079D02*
X3617563Y-11958031D01*
X3617563Y-11958031D02*
X3627086Y-11948508D01*
X3627086Y-11948508D02*
X3646134Y-11938984D01*
X3798515Y-12119936D02*
X3808039Y-12129460D01*
X3808039Y-12129460D02*
X3798515Y-12138984D01*
X3798515Y-12138984D02*
X3788991Y-12129460D01*
X3788991Y-12129460D02*
X3798515Y-12119936D01*
X3798515Y-12119936D02*
X3798515Y-12138984D01*
X3931848Y-11938984D02*
X3950896Y-11938984D01*
X3950896Y-11938984D02*
X3969944Y-11948508D01*
X3969944Y-11948508D02*
X3979467Y-11958031D01*
X3979467Y-11958031D02*
X3988991Y-11977079D01*
X3988991Y-11977079D02*
X3998515Y-12015174D01*
X3998515Y-12015174D02*
X3998515Y-12062793D01*
X3998515Y-12062793D02*
X3988991Y-12100888D01*
X3988991Y-12100888D02*
X3979467Y-12119936D01*
X3979467Y-12119936D02*
X3969944Y-12129460D01*
X3969944Y-12129460D02*
X3950896Y-12138984D01*
X3950896Y-12138984D02*
X3931848Y-12138984D01*
X3931848Y-12138984D02*
X3912801Y-12129460D01*
X3912801Y-12129460D02*
X3903277Y-12119936D01*
X3903277Y-12119936D02*
X3893753Y-12100888D01*
X3893753Y-12100888D02*
X3884229Y-12062793D01*
X3884229Y-12062793D02*
X3884229Y-12015174D01*
X3884229Y-12015174D02*
X3893753Y-11977079D01*
X3893753Y-11977079D02*
X3903277Y-11958031D01*
X3903277Y-11958031D02*
X3912801Y-11948508D01*
X3912801Y-11948508D02*
X3931848Y-11938984D01*
X4188991Y-12138984D02*
X4074706Y-12138984D01*
X4131848Y-12138984D02*
X4131848Y-11938984D01*
X4131848Y-11938984D02*
X4112801Y-11967555D01*
X4112801Y-11967555D02*
X4093753Y-11986603D01*
X4093753Y-11986603D02*
X4074706Y-11996127D01*
X4379468Y-12138984D02*
X4265182Y-12138984D01*
X4322325Y-12138984D02*
X4322325Y-11938984D01*
X4322325Y-11938984D02*
X4303277Y-11967555D01*
X4303277Y-11967555D02*
X4284229Y-11986603D01*
X4284229Y-11986603D02*
X4265182Y-11996127D01*
X4493753Y-12024698D02*
X4474706Y-12015174D01*
X4474706Y-12015174D02*
X4465182Y-12005650D01*
X4465182Y-12005650D02*
X4455658Y-11986603D01*
X4455658Y-11986603D02*
X4455658Y-11977079D01*
X4455658Y-11977079D02*
X4465182Y-11958031D01*
X4465182Y-11958031D02*
X4474706Y-11948508D01*
X4474706Y-11948508D02*
X4493753Y-11938984D01*
X4493753Y-11938984D02*
X4531849Y-11938984D01*
X4531849Y-11938984D02*
X4550896Y-11948508D01*
X4550896Y-11948508D02*
X4560420Y-11958031D01*
X4560420Y-11958031D02*
X4569944Y-11977079D01*
X4569944Y-11977079D02*
X4569944Y-11986603D01*
X4569944Y-11986603D02*
X4560420Y-12005650D01*
X4560420Y-12005650D02*
X4550896Y-12015174D01*
X4550896Y-12015174D02*
X4531849Y-12024698D01*
X4531849Y-12024698D02*
X4493753Y-12024698D01*
X4493753Y-12024698D02*
X4474706Y-12034222D01*
X4474706Y-12034222D02*
X4465182Y-12043746D01*
X4465182Y-12043746D02*
X4455658Y-12062793D01*
X4455658Y-12062793D02*
X4455658Y-12100888D01*
X4455658Y-12100888D02*
X4465182Y-12119936D01*
X4465182Y-12119936D02*
X4474706Y-12129460D01*
X4474706Y-12129460D02*
X4493753Y-12138984D01*
X4493753Y-12138984D02*
X4531849Y-12138984D01*
X4531849Y-12138984D02*
X4550896Y-12129460D01*
X4550896Y-12129460D02*
X4560420Y-12119936D01*
X4560420Y-12119936D02*
X4569944Y-12100888D01*
X4569944Y-12100888D02*
X4569944Y-12062793D01*
X4569944Y-12062793D02*
X4560420Y-12043746D01*
X4560420Y-12043746D02*
X4550896Y-12034222D01*
X4550896Y-12034222D02*
X4531849Y-12024698D01*
X4646134Y-11938984D02*
X4646134Y-11977079D01*
X4722325Y-11938984D02*
X4722325Y-11977079D01*
X5017563Y-12215174D02*
X5008039Y-12205650D01*
X5008039Y-12205650D02*
X4988991Y-12177079D01*
X4988991Y-12177079D02*
X4979468Y-12158031D01*
X4979468Y-12158031D02*
X4969944Y-12129460D01*
X4969944Y-12129460D02*
X4960420Y-12081841D01*
X4960420Y-12081841D02*
X4960420Y-12043746D01*
X4960420Y-12043746D02*
X4969944Y-11996127D01*
X4969944Y-11996127D02*
X4979468Y-11967555D01*
X4979468Y-11967555D02*
X4988991Y-11948508D01*
X4988991Y-11948508D02*
X5008039Y-11919936D01*
X5008039Y-11919936D02*
X5017563Y-11910412D01*
X5179468Y-11938984D02*
X5141372Y-11938984D01*
X5141372Y-11938984D02*
X5122325Y-11948508D01*
X5122325Y-11948508D02*
X5112801Y-11958031D01*
X5112801Y-11958031D02*
X5093753Y-11986603D01*
X5093753Y-11986603D02*
X5084230Y-12024698D01*
X5084230Y-12024698D02*
X5084230Y-12100888D01*
X5084230Y-12100888D02*
X5093753Y-12119936D01*
X5093753Y-12119936D02*
X5103277Y-12129460D01*
X5103277Y-12129460D02*
X5122325Y-12138984D01*
X5122325Y-12138984D02*
X5160420Y-12138984D01*
X5160420Y-12138984D02*
X5179468Y-12129460D01*
X5179468Y-12129460D02*
X5188991Y-12119936D01*
X5188991Y-12119936D02*
X5198515Y-12100888D01*
X5198515Y-12100888D02*
X5198515Y-12053269D01*
X5198515Y-12053269D02*
X5188991Y-12034222D01*
X5188991Y-12034222D02*
X5179468Y-12024698D01*
X5179468Y-12024698D02*
X5160420Y-12015174D01*
X5160420Y-12015174D02*
X5122325Y-12015174D01*
X5122325Y-12015174D02*
X5103277Y-12024698D01*
X5103277Y-12024698D02*
X5093753Y-12034222D01*
X5093753Y-12034222D02*
X5084230Y-12053269D01*
X5312801Y-12024698D02*
X5293753Y-12015174D01*
X5293753Y-12015174D02*
X5284230Y-12005650D01*
X5284230Y-12005650D02*
X5274706Y-11986603D01*
X5274706Y-11986603D02*
X5274706Y-11977079D01*
X5274706Y-11977079D02*
X5284230Y-11958031D01*
X5284230Y-11958031D02*
X5293753Y-11948508D01*
X5293753Y-11948508D02*
X5312801Y-11938984D01*
X5312801Y-11938984D02*
X5350896Y-11938984D01*
X5350896Y-11938984D02*
X5369944Y-11948508D01*
X5369944Y-11948508D02*
X5379468Y-11958031D01*
X5379468Y-11958031D02*
X5388991Y-11977079D01*
X5388991Y-11977079D02*
X5388991Y-11986603D01*
X5388991Y-11986603D02*
X5379468Y-12005650D01*
X5379468Y-12005650D02*
X5369944Y-12015174D01*
X5369944Y-12015174D02*
X5350896Y-12024698D01*
X5350896Y-12024698D02*
X5312801Y-12024698D01*
X5312801Y-12024698D02*
X5293753Y-12034222D01*
X5293753Y-12034222D02*
X5284230Y-12043746D01*
X5284230Y-12043746D02*
X5274706Y-12062793D01*
X5274706Y-12062793D02*
X5274706Y-12100888D01*
X5274706Y-12100888D02*
X5284230Y-12119936D01*
X5284230Y-12119936D02*
X5293753Y-12129460D01*
X5293753Y-12129460D02*
X5312801Y-12138984D01*
X5312801Y-12138984D02*
X5350896Y-12138984D01*
X5350896Y-12138984D02*
X5369944Y-12129460D01*
X5369944Y-12129460D02*
X5379468Y-12119936D01*
X5379468Y-12119936D02*
X5388991Y-12100888D01*
X5388991Y-12100888D02*
X5388991Y-12062793D01*
X5388991Y-12062793D02*
X5379468Y-12043746D01*
X5379468Y-12043746D02*
X5369944Y-12034222D01*
X5369944Y-12034222D02*
X5350896Y-12024698D01*
X5627087Y-12138984D02*
X5627087Y-11938984D01*
X5712801Y-12138984D02*
X5712801Y-12034222D01*
X5712801Y-12034222D02*
X5703277Y-12015174D01*
X5703277Y-12015174D02*
X5684230Y-12005650D01*
X5684230Y-12005650D02*
X5655658Y-12005650D01*
X5655658Y-12005650D02*
X5636610Y-12015174D01*
X5636610Y-12015174D02*
X5627087Y-12024698D01*
X5836610Y-12138984D02*
X5817563Y-12129460D01*
X5817563Y-12129460D02*
X5808039Y-12119936D01*
X5808039Y-12119936D02*
X5798515Y-12100888D01*
X5798515Y-12100888D02*
X5798515Y-12043746D01*
X5798515Y-12043746D02*
X5808039Y-12024698D01*
X5808039Y-12024698D02*
X5817563Y-12015174D01*
X5817563Y-12015174D02*
X5836610Y-12005650D01*
X5836610Y-12005650D02*
X5865182Y-12005650D01*
X5865182Y-12005650D02*
X5884230Y-12015174D01*
X5884230Y-12015174D02*
X5893753Y-12024698D01*
X5893753Y-12024698D02*
X5903277Y-12043746D01*
X5903277Y-12043746D02*
X5903277Y-12100888D01*
X5903277Y-12100888D02*
X5893753Y-12119936D01*
X5893753Y-12119936D02*
X5884230Y-12129460D01*
X5884230Y-12129460D02*
X5865182Y-12138984D01*
X5865182Y-12138984D02*
X5836610Y-12138984D01*
X6017563Y-12138984D02*
X5998515Y-12129460D01*
X5998515Y-12129460D02*
X5988991Y-12110412D01*
X5988991Y-12110412D02*
X5988991Y-11938984D01*
X6169944Y-12129460D02*
X6150896Y-12138984D01*
X6150896Y-12138984D02*
X6112801Y-12138984D01*
X6112801Y-12138984D02*
X6093753Y-12129460D01*
X6093753Y-12129460D02*
X6084230Y-12110412D01*
X6084230Y-12110412D02*
X6084230Y-12034222D01*
X6084230Y-12034222D02*
X6093753Y-12015174D01*
X6093753Y-12015174D02*
X6112801Y-12005650D01*
X6112801Y-12005650D02*
X6150896Y-12005650D01*
X6150896Y-12005650D02*
X6169944Y-12015174D01*
X6169944Y-12015174D02*
X6179468Y-12034222D01*
X6179468Y-12034222D02*
X6179468Y-12053269D01*
X6179468Y-12053269D02*
X6084230Y-12072317D01*
X6255658Y-12129460D02*
X6274706Y-12138984D01*
X6274706Y-12138984D02*
X6312801Y-12138984D01*
X6312801Y-12138984D02*
X6331849Y-12129460D01*
X6331849Y-12129460D02*
X6341372Y-12110412D01*
X6341372Y-12110412D02*
X6341372Y-12100888D01*
X6341372Y-12100888D02*
X6331849Y-12081841D01*
X6331849Y-12081841D02*
X6312801Y-12072317D01*
X6312801Y-12072317D02*
X6284230Y-12072317D01*
X6284230Y-12072317D02*
X6265182Y-12062793D01*
X6265182Y-12062793D02*
X6255658Y-12043746D01*
X6255658Y-12043746D02*
X6255658Y-12034222D01*
X6255658Y-12034222D02*
X6265182Y-12015174D01*
X6265182Y-12015174D02*
X6284230Y-12005650D01*
X6284230Y-12005650D02*
X6312801Y-12005650D01*
X6312801Y-12005650D02*
X6331849Y-12015174D01*
X6408039Y-12215174D02*
X6417563Y-12205650D01*
X6417563Y-12205650D02*
X6436611Y-12177079D01*
X6436611Y-12177079D02*
X6446134Y-12158031D01*
X6446134Y-12158031D02*
X6455658Y-12129460D01*
X6455658Y-12129460D02*
X6465182Y-12081841D01*
X6465182Y-12081841D02*
X6465182Y-12043746D01*
X6465182Y-12043746D02*
X6455658Y-11996127D01*
X6455658Y-11996127D02*
X6446134Y-11967555D01*
X6446134Y-11967555D02*
X6436611Y-11948508D01*
X6436611Y-11948508D02*
X6417563Y-11919936D01*
X6417563Y-11919936D02*
X6408039Y-11910412D01*
D12*
X1442500Y-12311500D02*
G75*
G02*
X1412500Y-12311500I-15000J0D01*
G01*
X1412500Y-12311500D02*
G75*
G02*
X1442500Y-12311500I15000J0D01*
G01*
D11*
X1741372Y-12202984D02*
X1760420Y-12202984D01*
X1760420Y-12202984D02*
X1779467Y-12212508D01*
X1779467Y-12212508D02*
X1788991Y-12222031D01*
X1788991Y-12222031D02*
X1798515Y-12241079D01*
X1798515Y-12241079D02*
X1808039Y-12279174D01*
X1808039Y-12279174D02*
X1808039Y-12326793D01*
X1808039Y-12326793D02*
X1798515Y-12364888D01*
X1798515Y-12364888D02*
X1788991Y-12383936D01*
X1788991Y-12383936D02*
X1779467Y-12393460D01*
X1779467Y-12393460D02*
X1760420Y-12402984D01*
X1760420Y-12402984D02*
X1741372Y-12402984D01*
X1741372Y-12402984D02*
X1722324Y-12393460D01*
X1722324Y-12393460D02*
X1712801Y-12383936D01*
X1712801Y-12383936D02*
X1703277Y-12364888D01*
X1703277Y-12364888D02*
X1693753Y-12326793D01*
X1693753Y-12326793D02*
X1693753Y-12279174D01*
X1693753Y-12279174D02*
X1703277Y-12241079D01*
X1703277Y-12241079D02*
X1712801Y-12222031D01*
X1712801Y-12222031D02*
X1722324Y-12212508D01*
X1722324Y-12212508D02*
X1741372Y-12202984D01*
X1893753Y-12383936D02*
X1903277Y-12393460D01*
X1903277Y-12393460D02*
X1893753Y-12402984D01*
X1893753Y-12402984D02*
X1884229Y-12393460D01*
X1884229Y-12393460D02*
X1893753Y-12383936D01*
X1893753Y-12383936D02*
X1893753Y-12402984D01*
X1969943Y-12202984D02*
X2093753Y-12202984D01*
X2093753Y-12202984D02*
X2027086Y-12279174D01*
X2027086Y-12279174D02*
X2055658Y-12279174D01*
X2055658Y-12279174D02*
X2074705Y-12288698D01*
X2074705Y-12288698D02*
X2084229Y-12298222D01*
X2084229Y-12298222D02*
X2093753Y-12317269D01*
X2093753Y-12317269D02*
X2093753Y-12364888D01*
X2093753Y-12364888D02*
X2084229Y-12383936D01*
X2084229Y-12383936D02*
X2074705Y-12393460D01*
X2074705Y-12393460D02*
X2055658Y-12402984D01*
X2055658Y-12402984D02*
X1998515Y-12402984D01*
X1998515Y-12402984D02*
X1979467Y-12393460D01*
X1979467Y-12393460D02*
X1969943Y-12383936D01*
X2217563Y-12202984D02*
X2236610Y-12202984D01*
X2236610Y-12202984D02*
X2255658Y-12212508D01*
X2255658Y-12212508D02*
X2265182Y-12222031D01*
X2265182Y-12222031D02*
X2274705Y-12241079D01*
X2274705Y-12241079D02*
X2284229Y-12279174D01*
X2284229Y-12279174D02*
X2284229Y-12326793D01*
X2284229Y-12326793D02*
X2274705Y-12364888D01*
X2274705Y-12364888D02*
X2265182Y-12383936D01*
X2265182Y-12383936D02*
X2255658Y-12393460D01*
X2255658Y-12393460D02*
X2236610Y-12402984D01*
X2236610Y-12402984D02*
X2217563Y-12402984D01*
X2217563Y-12402984D02*
X2198515Y-12393460D01*
X2198515Y-12393460D02*
X2188991Y-12383936D01*
X2188991Y-12383936D02*
X2179467Y-12364888D01*
X2179467Y-12364888D02*
X2169944Y-12326793D01*
X2169944Y-12326793D02*
X2169944Y-12279174D01*
X2169944Y-12279174D02*
X2179467Y-12241079D01*
X2179467Y-12241079D02*
X2188991Y-12222031D01*
X2188991Y-12222031D02*
X2198515Y-12212508D01*
X2198515Y-12212508D02*
X2217563Y-12202984D01*
X2408039Y-12202984D02*
X2427086Y-12202984D01*
X2427086Y-12202984D02*
X2446134Y-12212508D01*
X2446134Y-12212508D02*
X2455658Y-12222031D01*
X2455658Y-12222031D02*
X2465182Y-12241079D01*
X2465182Y-12241079D02*
X2474705Y-12279174D01*
X2474705Y-12279174D02*
X2474705Y-12326793D01*
X2474705Y-12326793D02*
X2465182Y-12364888D01*
X2465182Y-12364888D02*
X2455658Y-12383936D01*
X2455658Y-12383936D02*
X2446134Y-12393460D01*
X2446134Y-12393460D02*
X2427086Y-12402984D01*
X2427086Y-12402984D02*
X2408039Y-12402984D01*
X2408039Y-12402984D02*
X2388991Y-12393460D01*
X2388991Y-12393460D02*
X2379467Y-12383936D01*
X2379467Y-12383936D02*
X2369944Y-12364888D01*
X2369944Y-12364888D02*
X2360420Y-12326793D01*
X2360420Y-12326793D02*
X2360420Y-12279174D01*
X2360420Y-12279174D02*
X2369944Y-12241079D01*
X2369944Y-12241079D02*
X2379467Y-12222031D01*
X2379467Y-12222031D02*
X2388991Y-12212508D01*
X2388991Y-12212508D02*
X2408039Y-12202984D01*
X2560420Y-12402984D02*
X2560420Y-12269650D01*
X2560420Y-12288698D02*
X2569944Y-12279174D01*
X2569944Y-12279174D02*
X2588991Y-12269650D01*
X2588991Y-12269650D02*
X2617563Y-12269650D01*
X2617563Y-12269650D02*
X2636610Y-12279174D01*
X2636610Y-12279174D02*
X2646134Y-12298222D01*
X2646134Y-12298222D02*
X2646134Y-12402984D01*
X2646134Y-12298222D02*
X2655658Y-12279174D01*
X2655658Y-12279174D02*
X2674705Y-12269650D01*
X2674705Y-12269650D02*
X2703277Y-12269650D01*
X2703277Y-12269650D02*
X2722325Y-12279174D01*
X2722325Y-12279174D02*
X2731848Y-12298222D01*
X2731848Y-12298222D02*
X2731848Y-12402984D01*
X2827086Y-12402984D02*
X2827086Y-12269650D01*
X2827086Y-12288698D02*
X2836610Y-12279174D01*
X2836610Y-12279174D02*
X2855658Y-12269650D01*
X2855658Y-12269650D02*
X2884229Y-12269650D01*
X2884229Y-12269650D02*
X2903277Y-12279174D01*
X2903277Y-12279174D02*
X2912801Y-12298222D01*
X2912801Y-12298222D02*
X2912801Y-12402984D01*
X2912801Y-12298222D02*
X2922324Y-12279174D01*
X2922324Y-12279174D02*
X2941372Y-12269650D01*
X2941372Y-12269650D02*
X2969943Y-12269650D01*
X2969943Y-12269650D02*
X2988991Y-12279174D01*
X2988991Y-12279174D02*
X2998515Y-12298222D01*
X2998515Y-12298222D02*
X2998515Y-12402984D01*
X3388991Y-12193460D02*
X3217563Y-12450603D01*
X3646134Y-12202984D02*
X3665182Y-12202984D01*
X3665182Y-12202984D02*
X3684229Y-12212508D01*
X3684229Y-12212508D02*
X3693753Y-12222031D01*
X3693753Y-12222031D02*
X3703277Y-12241079D01*
X3703277Y-12241079D02*
X3712801Y-12279174D01*
X3712801Y-12279174D02*
X3712801Y-12326793D01*
X3712801Y-12326793D02*
X3703277Y-12364888D01*
X3703277Y-12364888D02*
X3693753Y-12383936D01*
X3693753Y-12383936D02*
X3684229Y-12393460D01*
X3684229Y-12393460D02*
X3665182Y-12402984D01*
X3665182Y-12402984D02*
X3646134Y-12402984D01*
X3646134Y-12402984D02*
X3627086Y-12393460D01*
X3627086Y-12393460D02*
X3617563Y-12383936D01*
X3617563Y-12383936D02*
X3608039Y-12364888D01*
X3608039Y-12364888D02*
X3598515Y-12326793D01*
X3598515Y-12326793D02*
X3598515Y-12279174D01*
X3598515Y-12279174D02*
X3608039Y-12241079D01*
X3608039Y-12241079D02*
X3617563Y-12222031D01*
X3617563Y-12222031D02*
X3627086Y-12212508D01*
X3627086Y-12212508D02*
X3646134Y-12202984D01*
X3798515Y-12383936D02*
X3808039Y-12393460D01*
X3808039Y-12393460D02*
X3798515Y-12402984D01*
X3798515Y-12402984D02*
X3788991Y-12393460D01*
X3788991Y-12393460D02*
X3798515Y-12383936D01*
X3798515Y-12383936D02*
X3798515Y-12402984D01*
X3931848Y-12202984D02*
X3950896Y-12202984D01*
X3950896Y-12202984D02*
X3969944Y-12212508D01*
X3969944Y-12212508D02*
X3979467Y-12222031D01*
X3979467Y-12222031D02*
X3988991Y-12241079D01*
X3988991Y-12241079D02*
X3998515Y-12279174D01*
X3998515Y-12279174D02*
X3998515Y-12326793D01*
X3998515Y-12326793D02*
X3988991Y-12364888D01*
X3988991Y-12364888D02*
X3979467Y-12383936D01*
X3979467Y-12383936D02*
X3969944Y-12393460D01*
X3969944Y-12393460D02*
X3950896Y-12402984D01*
X3950896Y-12402984D02*
X3931848Y-12402984D01*
X3931848Y-12402984D02*
X3912801Y-12393460D01*
X3912801Y-12393460D02*
X3903277Y-12383936D01*
X3903277Y-12383936D02*
X3893753Y-12364888D01*
X3893753Y-12364888D02*
X3884229Y-12326793D01*
X3884229Y-12326793D02*
X3884229Y-12279174D01*
X3884229Y-12279174D02*
X3893753Y-12241079D01*
X3893753Y-12241079D02*
X3903277Y-12222031D01*
X3903277Y-12222031D02*
X3912801Y-12212508D01*
X3912801Y-12212508D02*
X3931848Y-12202984D01*
X4188991Y-12402984D02*
X4074706Y-12402984D01*
X4131848Y-12402984D02*
X4131848Y-12202984D01*
X4131848Y-12202984D02*
X4112801Y-12231555D01*
X4112801Y-12231555D02*
X4093753Y-12250603D01*
X4093753Y-12250603D02*
X4074706Y-12260127D01*
X4379468Y-12402984D02*
X4265182Y-12402984D01*
X4322325Y-12402984D02*
X4322325Y-12202984D01*
X4322325Y-12202984D02*
X4303277Y-12231555D01*
X4303277Y-12231555D02*
X4284229Y-12250603D01*
X4284229Y-12250603D02*
X4265182Y-12260127D01*
X4493753Y-12288698D02*
X4474706Y-12279174D01*
X4474706Y-12279174D02*
X4465182Y-12269650D01*
X4465182Y-12269650D02*
X4455658Y-12250603D01*
X4455658Y-12250603D02*
X4455658Y-12241079D01*
X4455658Y-12241079D02*
X4465182Y-12222031D01*
X4465182Y-12222031D02*
X4474706Y-12212508D01*
X4474706Y-12212508D02*
X4493753Y-12202984D01*
X4493753Y-12202984D02*
X4531849Y-12202984D01*
X4531849Y-12202984D02*
X4550896Y-12212508D01*
X4550896Y-12212508D02*
X4560420Y-12222031D01*
X4560420Y-12222031D02*
X4569944Y-12241079D01*
X4569944Y-12241079D02*
X4569944Y-12250603D01*
X4569944Y-12250603D02*
X4560420Y-12269650D01*
X4560420Y-12269650D02*
X4550896Y-12279174D01*
X4550896Y-12279174D02*
X4531849Y-12288698D01*
X4531849Y-12288698D02*
X4493753Y-12288698D01*
X4493753Y-12288698D02*
X4474706Y-12298222D01*
X4474706Y-12298222D02*
X4465182Y-12307746D01*
X4465182Y-12307746D02*
X4455658Y-12326793D01*
X4455658Y-12326793D02*
X4455658Y-12364888D01*
X4455658Y-12364888D02*
X4465182Y-12383936D01*
X4465182Y-12383936D02*
X4474706Y-12393460D01*
X4474706Y-12393460D02*
X4493753Y-12402984D01*
X4493753Y-12402984D02*
X4531849Y-12402984D01*
X4531849Y-12402984D02*
X4550896Y-12393460D01*
X4550896Y-12393460D02*
X4560420Y-12383936D01*
X4560420Y-12383936D02*
X4569944Y-12364888D01*
X4569944Y-12364888D02*
X4569944Y-12326793D01*
X4569944Y-12326793D02*
X4560420Y-12307746D01*
X4560420Y-12307746D02*
X4550896Y-12298222D01*
X4550896Y-12298222D02*
X4531849Y-12288698D01*
X4646134Y-12202984D02*
X4646134Y-12241079D01*
X4722325Y-12202984D02*
X4722325Y-12241079D01*
X5017563Y-12479174D02*
X5008039Y-12469650D01*
X5008039Y-12469650D02*
X4988991Y-12441079D01*
X4988991Y-12441079D02*
X4979468Y-12422031D01*
X4979468Y-12422031D02*
X4969944Y-12393460D01*
X4969944Y-12393460D02*
X4960420Y-12345841D01*
X4960420Y-12345841D02*
X4960420Y-12307746D01*
X4960420Y-12307746D02*
X4969944Y-12260127D01*
X4969944Y-12260127D02*
X4979468Y-12231555D01*
X4979468Y-12231555D02*
X4988991Y-12212508D01*
X4988991Y-12212508D02*
X5008039Y-12183936D01*
X5008039Y-12183936D02*
X5017563Y-12174412D01*
X5179468Y-12269650D02*
X5179468Y-12402984D01*
X5131849Y-12193460D02*
X5084230Y-12336317D01*
X5084230Y-12336317D02*
X5208039Y-12336317D01*
X5369944Y-12202984D02*
X5331849Y-12202984D01*
X5331849Y-12202984D02*
X5312801Y-12212508D01*
X5312801Y-12212508D02*
X5303277Y-12222031D01*
X5303277Y-12222031D02*
X5284230Y-12250603D01*
X5284230Y-12250603D02*
X5274706Y-12288698D01*
X5274706Y-12288698D02*
X5274706Y-12364888D01*
X5274706Y-12364888D02*
X5284230Y-12383936D01*
X5284230Y-12383936D02*
X5293753Y-12393460D01*
X5293753Y-12393460D02*
X5312801Y-12402984D01*
X5312801Y-12402984D02*
X5350896Y-12402984D01*
X5350896Y-12402984D02*
X5369944Y-12393460D01*
X5369944Y-12393460D02*
X5379468Y-12383936D01*
X5379468Y-12383936D02*
X5388991Y-12364888D01*
X5388991Y-12364888D02*
X5388991Y-12317269D01*
X5388991Y-12317269D02*
X5379468Y-12298222D01*
X5379468Y-12298222D02*
X5369944Y-12288698D01*
X5369944Y-12288698D02*
X5350896Y-12279174D01*
X5350896Y-12279174D02*
X5312801Y-12279174D01*
X5312801Y-12279174D02*
X5293753Y-12288698D01*
X5293753Y-12288698D02*
X5284230Y-12298222D01*
X5284230Y-12298222D02*
X5274706Y-12317269D01*
X5627087Y-12402984D02*
X5627087Y-12202984D01*
X5712801Y-12402984D02*
X5712801Y-12298222D01*
X5712801Y-12298222D02*
X5703277Y-12279174D01*
X5703277Y-12279174D02*
X5684230Y-12269650D01*
X5684230Y-12269650D02*
X5655658Y-12269650D01*
X5655658Y-12269650D02*
X5636610Y-12279174D01*
X5636610Y-12279174D02*
X5627087Y-12288698D01*
X5836610Y-12402984D02*
X5817563Y-12393460D01*
X5817563Y-12393460D02*
X5808039Y-12383936D01*
X5808039Y-12383936D02*
X5798515Y-12364888D01*
X5798515Y-12364888D02*
X5798515Y-12307746D01*
X5798515Y-12307746D02*
X5808039Y-12288698D01*
X5808039Y-12288698D02*
X5817563Y-12279174D01*
X5817563Y-12279174D02*
X5836610Y-12269650D01*
X5836610Y-12269650D02*
X5865182Y-12269650D01*
X5865182Y-12269650D02*
X5884230Y-12279174D01*
X5884230Y-12279174D02*
X5893753Y-12288698D01*
X5893753Y-12288698D02*
X5903277Y-12307746D01*
X5903277Y-12307746D02*
X5903277Y-12364888D01*
X5903277Y-12364888D02*
X5893753Y-12383936D01*
X5893753Y-12383936D02*
X5884230Y-12393460D01*
X5884230Y-12393460D02*
X5865182Y-12402984D01*
X5865182Y-12402984D02*
X5836610Y-12402984D01*
X6017563Y-12402984D02*
X5998515Y-12393460D01*
X5998515Y-12393460D02*
X5988991Y-12374412D01*
X5988991Y-12374412D02*
X5988991Y-12202984D01*
X6169944Y-12393460D02*
X6150896Y-12402984D01*
X6150896Y-12402984D02*
X6112801Y-12402984D01*
X6112801Y-12402984D02*
X6093753Y-12393460D01*
X6093753Y-12393460D02*
X6084230Y-12374412D01*
X6084230Y-12374412D02*
X6084230Y-12298222D01*
X6084230Y-12298222D02*
X6093753Y-12279174D01*
X6093753Y-12279174D02*
X6112801Y-12269650D01*
X6112801Y-12269650D02*
X6150896Y-12269650D01*
X6150896Y-12269650D02*
X6169944Y-12279174D01*
X6169944Y-12279174D02*
X6179468Y-12298222D01*
X6179468Y-12298222D02*
X6179468Y-12317269D01*
X6179468Y-12317269D02*
X6084230Y-12336317D01*
X6255658Y-12393460D02*
X6274706Y-12402984D01*
X6274706Y-12402984D02*
X6312801Y-12402984D01*
X6312801Y-12402984D02*
X6331849Y-12393460D01*
X6331849Y-12393460D02*
X6341372Y-12374412D01*
X6341372Y-12374412D02*
X6341372Y-12364888D01*
X6341372Y-12364888D02*
X6331849Y-12345841D01*
X6331849Y-12345841D02*
X6312801Y-12336317D01*
X6312801Y-12336317D02*
X6284230Y-12336317D01*
X6284230Y-12336317D02*
X6265182Y-12326793D01*
X6265182Y-12326793D02*
X6255658Y-12307746D01*
X6255658Y-12307746D02*
X6255658Y-12298222D01*
X6255658Y-12298222D02*
X6265182Y-12279174D01*
X6265182Y-12279174D02*
X6284230Y-12269650D01*
X6284230Y-12269650D02*
X6312801Y-12269650D01*
X6312801Y-12269650D02*
X6331849Y-12279174D01*
X6408039Y-12479174D02*
X6417563Y-12469650D01*
X6417563Y-12469650D02*
X6436611Y-12441079D01*
X6436611Y-12441079D02*
X6446134Y-12422031D01*
X6446134Y-12422031D02*
X6455658Y-12393460D01*
X6455658Y-12393460D02*
X6465182Y-12345841D01*
X6465182Y-12345841D02*
X6465182Y-12307746D01*
X6465182Y-12307746D02*
X6455658Y-12260127D01*
X6455658Y-12260127D02*
X6446134Y-12231555D01*
X6446134Y-12231555D02*
X6436611Y-12212508D01*
X6436611Y-12212508D02*
X6417563Y-12183936D01*
X6417563Y-12183936D02*
X6408039Y-12174412D01*
D12*
X1422500Y-12555500D02*
X1422500Y-12595500D01*
X1402500Y-12575500D02*
X1442500Y-12575500D01*
D11*
X1741372Y-12466984D02*
X1760420Y-12466984D01*
X1760420Y-12466984D02*
X1779467Y-12476508D01*
X1779467Y-12476508D02*
X1788991Y-12486031D01*
X1788991Y-12486031D02*
X1798515Y-12505079D01*
X1798515Y-12505079D02*
X1808039Y-12543174D01*
X1808039Y-12543174D02*
X1808039Y-12590793D01*
X1808039Y-12590793D02*
X1798515Y-12628888D01*
X1798515Y-12628888D02*
X1788991Y-12647936D01*
X1788991Y-12647936D02*
X1779467Y-12657460D01*
X1779467Y-12657460D02*
X1760420Y-12666984D01*
X1760420Y-12666984D02*
X1741372Y-12666984D01*
X1741372Y-12666984D02*
X1722324Y-12657460D01*
X1722324Y-12657460D02*
X1712801Y-12647936D01*
X1712801Y-12647936D02*
X1703277Y-12628888D01*
X1703277Y-12628888D02*
X1693753Y-12590793D01*
X1693753Y-12590793D02*
X1693753Y-12543174D01*
X1693753Y-12543174D02*
X1703277Y-12505079D01*
X1703277Y-12505079D02*
X1712801Y-12486031D01*
X1712801Y-12486031D02*
X1722324Y-12476508D01*
X1722324Y-12476508D02*
X1741372Y-12466984D01*
X1893753Y-12647936D02*
X1903277Y-12657460D01*
X1903277Y-12657460D02*
X1893753Y-12666984D01*
X1893753Y-12666984D02*
X1884229Y-12657460D01*
X1884229Y-12657460D02*
X1893753Y-12647936D01*
X1893753Y-12647936D02*
X1893753Y-12666984D01*
X2074705Y-12533650D02*
X2074705Y-12666984D01*
X2027086Y-12457460D02*
X1979467Y-12600317D01*
X1979467Y-12600317D02*
X2103277Y-12600317D01*
X2217563Y-12466984D02*
X2236610Y-12466984D01*
X2236610Y-12466984D02*
X2255658Y-12476508D01*
X2255658Y-12476508D02*
X2265182Y-12486031D01*
X2265182Y-12486031D02*
X2274705Y-12505079D01*
X2274705Y-12505079D02*
X2284229Y-12543174D01*
X2284229Y-12543174D02*
X2284229Y-12590793D01*
X2284229Y-12590793D02*
X2274705Y-12628888D01*
X2274705Y-12628888D02*
X2265182Y-12647936D01*
X2265182Y-12647936D02*
X2255658Y-12657460D01*
X2255658Y-12657460D02*
X2236610Y-12666984D01*
X2236610Y-12666984D02*
X2217563Y-12666984D01*
X2217563Y-12666984D02*
X2198515Y-12657460D01*
X2198515Y-12657460D02*
X2188991Y-12647936D01*
X2188991Y-12647936D02*
X2179467Y-12628888D01*
X2179467Y-12628888D02*
X2169944Y-12590793D01*
X2169944Y-12590793D02*
X2169944Y-12543174D01*
X2169944Y-12543174D02*
X2179467Y-12505079D01*
X2179467Y-12505079D02*
X2188991Y-12486031D01*
X2188991Y-12486031D02*
X2198515Y-12476508D01*
X2198515Y-12476508D02*
X2217563Y-12466984D01*
X2408039Y-12466984D02*
X2427086Y-12466984D01*
X2427086Y-12466984D02*
X2446134Y-12476508D01*
X2446134Y-12476508D02*
X2455658Y-12486031D01*
X2455658Y-12486031D02*
X2465182Y-12505079D01*
X2465182Y-12505079D02*
X2474705Y-12543174D01*
X2474705Y-12543174D02*
X2474705Y-12590793D01*
X2474705Y-12590793D02*
X2465182Y-12628888D01*
X2465182Y-12628888D02*
X2455658Y-12647936D01*
X2455658Y-12647936D02*
X2446134Y-12657460D01*
X2446134Y-12657460D02*
X2427086Y-12666984D01*
X2427086Y-12666984D02*
X2408039Y-12666984D01*
X2408039Y-12666984D02*
X2388991Y-12657460D01*
X2388991Y-12657460D02*
X2379467Y-12647936D01*
X2379467Y-12647936D02*
X2369944Y-12628888D01*
X2369944Y-12628888D02*
X2360420Y-12590793D01*
X2360420Y-12590793D02*
X2360420Y-12543174D01*
X2360420Y-12543174D02*
X2369944Y-12505079D01*
X2369944Y-12505079D02*
X2379467Y-12486031D01*
X2379467Y-12486031D02*
X2388991Y-12476508D01*
X2388991Y-12476508D02*
X2408039Y-12466984D01*
X2560420Y-12666984D02*
X2560420Y-12533650D01*
X2560420Y-12552698D02*
X2569944Y-12543174D01*
X2569944Y-12543174D02*
X2588991Y-12533650D01*
X2588991Y-12533650D02*
X2617563Y-12533650D01*
X2617563Y-12533650D02*
X2636610Y-12543174D01*
X2636610Y-12543174D02*
X2646134Y-12562222D01*
X2646134Y-12562222D02*
X2646134Y-12666984D01*
X2646134Y-12562222D02*
X2655658Y-12543174D01*
X2655658Y-12543174D02*
X2674705Y-12533650D01*
X2674705Y-12533650D02*
X2703277Y-12533650D01*
X2703277Y-12533650D02*
X2722325Y-12543174D01*
X2722325Y-12543174D02*
X2731848Y-12562222D01*
X2731848Y-12562222D02*
X2731848Y-12666984D01*
X2827086Y-12666984D02*
X2827086Y-12533650D01*
X2827086Y-12552698D02*
X2836610Y-12543174D01*
X2836610Y-12543174D02*
X2855658Y-12533650D01*
X2855658Y-12533650D02*
X2884229Y-12533650D01*
X2884229Y-12533650D02*
X2903277Y-12543174D01*
X2903277Y-12543174D02*
X2912801Y-12562222D01*
X2912801Y-12562222D02*
X2912801Y-12666984D01*
X2912801Y-12562222D02*
X2922324Y-12543174D01*
X2922324Y-12543174D02*
X2941372Y-12533650D01*
X2941372Y-12533650D02*
X2969943Y-12533650D01*
X2969943Y-12533650D02*
X2988991Y-12543174D01*
X2988991Y-12543174D02*
X2998515Y-12562222D01*
X2998515Y-12562222D02*
X2998515Y-12666984D01*
X3388991Y-12457460D02*
X3217563Y-12714603D01*
X3646134Y-12466984D02*
X3665182Y-12466984D01*
X3665182Y-12466984D02*
X3684229Y-12476508D01*
X3684229Y-12476508D02*
X3693753Y-12486031D01*
X3693753Y-12486031D02*
X3703277Y-12505079D01*
X3703277Y-12505079D02*
X3712801Y-12543174D01*
X3712801Y-12543174D02*
X3712801Y-12590793D01*
X3712801Y-12590793D02*
X3703277Y-12628888D01*
X3703277Y-12628888D02*
X3693753Y-12647936D01*
X3693753Y-12647936D02*
X3684229Y-12657460D01*
X3684229Y-12657460D02*
X3665182Y-12666984D01*
X3665182Y-12666984D02*
X3646134Y-12666984D01*
X3646134Y-12666984D02*
X3627086Y-12657460D01*
X3627086Y-12657460D02*
X3617563Y-12647936D01*
X3617563Y-12647936D02*
X3608039Y-12628888D01*
X3608039Y-12628888D02*
X3598515Y-12590793D01*
X3598515Y-12590793D02*
X3598515Y-12543174D01*
X3598515Y-12543174D02*
X3608039Y-12505079D01*
X3608039Y-12505079D02*
X3617563Y-12486031D01*
X3617563Y-12486031D02*
X3627086Y-12476508D01*
X3627086Y-12476508D02*
X3646134Y-12466984D01*
X3798515Y-12647936D02*
X3808039Y-12657460D01*
X3808039Y-12657460D02*
X3798515Y-12666984D01*
X3798515Y-12666984D02*
X3788991Y-12657460D01*
X3788991Y-12657460D02*
X3798515Y-12647936D01*
X3798515Y-12647936D02*
X3798515Y-12666984D01*
X3931848Y-12466984D02*
X3950896Y-12466984D01*
X3950896Y-12466984D02*
X3969944Y-12476508D01*
X3969944Y-12476508D02*
X3979467Y-12486031D01*
X3979467Y-12486031D02*
X3988991Y-12505079D01*
X3988991Y-12505079D02*
X3998515Y-12543174D01*
X3998515Y-12543174D02*
X3998515Y-12590793D01*
X3998515Y-12590793D02*
X3988991Y-12628888D01*
X3988991Y-12628888D02*
X3979467Y-12647936D01*
X3979467Y-12647936D02*
X3969944Y-12657460D01*
X3969944Y-12657460D02*
X3950896Y-12666984D01*
X3950896Y-12666984D02*
X3931848Y-12666984D01*
X3931848Y-12666984D02*
X3912801Y-12657460D01*
X3912801Y-12657460D02*
X3903277Y-12647936D01*
X3903277Y-12647936D02*
X3893753Y-12628888D01*
X3893753Y-12628888D02*
X3884229Y-12590793D01*
X3884229Y-12590793D02*
X3884229Y-12543174D01*
X3884229Y-12543174D02*
X3893753Y-12505079D01*
X3893753Y-12505079D02*
X3903277Y-12486031D01*
X3903277Y-12486031D02*
X3912801Y-12476508D01*
X3912801Y-12476508D02*
X3931848Y-12466984D01*
X4188991Y-12666984D02*
X4074706Y-12666984D01*
X4131848Y-12666984D02*
X4131848Y-12466984D01*
X4131848Y-12466984D02*
X4112801Y-12495555D01*
X4112801Y-12495555D02*
X4093753Y-12514603D01*
X4093753Y-12514603D02*
X4074706Y-12524127D01*
X4369944Y-12466984D02*
X4274706Y-12466984D01*
X4274706Y-12466984D02*
X4265182Y-12562222D01*
X4265182Y-12562222D02*
X4274706Y-12552698D01*
X4274706Y-12552698D02*
X4293753Y-12543174D01*
X4293753Y-12543174D02*
X4341372Y-12543174D01*
X4341372Y-12543174D02*
X4360420Y-12552698D01*
X4360420Y-12552698D02*
X4369944Y-12562222D01*
X4369944Y-12562222D02*
X4379468Y-12581269D01*
X4379468Y-12581269D02*
X4379468Y-12628888D01*
X4379468Y-12628888D02*
X4369944Y-12647936D01*
X4369944Y-12647936D02*
X4360420Y-12657460D01*
X4360420Y-12657460D02*
X4341372Y-12666984D01*
X4341372Y-12666984D02*
X4293753Y-12666984D01*
X4293753Y-12666984D02*
X4274706Y-12657460D01*
X4274706Y-12657460D02*
X4265182Y-12647936D01*
X4446134Y-12466984D02*
X4579468Y-12466984D01*
X4579468Y-12466984D02*
X4493753Y-12666984D01*
X4646134Y-12466984D02*
X4646134Y-12505079D01*
X4722325Y-12466984D02*
X4722325Y-12505079D01*
X5017563Y-12743174D02*
X5008039Y-12733650D01*
X5008039Y-12733650D02*
X4988991Y-12705079D01*
X4988991Y-12705079D02*
X4979468Y-12686031D01*
X4979468Y-12686031D02*
X4969944Y-12657460D01*
X4969944Y-12657460D02*
X4960420Y-12609841D01*
X4960420Y-12609841D02*
X4960420Y-12571746D01*
X4960420Y-12571746D02*
X4969944Y-12524127D01*
X4969944Y-12524127D02*
X4979468Y-12495555D01*
X4979468Y-12495555D02*
X4988991Y-12476508D01*
X4988991Y-12476508D02*
X5008039Y-12447936D01*
X5008039Y-12447936D02*
X5017563Y-12438412D01*
X5179468Y-12466984D02*
X5141372Y-12466984D01*
X5141372Y-12466984D02*
X5122325Y-12476508D01*
X5122325Y-12476508D02*
X5112801Y-12486031D01*
X5112801Y-12486031D02*
X5093753Y-12514603D01*
X5093753Y-12514603D02*
X5084230Y-12552698D01*
X5084230Y-12552698D02*
X5084230Y-12628888D01*
X5084230Y-12628888D02*
X5093753Y-12647936D01*
X5093753Y-12647936D02*
X5103277Y-12657460D01*
X5103277Y-12657460D02*
X5122325Y-12666984D01*
X5122325Y-12666984D02*
X5160420Y-12666984D01*
X5160420Y-12666984D02*
X5179468Y-12657460D01*
X5179468Y-12657460D02*
X5188991Y-12647936D01*
X5188991Y-12647936D02*
X5198515Y-12628888D01*
X5198515Y-12628888D02*
X5198515Y-12581269D01*
X5198515Y-12581269D02*
X5188991Y-12562222D01*
X5188991Y-12562222D02*
X5179468Y-12552698D01*
X5179468Y-12552698D02*
X5160420Y-12543174D01*
X5160420Y-12543174D02*
X5122325Y-12543174D01*
X5122325Y-12543174D02*
X5103277Y-12552698D01*
X5103277Y-12552698D02*
X5093753Y-12562222D01*
X5093753Y-12562222D02*
X5084230Y-12581269D01*
X5436611Y-12666984D02*
X5436611Y-12466984D01*
X5522325Y-12666984D02*
X5522325Y-12562222D01*
X5522325Y-12562222D02*
X5512801Y-12543174D01*
X5512801Y-12543174D02*
X5493753Y-12533650D01*
X5493753Y-12533650D02*
X5465182Y-12533650D01*
X5465182Y-12533650D02*
X5446134Y-12543174D01*
X5446134Y-12543174D02*
X5436611Y-12552698D01*
X5646134Y-12666984D02*
X5627087Y-12657460D01*
X5627087Y-12657460D02*
X5617563Y-12647936D01*
X5617563Y-12647936D02*
X5608039Y-12628888D01*
X5608039Y-12628888D02*
X5608039Y-12571746D01*
X5608039Y-12571746D02*
X5617563Y-12552698D01*
X5617563Y-12552698D02*
X5627087Y-12543174D01*
X5627087Y-12543174D02*
X5646134Y-12533650D01*
X5646134Y-12533650D02*
X5674706Y-12533650D01*
X5674706Y-12533650D02*
X5693753Y-12543174D01*
X5693753Y-12543174D02*
X5703277Y-12552698D01*
X5703277Y-12552698D02*
X5712801Y-12571746D01*
X5712801Y-12571746D02*
X5712801Y-12628888D01*
X5712801Y-12628888D02*
X5703277Y-12647936D01*
X5703277Y-12647936D02*
X5693753Y-12657460D01*
X5693753Y-12657460D02*
X5674706Y-12666984D01*
X5674706Y-12666984D02*
X5646134Y-12666984D01*
X5827087Y-12666984D02*
X5808039Y-12657460D01*
X5808039Y-12657460D02*
X5798515Y-12638412D01*
X5798515Y-12638412D02*
X5798515Y-12466984D01*
X5979468Y-12657460D02*
X5960420Y-12666984D01*
X5960420Y-12666984D02*
X5922325Y-12666984D01*
X5922325Y-12666984D02*
X5903277Y-12657460D01*
X5903277Y-12657460D02*
X5893753Y-12638412D01*
X5893753Y-12638412D02*
X5893753Y-12562222D01*
X5893753Y-12562222D02*
X5903277Y-12543174D01*
X5903277Y-12543174D02*
X5922325Y-12533650D01*
X5922325Y-12533650D02*
X5960420Y-12533650D01*
X5960420Y-12533650D02*
X5979468Y-12543174D01*
X5979468Y-12543174D02*
X5988991Y-12562222D01*
X5988991Y-12562222D02*
X5988991Y-12581269D01*
X5988991Y-12581269D02*
X5893753Y-12600317D01*
X6065182Y-12657460D02*
X6084230Y-12666984D01*
X6084230Y-12666984D02*
X6122325Y-12666984D01*
X6122325Y-12666984D02*
X6141372Y-12657460D01*
X6141372Y-12657460D02*
X6150896Y-12638412D01*
X6150896Y-12638412D02*
X6150896Y-12628888D01*
X6150896Y-12628888D02*
X6141372Y-12609841D01*
X6141372Y-12609841D02*
X6122325Y-12600317D01*
X6122325Y-12600317D02*
X6093753Y-12600317D01*
X6093753Y-12600317D02*
X6074706Y-12590793D01*
X6074706Y-12590793D02*
X6065182Y-12571746D01*
X6065182Y-12571746D02*
X6065182Y-12562222D01*
X6065182Y-12562222D02*
X6074706Y-12543174D01*
X6074706Y-12543174D02*
X6093753Y-12533650D01*
X6093753Y-12533650D02*
X6122325Y-12533650D01*
X6122325Y-12533650D02*
X6141372Y-12543174D01*
X6217563Y-12743174D02*
X6227087Y-12733650D01*
X6227087Y-12733650D02*
X6246134Y-12705079D01*
X6246134Y-12705079D02*
X6255658Y-12686031D01*
X6255658Y-12686031D02*
X6265182Y-12657460D01*
X6265182Y-12657460D02*
X6274706Y-12609841D01*
X6274706Y-12609841D02*
X6274706Y-12571746D01*
X6274706Y-12571746D02*
X6265182Y-12524127D01*
X6265182Y-12524127D02*
X6255658Y-12495555D01*
X6255658Y-12495555D02*
X6246134Y-12476508D01*
X6246134Y-12476508D02*
X6227087Y-12447936D01*
X6227087Y-12447936D02*
X6217563Y-12438412D01*
D12*
X1427993Y-12874523D02*
X1427993Y-12804477D01*
X1357947Y-12804477D01*
X1357947Y-12874523D01*
X1427993Y-12874523D01*
D11*
X1741372Y-12730984D02*
X1760420Y-12730984D01*
X1760420Y-12730984D02*
X1779467Y-12740508D01*
X1779467Y-12740508D02*
X1788991Y-12750031D01*
X1788991Y-12750031D02*
X1798515Y-12769079D01*
X1798515Y-12769079D02*
X1808039Y-12807174D01*
X1808039Y-12807174D02*
X1808039Y-12854793D01*
X1808039Y-12854793D02*
X1798515Y-12892888D01*
X1798515Y-12892888D02*
X1788991Y-12911936D01*
X1788991Y-12911936D02*
X1779467Y-12921460D01*
X1779467Y-12921460D02*
X1760420Y-12930984D01*
X1760420Y-12930984D02*
X1741372Y-12930984D01*
X1741372Y-12930984D02*
X1722324Y-12921460D01*
X1722324Y-12921460D02*
X1712801Y-12911936D01*
X1712801Y-12911936D02*
X1703277Y-12892888D01*
X1703277Y-12892888D02*
X1693753Y-12854793D01*
X1693753Y-12854793D02*
X1693753Y-12807174D01*
X1693753Y-12807174D02*
X1703277Y-12769079D01*
X1703277Y-12769079D02*
X1712801Y-12750031D01*
X1712801Y-12750031D02*
X1722324Y-12740508D01*
X1722324Y-12740508D02*
X1741372Y-12730984D01*
X1893753Y-12911936D02*
X1903277Y-12921460D01*
X1903277Y-12921460D02*
X1893753Y-12930984D01*
X1893753Y-12930984D02*
X1884229Y-12921460D01*
X1884229Y-12921460D02*
X1893753Y-12911936D01*
X1893753Y-12911936D02*
X1893753Y-12930984D01*
X1998515Y-12930984D02*
X2036610Y-12930984D01*
X2036610Y-12930984D02*
X2055658Y-12921460D01*
X2055658Y-12921460D02*
X2065182Y-12911936D01*
X2065182Y-12911936D02*
X2084229Y-12883365D01*
X2084229Y-12883365D02*
X2093753Y-12845269D01*
X2093753Y-12845269D02*
X2093753Y-12769079D01*
X2093753Y-12769079D02*
X2084229Y-12750031D01*
X2084229Y-12750031D02*
X2074705Y-12740508D01*
X2074705Y-12740508D02*
X2055658Y-12730984D01*
X2055658Y-12730984D02*
X2017562Y-12730984D01*
X2017562Y-12730984D02*
X1998515Y-12740508D01*
X1998515Y-12740508D02*
X1988991Y-12750031D01*
X1988991Y-12750031D02*
X1979467Y-12769079D01*
X1979467Y-12769079D02*
X1979467Y-12816698D01*
X1979467Y-12816698D02*
X1988991Y-12835746D01*
X1988991Y-12835746D02*
X1998515Y-12845269D01*
X1998515Y-12845269D02*
X2017562Y-12854793D01*
X2017562Y-12854793D02*
X2055658Y-12854793D01*
X2055658Y-12854793D02*
X2074705Y-12845269D01*
X2074705Y-12845269D02*
X2084229Y-12835746D01*
X2084229Y-12835746D02*
X2093753Y-12816698D01*
X2188991Y-12930984D02*
X2227086Y-12930984D01*
X2227086Y-12930984D02*
X2246134Y-12921460D01*
X2246134Y-12921460D02*
X2255658Y-12911936D01*
X2255658Y-12911936D02*
X2274705Y-12883365D01*
X2274705Y-12883365D02*
X2284229Y-12845269D01*
X2284229Y-12845269D02*
X2284229Y-12769079D01*
X2284229Y-12769079D02*
X2274705Y-12750031D01*
X2274705Y-12750031D02*
X2265182Y-12740508D01*
X2265182Y-12740508D02*
X2246134Y-12730984D01*
X2246134Y-12730984D02*
X2208039Y-12730984D01*
X2208039Y-12730984D02*
X2188991Y-12740508D01*
X2188991Y-12740508D02*
X2179467Y-12750031D01*
X2179467Y-12750031D02*
X2169944Y-12769079D01*
X2169944Y-12769079D02*
X2169944Y-12816698D01*
X2169944Y-12816698D02*
X2179467Y-12835746D01*
X2179467Y-12835746D02*
X2188991Y-12845269D01*
X2188991Y-12845269D02*
X2208039Y-12854793D01*
X2208039Y-12854793D02*
X2246134Y-12854793D01*
X2246134Y-12854793D02*
X2265182Y-12845269D01*
X2265182Y-12845269D02*
X2274705Y-12835746D01*
X2274705Y-12835746D02*
X2284229Y-12816698D01*
X2474705Y-12930984D02*
X2360420Y-12930984D01*
X2417563Y-12930984D02*
X2417563Y-12730984D01*
X2417563Y-12730984D02*
X2398515Y-12759555D01*
X2398515Y-12759555D02*
X2379467Y-12778603D01*
X2379467Y-12778603D02*
X2360420Y-12788127D01*
X2560420Y-12930984D02*
X2560420Y-12797650D01*
X2560420Y-12816698D02*
X2569944Y-12807174D01*
X2569944Y-12807174D02*
X2588991Y-12797650D01*
X2588991Y-12797650D02*
X2617563Y-12797650D01*
X2617563Y-12797650D02*
X2636610Y-12807174D01*
X2636610Y-12807174D02*
X2646134Y-12826222D01*
X2646134Y-12826222D02*
X2646134Y-12930984D01*
X2646134Y-12826222D02*
X2655658Y-12807174D01*
X2655658Y-12807174D02*
X2674705Y-12797650D01*
X2674705Y-12797650D02*
X2703277Y-12797650D01*
X2703277Y-12797650D02*
X2722325Y-12807174D01*
X2722325Y-12807174D02*
X2731848Y-12826222D01*
X2731848Y-12826222D02*
X2731848Y-12930984D01*
X2827086Y-12930984D02*
X2827086Y-12797650D01*
X2827086Y-12816698D02*
X2836610Y-12807174D01*
X2836610Y-12807174D02*
X2855658Y-12797650D01*
X2855658Y-12797650D02*
X2884229Y-12797650D01*
X2884229Y-12797650D02*
X2903277Y-12807174D01*
X2903277Y-12807174D02*
X2912801Y-12826222D01*
X2912801Y-12826222D02*
X2912801Y-12930984D01*
X2912801Y-12826222D02*
X2922324Y-12807174D01*
X2922324Y-12807174D02*
X2941372Y-12797650D01*
X2941372Y-12797650D02*
X2969943Y-12797650D01*
X2969943Y-12797650D02*
X2988991Y-12807174D01*
X2988991Y-12807174D02*
X2998515Y-12826222D01*
X2998515Y-12826222D02*
X2998515Y-12930984D01*
X3388991Y-12721460D02*
X3217563Y-12978603D01*
X3646134Y-12730984D02*
X3665182Y-12730984D01*
X3665182Y-12730984D02*
X3684229Y-12740508D01*
X3684229Y-12740508D02*
X3693753Y-12750031D01*
X3693753Y-12750031D02*
X3703277Y-12769079D01*
X3703277Y-12769079D02*
X3712801Y-12807174D01*
X3712801Y-12807174D02*
X3712801Y-12854793D01*
X3712801Y-12854793D02*
X3703277Y-12892888D01*
X3703277Y-12892888D02*
X3693753Y-12911936D01*
X3693753Y-12911936D02*
X3684229Y-12921460D01*
X3684229Y-12921460D02*
X3665182Y-12930984D01*
X3665182Y-12930984D02*
X3646134Y-12930984D01*
X3646134Y-12930984D02*
X3627086Y-12921460D01*
X3627086Y-12921460D02*
X3617563Y-12911936D01*
X3617563Y-12911936D02*
X3608039Y-12892888D01*
X3608039Y-12892888D02*
X3598515Y-12854793D01*
X3598515Y-12854793D02*
X3598515Y-12807174D01*
X3598515Y-12807174D02*
X3608039Y-12769079D01*
X3608039Y-12769079D02*
X3617563Y-12750031D01*
X3617563Y-12750031D02*
X3627086Y-12740508D01*
X3627086Y-12740508D02*
X3646134Y-12730984D01*
X3798515Y-12911936D02*
X3808039Y-12921460D01*
X3808039Y-12921460D02*
X3798515Y-12930984D01*
X3798515Y-12930984D02*
X3788991Y-12921460D01*
X3788991Y-12921460D02*
X3798515Y-12911936D01*
X3798515Y-12911936D02*
X3798515Y-12930984D01*
X3931848Y-12730984D02*
X3950896Y-12730984D01*
X3950896Y-12730984D02*
X3969944Y-12740508D01*
X3969944Y-12740508D02*
X3979467Y-12750031D01*
X3979467Y-12750031D02*
X3988991Y-12769079D01*
X3988991Y-12769079D02*
X3998515Y-12807174D01*
X3998515Y-12807174D02*
X3998515Y-12854793D01*
X3998515Y-12854793D02*
X3988991Y-12892888D01*
X3988991Y-12892888D02*
X3979467Y-12911936D01*
X3979467Y-12911936D02*
X3969944Y-12921460D01*
X3969944Y-12921460D02*
X3950896Y-12930984D01*
X3950896Y-12930984D02*
X3931848Y-12930984D01*
X3931848Y-12930984D02*
X3912801Y-12921460D01*
X3912801Y-12921460D02*
X3903277Y-12911936D01*
X3903277Y-12911936D02*
X3893753Y-12892888D01*
X3893753Y-12892888D02*
X3884229Y-12854793D01*
X3884229Y-12854793D02*
X3884229Y-12807174D01*
X3884229Y-12807174D02*
X3893753Y-12769079D01*
X3893753Y-12769079D02*
X3903277Y-12750031D01*
X3903277Y-12750031D02*
X3912801Y-12740508D01*
X3912801Y-12740508D02*
X3931848Y-12730984D01*
X4065182Y-12730984D02*
X4188991Y-12730984D01*
X4188991Y-12730984D02*
X4122325Y-12807174D01*
X4122325Y-12807174D02*
X4150896Y-12807174D01*
X4150896Y-12807174D02*
X4169944Y-12816698D01*
X4169944Y-12816698D02*
X4179467Y-12826222D01*
X4179467Y-12826222D02*
X4188991Y-12845269D01*
X4188991Y-12845269D02*
X4188991Y-12892888D01*
X4188991Y-12892888D02*
X4179467Y-12911936D01*
X4179467Y-12911936D02*
X4169944Y-12921460D01*
X4169944Y-12921460D02*
X4150896Y-12930984D01*
X4150896Y-12930984D02*
X4093753Y-12930984D01*
X4093753Y-12930984D02*
X4074706Y-12921460D01*
X4074706Y-12921460D02*
X4065182Y-12911936D01*
X4284229Y-12930984D02*
X4322325Y-12930984D01*
X4322325Y-12930984D02*
X4341372Y-12921460D01*
X4341372Y-12921460D02*
X4350896Y-12911936D01*
X4350896Y-12911936D02*
X4369944Y-12883365D01*
X4369944Y-12883365D02*
X4379468Y-12845269D01*
X4379468Y-12845269D02*
X4379468Y-12769079D01*
X4379468Y-12769079D02*
X4369944Y-12750031D01*
X4369944Y-12750031D02*
X4360420Y-12740508D01*
X4360420Y-12740508D02*
X4341372Y-12730984D01*
X4341372Y-12730984D02*
X4303277Y-12730984D01*
X4303277Y-12730984D02*
X4284229Y-12740508D01*
X4284229Y-12740508D02*
X4274706Y-12750031D01*
X4274706Y-12750031D02*
X4265182Y-12769079D01*
X4265182Y-12769079D02*
X4265182Y-12816698D01*
X4265182Y-12816698D02*
X4274706Y-12835746D01*
X4274706Y-12835746D02*
X4284229Y-12845269D01*
X4284229Y-12845269D02*
X4303277Y-12854793D01*
X4303277Y-12854793D02*
X4341372Y-12854793D01*
X4341372Y-12854793D02*
X4360420Y-12845269D01*
X4360420Y-12845269D02*
X4369944Y-12835746D01*
X4369944Y-12835746D02*
X4379468Y-12816698D01*
X4503277Y-12730984D02*
X4522325Y-12730984D01*
X4522325Y-12730984D02*
X4541372Y-12740508D01*
X4541372Y-12740508D02*
X4550896Y-12750031D01*
X4550896Y-12750031D02*
X4560420Y-12769079D01*
X4560420Y-12769079D02*
X4569944Y-12807174D01*
X4569944Y-12807174D02*
X4569944Y-12854793D01*
X4569944Y-12854793D02*
X4560420Y-12892888D01*
X4560420Y-12892888D02*
X4550896Y-12911936D01*
X4550896Y-12911936D02*
X4541372Y-12921460D01*
X4541372Y-12921460D02*
X4522325Y-12930984D01*
X4522325Y-12930984D02*
X4503277Y-12930984D01*
X4503277Y-12930984D02*
X4484229Y-12921460D01*
X4484229Y-12921460D02*
X4474706Y-12911936D01*
X4474706Y-12911936D02*
X4465182Y-12892888D01*
X4465182Y-12892888D02*
X4455658Y-12854793D01*
X4455658Y-12854793D02*
X4455658Y-12807174D01*
X4455658Y-12807174D02*
X4465182Y-12769079D01*
X4465182Y-12769079D02*
X4474706Y-12750031D01*
X4474706Y-12750031D02*
X4484229Y-12740508D01*
X4484229Y-12740508D02*
X4503277Y-12730984D01*
X4646134Y-12730984D02*
X4646134Y-12769079D01*
X4722325Y-12730984D02*
X4722325Y-12769079D01*
X5017563Y-13007174D02*
X5008039Y-12997650D01*
X5008039Y-12997650D02*
X4988991Y-12969079D01*
X4988991Y-12969079D02*
X4979468Y-12950031D01*
X4979468Y-12950031D02*
X4969944Y-12921460D01*
X4969944Y-12921460D02*
X4960420Y-12873841D01*
X4960420Y-12873841D02*
X4960420Y-12835746D01*
X4960420Y-12835746D02*
X4969944Y-12788127D01*
X4969944Y-12788127D02*
X4979468Y-12759555D01*
X4979468Y-12759555D02*
X4988991Y-12740508D01*
X4988991Y-12740508D02*
X5008039Y-12711936D01*
X5008039Y-12711936D02*
X5017563Y-12702412D01*
X5179468Y-12797650D02*
X5179468Y-12930984D01*
X5131849Y-12721460D02*
X5084230Y-12864317D01*
X5084230Y-12864317D02*
X5208039Y-12864317D01*
X5369944Y-12730984D02*
X5331849Y-12730984D01*
X5331849Y-12730984D02*
X5312801Y-12740508D01*
X5312801Y-12740508D02*
X5303277Y-12750031D01*
X5303277Y-12750031D02*
X5284230Y-12778603D01*
X5284230Y-12778603D02*
X5274706Y-12816698D01*
X5274706Y-12816698D02*
X5274706Y-12892888D01*
X5274706Y-12892888D02*
X5284230Y-12911936D01*
X5284230Y-12911936D02*
X5293753Y-12921460D01*
X5293753Y-12921460D02*
X5312801Y-12930984D01*
X5312801Y-12930984D02*
X5350896Y-12930984D01*
X5350896Y-12930984D02*
X5369944Y-12921460D01*
X5369944Y-12921460D02*
X5379468Y-12911936D01*
X5379468Y-12911936D02*
X5388991Y-12892888D01*
X5388991Y-12892888D02*
X5388991Y-12845269D01*
X5388991Y-12845269D02*
X5379468Y-12826222D01*
X5379468Y-12826222D02*
X5369944Y-12816698D01*
X5369944Y-12816698D02*
X5350896Y-12807174D01*
X5350896Y-12807174D02*
X5312801Y-12807174D01*
X5312801Y-12807174D02*
X5293753Y-12816698D01*
X5293753Y-12816698D02*
X5284230Y-12826222D01*
X5284230Y-12826222D02*
X5274706Y-12845269D01*
X5627087Y-12930984D02*
X5627087Y-12730984D01*
X5712801Y-12930984D02*
X5712801Y-12826222D01*
X5712801Y-12826222D02*
X5703277Y-12807174D01*
X5703277Y-12807174D02*
X5684230Y-12797650D01*
X5684230Y-12797650D02*
X5655658Y-12797650D01*
X5655658Y-12797650D02*
X5636610Y-12807174D01*
X5636610Y-12807174D02*
X5627087Y-12816698D01*
X5836610Y-12930984D02*
X5817563Y-12921460D01*
X5817563Y-12921460D02*
X5808039Y-12911936D01*
X5808039Y-12911936D02*
X5798515Y-12892888D01*
X5798515Y-12892888D02*
X5798515Y-12835746D01*
X5798515Y-12835746D02*
X5808039Y-12816698D01*
X5808039Y-12816698D02*
X5817563Y-12807174D01*
X5817563Y-12807174D02*
X5836610Y-12797650D01*
X5836610Y-12797650D02*
X5865182Y-12797650D01*
X5865182Y-12797650D02*
X5884230Y-12807174D01*
X5884230Y-12807174D02*
X5893753Y-12816698D01*
X5893753Y-12816698D02*
X5903277Y-12835746D01*
X5903277Y-12835746D02*
X5903277Y-12892888D01*
X5903277Y-12892888D02*
X5893753Y-12911936D01*
X5893753Y-12911936D02*
X5884230Y-12921460D01*
X5884230Y-12921460D02*
X5865182Y-12930984D01*
X5865182Y-12930984D02*
X5836610Y-12930984D01*
X6017563Y-12930984D02*
X5998515Y-12921460D01*
X5998515Y-12921460D02*
X5988991Y-12902412D01*
X5988991Y-12902412D02*
X5988991Y-12730984D01*
X6169944Y-12921460D02*
X6150896Y-12930984D01*
X6150896Y-12930984D02*
X6112801Y-12930984D01*
X6112801Y-12930984D02*
X6093753Y-12921460D01*
X6093753Y-12921460D02*
X6084230Y-12902412D01*
X6084230Y-12902412D02*
X6084230Y-12826222D01*
X6084230Y-12826222D02*
X6093753Y-12807174D01*
X6093753Y-12807174D02*
X6112801Y-12797650D01*
X6112801Y-12797650D02*
X6150896Y-12797650D01*
X6150896Y-12797650D02*
X6169944Y-12807174D01*
X6169944Y-12807174D02*
X6179468Y-12826222D01*
X6179468Y-12826222D02*
X6179468Y-12845269D01*
X6179468Y-12845269D02*
X6084230Y-12864317D01*
X6255658Y-12921460D02*
X6274706Y-12930984D01*
X6274706Y-12930984D02*
X6312801Y-12930984D01*
X6312801Y-12930984D02*
X6331849Y-12921460D01*
X6331849Y-12921460D02*
X6341372Y-12902412D01*
X6341372Y-12902412D02*
X6341372Y-12892888D01*
X6341372Y-12892888D02*
X6331849Y-12873841D01*
X6331849Y-12873841D02*
X6312801Y-12864317D01*
X6312801Y-12864317D02*
X6284230Y-12864317D01*
X6284230Y-12864317D02*
X6265182Y-12854793D01*
X6265182Y-12854793D02*
X6255658Y-12835746D01*
X6255658Y-12835746D02*
X6255658Y-12826222D01*
X6255658Y-12826222D02*
X6265182Y-12807174D01*
X6265182Y-12807174D02*
X6284230Y-12797650D01*
X6284230Y-12797650D02*
X6312801Y-12797650D01*
X6312801Y-12797650D02*
X6331849Y-12807174D01*
X6408039Y-13007174D02*
X6417563Y-12997650D01*
X6417563Y-12997650D02*
X6436611Y-12969079D01*
X6436611Y-12969079D02*
X6446134Y-12950031D01*
X6446134Y-12950031D02*
X6455658Y-12921460D01*
X6455658Y-12921460D02*
X6465182Y-12873841D01*
X6465182Y-12873841D02*
X6465182Y-12835746D01*
X6465182Y-12835746D02*
X6455658Y-12788127D01*
X6455658Y-12788127D02*
X6446134Y-12759555D01*
X6446134Y-12759555D02*
X6436611Y-12740508D01*
X6436611Y-12740508D02*
X6417563Y-12711936D01*
X6417563Y-12711936D02*
X6408039Y-12702412D01*
D12*
X1392500Y-13153500D02*
X1442500Y-13103500D01*
X1392500Y-13053500D01*
X1342500Y-13103500D01*
X1392500Y-13153500D01*
D11*
X1808039Y-13194984D02*
X1693753Y-13194984D01*
X1750896Y-13194984D02*
X1750896Y-12994984D01*
X1750896Y-12994984D02*
X1731848Y-13023555D01*
X1731848Y-13023555D02*
X1712801Y-13042603D01*
X1712801Y-13042603D02*
X1693753Y-13052127D01*
X1893753Y-13175936D02*
X1903277Y-13185460D01*
X1903277Y-13185460D02*
X1893753Y-13194984D01*
X1893753Y-13194984D02*
X1884229Y-13185460D01*
X1884229Y-13185460D02*
X1893753Y-13175936D01*
X1893753Y-13175936D02*
X1893753Y-13194984D01*
X2027086Y-12994984D02*
X2046134Y-12994984D01*
X2046134Y-12994984D02*
X2065182Y-13004508D01*
X2065182Y-13004508D02*
X2074705Y-13014031D01*
X2074705Y-13014031D02*
X2084229Y-13033079D01*
X2084229Y-13033079D02*
X2093753Y-13071174D01*
X2093753Y-13071174D02*
X2093753Y-13118793D01*
X2093753Y-13118793D02*
X2084229Y-13156888D01*
X2084229Y-13156888D02*
X2074705Y-13175936D01*
X2074705Y-13175936D02*
X2065182Y-13185460D01*
X2065182Y-13185460D02*
X2046134Y-13194984D01*
X2046134Y-13194984D02*
X2027086Y-13194984D01*
X2027086Y-13194984D02*
X2008039Y-13185460D01*
X2008039Y-13185460D02*
X1998515Y-13175936D01*
X1998515Y-13175936D02*
X1988991Y-13156888D01*
X1988991Y-13156888D02*
X1979467Y-13118793D01*
X1979467Y-13118793D02*
X1979467Y-13071174D01*
X1979467Y-13071174D02*
X1988991Y-13033079D01*
X1988991Y-13033079D02*
X1998515Y-13014031D01*
X1998515Y-13014031D02*
X2008039Y-13004508D01*
X2008039Y-13004508D02*
X2027086Y-12994984D01*
X2217563Y-12994984D02*
X2236610Y-12994984D01*
X2236610Y-12994984D02*
X2255658Y-13004508D01*
X2255658Y-13004508D02*
X2265182Y-13014031D01*
X2265182Y-13014031D02*
X2274705Y-13033079D01*
X2274705Y-13033079D02*
X2284229Y-13071174D01*
X2284229Y-13071174D02*
X2284229Y-13118793D01*
X2284229Y-13118793D02*
X2274705Y-13156888D01*
X2274705Y-13156888D02*
X2265182Y-13175936D01*
X2265182Y-13175936D02*
X2255658Y-13185460D01*
X2255658Y-13185460D02*
X2236610Y-13194984D01*
X2236610Y-13194984D02*
X2217563Y-13194984D01*
X2217563Y-13194984D02*
X2198515Y-13185460D01*
X2198515Y-13185460D02*
X2188991Y-13175936D01*
X2188991Y-13175936D02*
X2179467Y-13156888D01*
X2179467Y-13156888D02*
X2169944Y-13118793D01*
X2169944Y-13118793D02*
X2169944Y-13071174D01*
X2169944Y-13071174D02*
X2179467Y-13033079D01*
X2179467Y-13033079D02*
X2188991Y-13014031D01*
X2188991Y-13014031D02*
X2198515Y-13004508D01*
X2198515Y-13004508D02*
X2217563Y-12994984D01*
X2408039Y-12994984D02*
X2427086Y-12994984D01*
X2427086Y-12994984D02*
X2446134Y-13004508D01*
X2446134Y-13004508D02*
X2455658Y-13014031D01*
X2455658Y-13014031D02*
X2465182Y-13033079D01*
X2465182Y-13033079D02*
X2474705Y-13071174D01*
X2474705Y-13071174D02*
X2474705Y-13118793D01*
X2474705Y-13118793D02*
X2465182Y-13156888D01*
X2465182Y-13156888D02*
X2455658Y-13175936D01*
X2455658Y-13175936D02*
X2446134Y-13185460D01*
X2446134Y-13185460D02*
X2427086Y-13194984D01*
X2427086Y-13194984D02*
X2408039Y-13194984D01*
X2408039Y-13194984D02*
X2388991Y-13185460D01*
X2388991Y-13185460D02*
X2379467Y-13175936D01*
X2379467Y-13175936D02*
X2369944Y-13156888D01*
X2369944Y-13156888D02*
X2360420Y-13118793D01*
X2360420Y-13118793D02*
X2360420Y-13071174D01*
X2360420Y-13071174D02*
X2369944Y-13033079D01*
X2369944Y-13033079D02*
X2379467Y-13014031D01*
X2379467Y-13014031D02*
X2388991Y-13004508D01*
X2388991Y-13004508D02*
X2408039Y-12994984D01*
X2560420Y-13194984D02*
X2560420Y-13061650D01*
X2560420Y-13080698D02*
X2569944Y-13071174D01*
X2569944Y-13071174D02*
X2588991Y-13061650D01*
X2588991Y-13061650D02*
X2617563Y-13061650D01*
X2617563Y-13061650D02*
X2636610Y-13071174D01*
X2636610Y-13071174D02*
X2646134Y-13090222D01*
X2646134Y-13090222D02*
X2646134Y-13194984D01*
X2646134Y-13090222D02*
X2655658Y-13071174D01*
X2655658Y-13071174D02*
X2674705Y-13061650D01*
X2674705Y-13061650D02*
X2703277Y-13061650D01*
X2703277Y-13061650D02*
X2722325Y-13071174D01*
X2722325Y-13071174D02*
X2731848Y-13090222D01*
X2731848Y-13090222D02*
X2731848Y-13194984D01*
X2827086Y-13194984D02*
X2827086Y-13061650D01*
X2827086Y-13080698D02*
X2836610Y-13071174D01*
X2836610Y-13071174D02*
X2855658Y-13061650D01*
X2855658Y-13061650D02*
X2884229Y-13061650D01*
X2884229Y-13061650D02*
X2903277Y-13071174D01*
X2903277Y-13071174D02*
X2912801Y-13090222D01*
X2912801Y-13090222D02*
X2912801Y-13194984D01*
X2912801Y-13090222D02*
X2922324Y-13071174D01*
X2922324Y-13071174D02*
X2941372Y-13061650D01*
X2941372Y-13061650D02*
X2969943Y-13061650D01*
X2969943Y-13061650D02*
X2988991Y-13071174D01*
X2988991Y-13071174D02*
X2998515Y-13090222D01*
X2998515Y-13090222D02*
X2998515Y-13194984D01*
X3388991Y-12985460D02*
X3217563Y-13242603D01*
X3646134Y-12994984D02*
X3665182Y-12994984D01*
X3665182Y-12994984D02*
X3684229Y-13004508D01*
X3684229Y-13004508D02*
X3693753Y-13014031D01*
X3693753Y-13014031D02*
X3703277Y-13033079D01*
X3703277Y-13033079D02*
X3712801Y-13071174D01*
X3712801Y-13071174D02*
X3712801Y-13118793D01*
X3712801Y-13118793D02*
X3703277Y-13156888D01*
X3703277Y-13156888D02*
X3693753Y-13175936D01*
X3693753Y-13175936D02*
X3684229Y-13185460D01*
X3684229Y-13185460D02*
X3665182Y-13194984D01*
X3665182Y-13194984D02*
X3646134Y-13194984D01*
X3646134Y-13194984D02*
X3627086Y-13185460D01*
X3627086Y-13185460D02*
X3617563Y-13175936D01*
X3617563Y-13175936D02*
X3608039Y-13156888D01*
X3608039Y-13156888D02*
X3598515Y-13118793D01*
X3598515Y-13118793D02*
X3598515Y-13071174D01*
X3598515Y-13071174D02*
X3608039Y-13033079D01*
X3608039Y-13033079D02*
X3617563Y-13014031D01*
X3617563Y-13014031D02*
X3627086Y-13004508D01*
X3627086Y-13004508D02*
X3646134Y-12994984D01*
X3798515Y-13175936D02*
X3808039Y-13185460D01*
X3808039Y-13185460D02*
X3798515Y-13194984D01*
X3798515Y-13194984D02*
X3788991Y-13185460D01*
X3788991Y-13185460D02*
X3798515Y-13175936D01*
X3798515Y-13175936D02*
X3798515Y-13194984D01*
X3931848Y-12994984D02*
X3950896Y-12994984D01*
X3950896Y-12994984D02*
X3969944Y-13004508D01*
X3969944Y-13004508D02*
X3979467Y-13014031D01*
X3979467Y-13014031D02*
X3988991Y-13033079D01*
X3988991Y-13033079D02*
X3998515Y-13071174D01*
X3998515Y-13071174D02*
X3998515Y-13118793D01*
X3998515Y-13118793D02*
X3988991Y-13156888D01*
X3988991Y-13156888D02*
X3979467Y-13175936D01*
X3979467Y-13175936D02*
X3969944Y-13185460D01*
X3969944Y-13185460D02*
X3950896Y-13194984D01*
X3950896Y-13194984D02*
X3931848Y-13194984D01*
X3931848Y-13194984D02*
X3912801Y-13185460D01*
X3912801Y-13185460D02*
X3903277Y-13175936D01*
X3903277Y-13175936D02*
X3893753Y-13156888D01*
X3893753Y-13156888D02*
X3884229Y-13118793D01*
X3884229Y-13118793D02*
X3884229Y-13071174D01*
X3884229Y-13071174D02*
X3893753Y-13033079D01*
X3893753Y-13033079D02*
X3903277Y-13014031D01*
X3903277Y-13014031D02*
X3912801Y-13004508D01*
X3912801Y-13004508D02*
X3931848Y-12994984D01*
X4065182Y-12994984D02*
X4188991Y-12994984D01*
X4188991Y-12994984D02*
X4122325Y-13071174D01*
X4122325Y-13071174D02*
X4150896Y-13071174D01*
X4150896Y-13071174D02*
X4169944Y-13080698D01*
X4169944Y-13080698D02*
X4179467Y-13090222D01*
X4179467Y-13090222D02*
X4188991Y-13109269D01*
X4188991Y-13109269D02*
X4188991Y-13156888D01*
X4188991Y-13156888D02*
X4179467Y-13175936D01*
X4179467Y-13175936D02*
X4169944Y-13185460D01*
X4169944Y-13185460D02*
X4150896Y-13194984D01*
X4150896Y-13194984D02*
X4093753Y-13194984D01*
X4093753Y-13194984D02*
X4074706Y-13185460D01*
X4074706Y-13185460D02*
X4065182Y-13175936D01*
X4284229Y-13194984D02*
X4322325Y-13194984D01*
X4322325Y-13194984D02*
X4341372Y-13185460D01*
X4341372Y-13185460D02*
X4350896Y-13175936D01*
X4350896Y-13175936D02*
X4369944Y-13147365D01*
X4369944Y-13147365D02*
X4379468Y-13109269D01*
X4379468Y-13109269D02*
X4379468Y-13033079D01*
X4379468Y-13033079D02*
X4369944Y-13014031D01*
X4369944Y-13014031D02*
X4360420Y-13004508D01*
X4360420Y-13004508D02*
X4341372Y-12994984D01*
X4341372Y-12994984D02*
X4303277Y-12994984D01*
X4303277Y-12994984D02*
X4284229Y-13004508D01*
X4284229Y-13004508D02*
X4274706Y-13014031D01*
X4274706Y-13014031D02*
X4265182Y-13033079D01*
X4265182Y-13033079D02*
X4265182Y-13080698D01*
X4265182Y-13080698D02*
X4274706Y-13099746D01*
X4274706Y-13099746D02*
X4284229Y-13109269D01*
X4284229Y-13109269D02*
X4303277Y-13118793D01*
X4303277Y-13118793D02*
X4341372Y-13118793D01*
X4341372Y-13118793D02*
X4360420Y-13109269D01*
X4360420Y-13109269D02*
X4369944Y-13099746D01*
X4369944Y-13099746D02*
X4379468Y-13080698D01*
X4550896Y-13061650D02*
X4550896Y-13194984D01*
X4503277Y-12985460D02*
X4455658Y-13128317D01*
X4455658Y-13128317D02*
X4579468Y-13128317D01*
X4646134Y-12994984D02*
X4646134Y-13033079D01*
X4722325Y-12994984D02*
X4722325Y-13033079D01*
X5017563Y-13271174D02*
X5008039Y-13261650D01*
X5008039Y-13261650D02*
X4988991Y-13233079D01*
X4988991Y-13233079D02*
X4979468Y-13214031D01*
X4979468Y-13214031D02*
X4969944Y-13185460D01*
X4969944Y-13185460D02*
X4960420Y-13137841D01*
X4960420Y-13137841D02*
X4960420Y-13099746D01*
X4960420Y-13099746D02*
X4969944Y-13052127D01*
X4969944Y-13052127D02*
X4979468Y-13023555D01*
X4979468Y-13023555D02*
X4988991Y-13004508D01*
X4988991Y-13004508D02*
X5008039Y-12975936D01*
X5008039Y-12975936D02*
X5017563Y-12966412D01*
X5198515Y-13194984D02*
X5084230Y-13194984D01*
X5141372Y-13194984D02*
X5141372Y-12994984D01*
X5141372Y-12994984D02*
X5122325Y-13023555D01*
X5122325Y-13023555D02*
X5103277Y-13042603D01*
X5103277Y-13042603D02*
X5084230Y-13052127D01*
X5369944Y-13061650D02*
X5369944Y-13194984D01*
X5322325Y-12985460D02*
X5274706Y-13128317D01*
X5274706Y-13128317D02*
X5398515Y-13128317D01*
X5627087Y-13194984D02*
X5627087Y-12994984D01*
X5712801Y-13194984D02*
X5712801Y-13090222D01*
X5712801Y-13090222D02*
X5703277Y-13071174D01*
X5703277Y-13071174D02*
X5684230Y-13061650D01*
X5684230Y-13061650D02*
X5655658Y-13061650D01*
X5655658Y-13061650D02*
X5636610Y-13071174D01*
X5636610Y-13071174D02*
X5627087Y-13080698D01*
X5836610Y-13194984D02*
X5817563Y-13185460D01*
X5817563Y-13185460D02*
X5808039Y-13175936D01*
X5808039Y-13175936D02*
X5798515Y-13156888D01*
X5798515Y-13156888D02*
X5798515Y-13099746D01*
X5798515Y-13099746D02*
X5808039Y-13080698D01*
X5808039Y-13080698D02*
X5817563Y-13071174D01*
X5817563Y-13071174D02*
X5836610Y-13061650D01*
X5836610Y-13061650D02*
X5865182Y-13061650D01*
X5865182Y-13061650D02*
X5884230Y-13071174D01*
X5884230Y-13071174D02*
X5893753Y-13080698D01*
X5893753Y-13080698D02*
X5903277Y-13099746D01*
X5903277Y-13099746D02*
X5903277Y-13156888D01*
X5903277Y-13156888D02*
X5893753Y-13175936D01*
X5893753Y-13175936D02*
X5884230Y-13185460D01*
X5884230Y-13185460D02*
X5865182Y-13194984D01*
X5865182Y-13194984D02*
X5836610Y-13194984D01*
X6017563Y-13194984D02*
X5998515Y-13185460D01*
X5998515Y-13185460D02*
X5988991Y-13166412D01*
X5988991Y-13166412D02*
X5988991Y-12994984D01*
X6169944Y-13185460D02*
X6150896Y-13194984D01*
X6150896Y-13194984D02*
X6112801Y-13194984D01*
X6112801Y-13194984D02*
X6093753Y-13185460D01*
X6093753Y-13185460D02*
X6084230Y-13166412D01*
X6084230Y-13166412D02*
X6084230Y-13090222D01*
X6084230Y-13090222D02*
X6093753Y-13071174D01*
X6093753Y-13071174D02*
X6112801Y-13061650D01*
X6112801Y-13061650D02*
X6150896Y-13061650D01*
X6150896Y-13061650D02*
X6169944Y-13071174D01*
X6169944Y-13071174D02*
X6179468Y-13090222D01*
X6179468Y-13090222D02*
X6179468Y-13109269D01*
X6179468Y-13109269D02*
X6084230Y-13128317D01*
X6255658Y-13185460D02*
X6274706Y-13194984D01*
X6274706Y-13194984D02*
X6312801Y-13194984D01*
X6312801Y-13194984D02*
X6331849Y-13185460D01*
X6331849Y-13185460D02*
X6341372Y-13166412D01*
X6341372Y-13166412D02*
X6341372Y-13156888D01*
X6341372Y-13156888D02*
X6331849Y-13137841D01*
X6331849Y-13137841D02*
X6312801Y-13128317D01*
X6312801Y-13128317D02*
X6284230Y-13128317D01*
X6284230Y-13128317D02*
X6265182Y-13118793D01*
X6265182Y-13118793D02*
X6255658Y-13099746D01*
X6255658Y-13099746D02*
X6255658Y-13090222D01*
X6255658Y-13090222D02*
X6265182Y-13071174D01*
X6265182Y-13071174D02*
X6284230Y-13061650D01*
X6284230Y-13061650D02*
X6312801Y-13061650D01*
X6312801Y-13061650D02*
X6331849Y-13071174D01*
X6408039Y-13271174D02*
X6417563Y-13261650D01*
X6417563Y-13261650D02*
X6436611Y-13233079D01*
X6436611Y-13233079D02*
X6446134Y-13214031D01*
X6446134Y-13214031D02*
X6455658Y-13185460D01*
X6455658Y-13185460D02*
X6465182Y-13137841D01*
X6465182Y-13137841D02*
X6465182Y-13099746D01*
X6465182Y-13099746D02*
X6455658Y-13052127D01*
X6455658Y-13052127D02*
X6446134Y-13023555D01*
X6446134Y-13023555D02*
X6436611Y-13004508D01*
X6436611Y-13004508D02*
X6417563Y-12975936D01*
X6417563Y-12975936D02*
X6408039Y-12966412D01*
M02*
