M48
; DRILL file {KiCad 9.0.2} date 2025-06-22T12:36:16+0200
; FORMAT={-:-/ absolute / metric / decimal}
; #@! TF.CreationDate,2025-06-22T12:36:16+02:00
; #@! TF.GenerationSoftware,Kicad,Pcbnew,9.0.2
; #@! TF.FileFunction,Plated,1,2,PTH
FMAT,2
METRIC
; #@! TA.AperFunction,Plated,PTH,ViaDrill
T1C0.300
; #@! TA.AperFunction,Plated,PTH,ComponentDrill
T2C0.400
; #@! TA.AperFunction,Plated,PTH,ComponentDrill
T3C0.750
; #@! TA.AperFunction,Plated,PTH,ComponentDrill
T4C0.800
; #@! TA.AperFunction,Plated,PTH,ComponentDrill
T5C1.000
; #@! TA.AperFunction,Plated,PTH,ComponentDrill
T6C1.530
; #@! TA.AperFunction,Plated,PTH,ComponentDrill
T7C1.800
; #@! TA.AperFunction,Plated,PTH,ComponentDrill
T8C1.900
; #@! TA.AperFunction,Plated,PTH,ComponentDrill
T9C3.000
; #@! TA.AperFunction,Plated,PTH,ComponentDrill
T10C3.300
%
G90
G05
T1
X18.75Y-74.75
X18.8Y-49.45
X18.8Y-50.55
X18.8Y-66.45
X18.8Y-67.55
X23.25Y-43.0
X23.25Y-60.0
X25.5Y-52.75
X25.5Y-69.75
X27.25Y-43.0
X27.25Y-60.0
X27.25Y-74.75
X29.5Y-52.75
X29.5Y-69.75
X37.95Y-37.7
X37.95Y-54.7
X37.95Y-71.7
X37.95Y-88.7
X39.05Y-37.7
X39.05Y-54.7
X39.05Y-71.7
X39.05Y-88.7
X54.95Y-28.7
X54.95Y-45.7
X54.95Y-62.7
X54.95Y-79.7
X56.05Y-28.7
X56.05Y-45.7
X56.05Y-62.7
X56.05Y-79.7
X57.5Y-92.5
X60.0Y-93.25
X67.5Y-93.0
X68.85Y-102.6
X68.85Y-104.6
X71.95Y-26.7
X71.95Y-43.7
X71.95Y-60.7
X71.95Y-77.7
X73.05Y-26.7
X73.05Y-43.7
X73.05Y-60.7
X73.05Y-77.7
X78.0Y-93.0
X80.5Y-93.0
X88.95Y-35.7
X88.95Y-52.7
X88.95Y-69.7
X88.95Y-86.7
X90.05Y-35.7
X90.05Y-52.7
X90.05Y-69.7
X90.05Y-86.7
X104.45Y-111.2
X105.0Y-41.75
X105.0Y-58.75
X105.0Y-75.75
X105.55Y-111.2
X111.2Y-30.45
X111.2Y-31.55
X111.2Y-47.45
X111.2Y-48.55
X111.2Y-64.45
X111.2Y-65.55
X111.2Y-81.45
X111.2Y-82.55
T2
X70.38Y-101.738
X70.38Y-108.262
X72.92Y-101.738
X72.92Y-108.262
X75.46Y-101.738
X75.46Y-108.262
T3
X95.0Y-92.0
X95.0Y-94.0
X103.0Y-93.0
X103.0Y-95.0
T4
X77.75Y-100.5
X77.75Y-109.5
T5
X70.38Y-97.38
X70.38Y-112.62
X72.92Y-97.38
X72.92Y-112.62
X75.46Y-97.38
X75.46Y-112.62
X78.0Y-97.38
X78.0Y-112.62
X80.54Y-97.38
X80.54Y-112.62
X83.08Y-97.38
X83.08Y-112.62
X85.62Y-97.38
X85.62Y-112.62
T6
X15.6Y-50.0
X15.6Y-67.0
X17.7Y-45.0
X17.7Y-55.0
X17.7Y-62.0
X17.7Y-72.0
T7
X21.5Y-44.5
X21.5Y-55.5
X21.5Y-61.5
X21.5Y-72.5
T8
X33.0Y-33.0
X33.0Y-50.0
X33.0Y-67.0
X33.0Y-84.0
X44.0Y-33.0
X44.0Y-50.0
X44.0Y-67.0
X44.0Y-84.0
X50.0Y-24.0
X50.0Y-41.0
X50.0Y-58.0
X50.0Y-75.0
X61.0Y-24.0
X61.0Y-41.0
X61.0Y-58.0
X61.0Y-75.0
X67.0Y-22.0
X67.0Y-39.0
X67.0Y-56.0
X67.0Y-73.0
X78.0Y-22.0
X78.0Y-39.0
X78.0Y-56.0
X78.0Y-73.0
X84.0Y-31.0
X84.0Y-48.0
X84.0Y-65.0
X84.0Y-82.0
X95.0Y-31.0
X95.0Y-48.0
X95.0Y-65.0
X95.0Y-82.0
X99.5Y-106.5
X106.5Y-25.5
X106.5Y-36.5
X106.5Y-42.5
X106.5Y-53.5
X106.5Y-59.5
X106.5Y-70.5
X106.5Y-76.5
X106.5Y-87.5
X110.5Y-106.5
T9
X25.25Y-45.0
X25.25Y-55.0
X25.25Y-62.0
X25.25Y-72.0
X27.45Y-50.0
X27.45Y-67.0
X33.5Y-29.25
X33.5Y-46.25
X33.5Y-63.25
X33.5Y-80.25
X38.5Y-27.05
X38.5Y-44.05
X38.5Y-61.05
X38.5Y-78.05
X43.5Y-29.25
X43.5Y-46.25
X43.5Y-63.25
X43.5Y-80.25
X50.5Y-20.25
X50.5Y-37.25
X50.5Y-54.25
X50.5Y-71.25
X55.5Y-18.05
X55.5Y-35.05
X55.5Y-52.05
X55.5Y-69.05
X60.5Y-20.25
X60.5Y-37.25
X60.5Y-54.25
X60.5Y-71.25
X67.5Y-18.25
X67.5Y-35.25
X67.5Y-52.25
X67.5Y-69.25
X72.5Y-16.05
X72.5Y-33.05
X72.5Y-50.05
X72.5Y-67.05
X77.5Y-18.25
X77.5Y-35.25
X77.5Y-52.25
X77.5Y-69.25
X84.5Y-27.25
X84.5Y-44.25
X84.5Y-61.25
X84.5Y-78.25
X89.5Y-25.05
X89.5Y-42.05
X89.5Y-59.05
X89.5Y-76.05
X94.5Y-27.25
X94.5Y-44.25
X94.5Y-61.25
X94.5Y-78.25
X100.0Y-102.75
X100.55Y-31.0
X100.55Y-48.0
X100.55Y-65.0
X100.55Y-82.0
X102.75Y-26.0
X102.75Y-36.0
X102.75Y-43.0
X102.75Y-53.0
X102.75Y-60.0
X102.75Y-70.0
X102.75Y-77.0
X102.75Y-87.0
X105.0Y-100.55
X110.0Y-102.75
T10
X21.5Y-50.0
X21.5Y-67.0
X38.5Y-33.0
X38.5Y-50.0
X38.5Y-67.0
X38.5Y-84.0
X55.5Y-24.0
X55.5Y-41.0
X55.5Y-58.0
X55.5Y-75.0
X72.5Y-22.0
X72.5Y-39.0
X72.5Y-56.0
X72.5Y-73.0
X89.5Y-31.0
X89.5Y-48.0
X89.5Y-65.0
X89.5Y-82.0
X105.0Y-106.5
X106.5Y-31.0
X106.5Y-48.0
X106.5Y-65.0
X106.5Y-82.0
M30
