M48
; DRILL file {KiCad 9.0.2} date 2025-05-25T15:49:36+0200
; FORMAT={-:-/ absolute / metric / decimal}
; #@! TF.CreationDate,2025-05-25T15:49:36+02:00
; #@! TF.GenerationSoftware,Kicad,Pcbnew,9.0.2
; #@! TF.FileFunction,Plated,1,2,PTH
FMAT,2
METRIC
; #@! TA.AperFunction,Plated,PTH,ViaDrill
T1C0.300
; #@! TA.AperFunction,Plated,PTH,ComponentDrill
T2C0.300
; #@! TA.AperFunction,Plated,PTH,ComponentDrill
T3C0.400
; #@! TA.AperFunction,Plated,PTH,ComponentDrill
T4C0.991
; #@! TA.AperFunction,Plated,PTH,ComponentDrill
T5C1.000
%
G90
G05
T1
X23.575Y-51.0
X23.575Y-68.0
X24.375Y-51.0
X24.375Y-68.0
X26.5Y-59.5
X26.5Y-85.0
X40.575Y-34.0
X40.575Y-51.0
X40.575Y-68.0
X40.575Y-85.0
X41.375Y-34.0
X41.375Y-51.0
X41.375Y-68.0
X41.375Y-85.0
X43.45Y-42.45
X43.5Y-59.5
X43.5Y-76.5
X44.5Y-94.5
X57.575Y-26.0
X57.575Y-43.0
X57.575Y-60.0
X57.575Y-77.0
X58.375Y-26.0
X58.375Y-43.0
X58.375Y-60.0
X58.375Y-77.0
X60.5Y-34.5
X60.5Y-51.5
X60.5Y-68.5
X60.5Y-86.5
X74.575Y-24.0
X74.575Y-41.0
X74.575Y-58.0
X74.575Y-75.0
X75.375Y-24.0
X75.375Y-41.0
X75.375Y-58.0
X75.375Y-75.0
X77.5Y-32.5
X77.5Y-49.5
X77.5Y-66.5
X77.5Y-83.5
X91.575Y-32.0
X91.575Y-49.0
X91.575Y-66.0
X91.575Y-83.0
X92.375Y-32.0
X92.375Y-49.0
X92.375Y-66.0
X92.375Y-83.0
X94.5Y-40.5
X94.5Y-57.5
X94.5Y-74.5
X94.5Y-93.5
X108.575Y-32.0
X108.575Y-49.0
X108.575Y-66.0
X108.575Y-83.0
X108.575Y-104.0
X109.375Y-32.0
X109.375Y-49.0
X109.375Y-66.0
X109.375Y-83.0
X109.375Y-104.0
X111.5Y-40.5
X111.5Y-57.5
X111.5Y-74.5
X111.5Y-92.0
T2
X20.5Y-54.0
X20.5Y-71.0
X24.0Y-54.0
X24.0Y-71.0
X37.5Y-37.0
X37.5Y-54.0
X37.5Y-71.0
X37.5Y-88.0
X41.0Y-37.0
X41.0Y-54.0
X41.0Y-71.0
X41.0Y-88.0
X54.5Y-29.0
X54.5Y-46.0
X54.5Y-63.0
X54.5Y-80.0
X58.0Y-29.0
X58.0Y-46.0
X58.0Y-63.0
X58.0Y-80.0
X71.5Y-27.0
X71.5Y-44.0
X71.5Y-61.0
X71.5Y-78.0
X75.0Y-27.0
X75.0Y-44.0
X75.0Y-61.0
X75.0Y-78.0
X88.5Y-35.0
X88.5Y-52.0
X88.5Y-69.0
X88.5Y-86.0
X92.0Y-35.0
X92.0Y-52.0
X92.0Y-69.0
X92.0Y-86.0
X105.5Y-35.0
X105.5Y-52.0
X105.5Y-69.0
X105.5Y-86.0
X105.5Y-107.0
X109.0Y-35.0
X109.0Y-52.0
X109.0Y-69.0
X109.0Y-86.0
X109.0Y-107.0
T3
X47.88Y-99.738
X47.88Y-106.262
X50.42Y-99.738
X50.42Y-106.262
X52.96Y-99.738
X52.96Y-106.262
T4
X17.5Y-47.19
X17.5Y-54.81
X17.5Y-64.19
X17.5Y-71.81
X34.5Y-30.19
X34.5Y-37.81
X34.5Y-47.19
X34.5Y-54.81
X34.5Y-64.19
X34.5Y-71.81
X34.5Y-81.19
X34.5Y-88.81
X51.5Y-22.19
X51.5Y-29.81
X51.5Y-39.19
X51.5Y-46.81
X51.5Y-56.19
X51.5Y-63.81
X51.5Y-73.19
X51.5Y-80.81
X68.5Y-20.19
X68.5Y-27.81
X68.5Y-37.19
X68.5Y-44.81
X68.5Y-54.19
X68.5Y-61.81
X68.5Y-71.19
X68.5Y-78.81
X85.5Y-28.19
X85.5Y-35.81
X85.5Y-45.19
X85.5Y-52.81
X85.5Y-62.19
X85.5Y-69.81
X85.5Y-79.19
X85.5Y-86.81
X102.5Y-28.19
X102.5Y-35.81
X102.5Y-45.19
X102.5Y-52.81
X102.5Y-62.19
X102.5Y-69.81
X102.5Y-79.19
X102.5Y-86.81
X102.5Y-100.19
X102.5Y-107.81
T5
X47.88Y-95.38
X47.88Y-110.62
X50.42Y-95.38
X50.42Y-110.62
X52.96Y-95.38
X52.96Y-110.62
X55.5Y-95.38
X55.5Y-110.62
X58.04Y-95.38
X58.04Y-110.62
X60.58Y-95.38
X60.58Y-110.62
X63.12Y-95.38
X63.12Y-110.62
M30
