%TF.GenerationSoftware,KiCad,Pcbnew,9.0.2*%
%TF.CreationDate,2025-06-22T12:36:18+02:00*%
%TF.ProjectId,kicad,6b696361-642e-46b6-9963-61645f706362,rev?*%
%TF.SameCoordinates,Original*%
%TF.FileFunction,Soldermask,Top*%
%TF.FilePolarity,Negative*%
%FSLAX46Y46*%
G04 Gerber Fmt 4.6, Leading zero omitted, Abs format (unit mm)*
G04 Created by KiCad (PCBNEW 9.0.2) date 2025-06-22 12:36:18*
%MOMM*%
%LPD*%
G01*
G04 APERTURE LIST*
G04 Aperture macros list*
%AMRoundRect*
0 Rectangle with rounded corners*
0 $1 Rounding radius*
0 $2 $3 $4 $5 $6 $7 $8 $9 X,Y pos of 4 corners*
0 Add a 4 corners polygon primitive as box body*
4,1,4,$2,$3,$4,$5,$6,$7,$8,$9,$2,$3,0*
0 Add four circle primitives for the rounded corners*
1,1,$1+$1,$2,$3*
1,1,$1+$1,$4,$5*
1,1,$1+$1,$6,$7*
1,1,$1+$1,$8,$9*
0 Add four rect primitives between the rounded corners*
20,1,$1+$1,$2,$3,$4,$5,0*
20,1,$1+$1,$4,$5,$6,$7,0*
20,1,$1+$1,$6,$7,$8,$9,0*
20,1,$1+$1,$8,$9,$2,$3,0*%
%AMFreePoly0*
4,1,16,-0.214645,0.660355,-0.210957,0.656235,0.289043,0.031235,0.299694,-0.005522,0.289043,-0.031235,-0.210957,-0.656235,-0.244478,-0.674694,-0.250000,-0.675000,-0.500000,-0.675000,-0.535355,-0.660355,-0.550000,-0.625000,-0.550000,0.625000,-0.535355,0.660355,-0.500000,0.675000,-0.250000,0.675000,-0.214645,0.660355,-0.214645,0.660355,$1*%
%AMFreePoly1*
4,1,16,0.535355,0.660355,0.550000,0.625000,0.550000,-0.625000,0.535355,-0.660355,0.500000,-0.675000,-0.650000,-0.675000,-0.685355,-0.660355,-0.700000,-0.625000,-0.689043,-0.593765,-0.214031,0.000000,-0.689043,0.593765,-0.699694,0.630522,-0.681235,0.664043,-0.650000,0.675000,0.500000,0.675000,0.535355,0.660355,0.535355,0.660355,$1*%
G04 Aperture macros list end*
%ADD10C,3.700000*%
%ADD11C,2.300000*%
%ADD12C,3.400000*%
%ADD13RoundRect,0.225000X-1.150000X-0.900000X1.150000X-0.900000X1.150000X0.900000X-1.150000X0.900000X0*%
%ADD14RoundRect,0.215000X-1.085000X-0.860000X1.085000X-0.860000X1.085000X0.860000X-1.085000X0.860000X0*%
%ADD15C,2.200000*%
%ADD16RoundRect,0.225000X-0.900000X1.150000X-0.900000X-1.150000X0.900000X-1.150000X0.900000X1.150000X0*%
%ADD17RoundRect,0.215000X-0.860000X1.085000X-0.860000X-1.085000X0.860000X-1.085000X0.860000X1.085000X0*%
%ADD18C,2.600000*%
%ADD19RoundRect,0.225000X0.900000X-1.150000X0.900000X1.150000X-0.900000X1.150000X-0.900000X-1.150000X0*%
%ADD20RoundRect,0.215000X0.860000X-1.085000X0.860000X1.085000X-0.860000X1.085000X-0.860000X-1.085000X0*%
%ADD21RoundRect,0.050000X-0.600000X-0.600000X0.600000X-0.600000X0.600000X0.600000X-0.600000X0.600000X0*%
%ADD22RoundRect,0.050000X-0.600000X0.600000X-0.600000X-0.600000X0.600000X-0.600000X0.600000X0.600000X0*%
%ADD23RoundRect,0.050000X0.600000X-0.600000X0.600000X0.600000X-0.600000X0.600000X-0.600000X-0.600000X0*%
%ADD24O,1.900000X2.850000*%
%ADD25C,0.900000*%
%ADD26FreePoly0,90.000000*%
%ADD27FreePoly1,90.000000*%
%ADD28FreePoly1,270.000000*%
%ADD29FreePoly0,270.000000*%
%ADD30RoundRect,0.050000X-0.750000X-0.750000X0.750000X-0.750000X0.750000X0.750000X-0.750000X0.750000X0*%
%ADD31C,1.900000*%
%ADD32RoundRect,0.260000X-0.665000X0.390000X-0.665000X-0.390000X0.665000X-0.390000X0.665000X0.390000X0*%
%ADD33O,1.850000X1.300000*%
%ADD34RoundRect,0.050000X-0.500000X-0.400000X0.500000X-0.400000X0.500000X0.400000X-0.500000X0.400000X0*%
%ADD35RoundRect,0.050000X-0.350000X-0.750000X0.350000X-0.750000X0.350000X0.750000X-0.350000X0.750000X0*%
%ADD36C,1.000000*%
%ADD37C,3.300000*%
G04 APERTURE END LIST*
D10*
%TO.C,S1*%
X38500000Y-84000000D03*
D11*
X44000000Y-84000000D03*
X33000000Y-84000000D03*
D12*
X38500000Y-78050000D03*
X33500000Y-80250000D03*
D13*
X41745000Y-78050000D03*
D14*
X30252500Y-80250000D03*
D12*
X43500000Y-80250000D03*
%TD*%
D10*
%TO.C,S2*%
X38500000Y-67000000D03*
D11*
X44000000Y-67000000D03*
X33000000Y-67000000D03*
D12*
X38500000Y-61050000D03*
X33500000Y-63250000D03*
D13*
X41745000Y-61050000D03*
D14*
X30252500Y-63250000D03*
D12*
X43500000Y-63250000D03*
%TD*%
D10*
%TO.C,S3*%
X38500000Y-50000000D03*
D11*
X44000000Y-50000000D03*
X33000000Y-50000000D03*
D12*
X38500000Y-44050000D03*
X33500000Y-46250000D03*
D13*
X41745000Y-44050000D03*
D14*
X30252500Y-46250000D03*
D12*
X43500000Y-46250000D03*
%TD*%
D10*
%TO.C,S4*%
X38500000Y-33000000D03*
D11*
X44000000Y-33000000D03*
X33000000Y-33000000D03*
D12*
X38500000Y-27050000D03*
X33500000Y-29250000D03*
D13*
X41745000Y-27050000D03*
D14*
X30252500Y-29250000D03*
D12*
X43500000Y-29250000D03*
%TD*%
D10*
%TO.C,S5*%
X55500000Y-75000000D03*
D11*
X61000000Y-75000000D03*
X50000000Y-75000000D03*
D12*
X55500000Y-69050000D03*
X50500000Y-71250000D03*
D13*
X58745000Y-69050000D03*
D14*
X47252500Y-71250000D03*
D12*
X60500000Y-71250000D03*
%TD*%
D10*
%TO.C,S6*%
X55500000Y-58000000D03*
D11*
X61000000Y-58000000D03*
X50000000Y-58000000D03*
D12*
X55500000Y-52050000D03*
X50500000Y-54250000D03*
D13*
X58745000Y-52050000D03*
D14*
X47252500Y-54250000D03*
D12*
X60500000Y-54250000D03*
%TD*%
D10*
%TO.C,S7*%
X55500000Y-41000000D03*
D11*
X61000000Y-41000000D03*
X50000000Y-41000000D03*
D12*
X55500000Y-35050000D03*
X50500000Y-37250000D03*
D13*
X58745000Y-35050000D03*
D14*
X47252500Y-37250000D03*
D12*
X60500000Y-37250000D03*
%TD*%
D10*
%TO.C,S8*%
X55500000Y-24000000D03*
D11*
X61000000Y-24000000D03*
X50000000Y-24000000D03*
D12*
X55500000Y-18050000D03*
X50500000Y-20250000D03*
D13*
X58745000Y-18050000D03*
D14*
X47252500Y-20250000D03*
D12*
X60500000Y-20250000D03*
%TD*%
D10*
%TO.C,S9*%
X72500000Y-73000000D03*
D11*
X78000000Y-73000000D03*
X67000000Y-73000000D03*
D12*
X72500000Y-67050000D03*
X67500000Y-69250000D03*
D13*
X75745000Y-67050000D03*
D14*
X64252500Y-69250000D03*
D12*
X77500000Y-69250000D03*
%TD*%
D10*
%TO.C,S10*%
X72500000Y-56000000D03*
D11*
X78000000Y-56000000D03*
X67000000Y-56000000D03*
D12*
X72500000Y-50050000D03*
X67500000Y-52250000D03*
D13*
X75745000Y-50050000D03*
D14*
X64252500Y-52250000D03*
D12*
X77500000Y-52250000D03*
%TD*%
D10*
%TO.C,S11*%
X72500000Y-39000000D03*
D11*
X78000000Y-39000000D03*
X67000000Y-39000000D03*
D12*
X72500000Y-33050000D03*
X67500000Y-35250000D03*
D13*
X75745000Y-33050000D03*
D14*
X64252500Y-35250000D03*
D12*
X77500000Y-35250000D03*
%TD*%
D10*
%TO.C,S12*%
X72500000Y-22000000D03*
D11*
X78000000Y-22000000D03*
X67000000Y-22000000D03*
D12*
X72500000Y-16050000D03*
X67500000Y-18250000D03*
D13*
X75745000Y-16050000D03*
D14*
X64252500Y-18250000D03*
D12*
X77500000Y-18250000D03*
%TD*%
D10*
%TO.C,S13*%
X89500000Y-82000000D03*
D11*
X95000000Y-82000000D03*
X84000000Y-82000000D03*
D12*
X89500000Y-76050000D03*
X84500000Y-78250000D03*
D13*
X92745000Y-76050000D03*
D14*
X81252500Y-78250000D03*
D12*
X94500000Y-78250000D03*
%TD*%
D10*
%TO.C,S14*%
X89500000Y-65000000D03*
D11*
X95000000Y-65000000D03*
X84000000Y-65000000D03*
D12*
X89500000Y-59050000D03*
X84500000Y-61250000D03*
D13*
X92745000Y-59050000D03*
D14*
X81252500Y-61250000D03*
D12*
X94500000Y-61250000D03*
%TD*%
D10*
%TO.C,S15*%
X89500000Y-48000000D03*
D11*
X95000000Y-48000000D03*
X84000000Y-48000000D03*
D12*
X89500000Y-42050000D03*
X84500000Y-44250000D03*
D13*
X92745000Y-42050000D03*
D14*
X81252500Y-44250000D03*
D12*
X94500000Y-44250000D03*
%TD*%
D10*
%TO.C,S16*%
X89500000Y-31000000D03*
D11*
X95000000Y-31000000D03*
X84000000Y-31000000D03*
D12*
X89500000Y-25050000D03*
X84500000Y-27250000D03*
D13*
X92745000Y-25050000D03*
D14*
X81252500Y-27250000D03*
D12*
X94500000Y-27250000D03*
%TD*%
D10*
%TO.C,S17*%
X105000000Y-106500000D03*
D11*
X110500000Y-106500000D03*
X99500000Y-106500000D03*
D12*
X105000000Y-100550000D03*
X100000000Y-102750000D03*
D13*
X108245000Y-100550000D03*
D14*
X96752500Y-102750000D03*
D12*
X110000000Y-102750000D03*
%TD*%
D10*
%TO.C,S18*%
X21500000Y-67000000D03*
D15*
X21500000Y-72500000D03*
X21500000Y-61500000D03*
D12*
X27450000Y-67000000D03*
X25250000Y-62000000D03*
D16*
X27450000Y-70245000D03*
D17*
X25250000Y-58752500D03*
D12*
X25250000Y-72000000D03*
D18*
X15600000Y-67000000D03*
X17700000Y-72000000D03*
X17700000Y-62000000D03*
%TD*%
D10*
%TO.C,S19*%
X21500000Y-50000000D03*
D15*
X21500000Y-55500000D03*
X21500000Y-44500000D03*
D12*
X27450000Y-50000000D03*
X25250000Y-45000000D03*
D16*
X27450000Y-53245000D03*
D17*
X25250000Y-41752500D03*
D12*
X25250000Y-55000000D03*
D18*
X15600000Y-50000000D03*
X17700000Y-55000000D03*
X17700000Y-45000000D03*
%TD*%
D10*
%TO.C,S20*%
X106500000Y-82000000D03*
D11*
X106500000Y-76500000D03*
X106500000Y-87500000D03*
D12*
X100550000Y-82000000D03*
X102750000Y-87000000D03*
D19*
X100550000Y-78755000D03*
D20*
X102750000Y-90247500D03*
D12*
X102750000Y-77000000D03*
%TD*%
D10*
%TO.C,S21*%
X106500000Y-65000000D03*
D11*
X106500000Y-59500000D03*
X106500000Y-70500000D03*
D12*
X100550000Y-65000000D03*
X102750000Y-70000000D03*
D19*
X100550000Y-61755000D03*
D20*
X102750000Y-73247500D03*
D12*
X102750000Y-60000000D03*
%TD*%
D10*
%TO.C,S22*%
X106500000Y-48000000D03*
D11*
X106500000Y-42500000D03*
X106500000Y-53500000D03*
D12*
X100550000Y-48000000D03*
X102750000Y-53000000D03*
D19*
X100550000Y-44755000D03*
D20*
X102750000Y-56247500D03*
D12*
X102750000Y-43000000D03*
%TD*%
D10*
%TO.C,S23*%
X106500000Y-31000000D03*
D11*
X106500000Y-25500000D03*
X106500000Y-36500000D03*
D12*
X100550000Y-31000000D03*
X102750000Y-36000000D03*
D19*
X100550000Y-27755000D03*
D20*
X102750000Y-39247500D03*
D12*
X102750000Y-26000000D03*
%TD*%
D21*
%TO.C,D1*%
X36550000Y-88700000D03*
X40450000Y-88700000D03*
%TD*%
%TO.C,D2*%
X36550000Y-71700000D03*
X40450000Y-71700000D03*
%TD*%
%TO.C,D3*%
X36550000Y-54700000D03*
X40450000Y-54700000D03*
%TD*%
%TO.C,D4*%
X36550000Y-37700000D03*
X40450000Y-37700000D03*
%TD*%
%TO.C,D5*%
X53550000Y-79700000D03*
X57450000Y-79700000D03*
%TD*%
%TO.C,D6*%
X53550000Y-62700000D03*
X57450000Y-62700000D03*
%TD*%
%TO.C,D7*%
X53550000Y-45700000D03*
X57450000Y-45700000D03*
%TD*%
%TO.C,D8*%
X53550000Y-28700000D03*
X57450000Y-28700000D03*
%TD*%
%TO.C,D9*%
X70550000Y-77700000D03*
X74450000Y-77700000D03*
%TD*%
%TO.C,D10*%
X70550000Y-60700000D03*
X74450000Y-60700000D03*
%TD*%
%TO.C,D11*%
X70550000Y-43700000D03*
X74450000Y-43700000D03*
%TD*%
%TO.C,D12*%
X70550000Y-26700000D03*
X74450000Y-26700000D03*
%TD*%
%TO.C,D13*%
X87550000Y-86700000D03*
X91450000Y-86700000D03*
%TD*%
%TO.C,D14*%
X87550000Y-69700000D03*
X91450000Y-69700000D03*
%TD*%
%TO.C,D15*%
X87550000Y-52700000D03*
X91450000Y-52700000D03*
%TD*%
%TO.C,D16*%
X87550000Y-35700000D03*
X91450000Y-35700000D03*
%TD*%
%TO.C,D17*%
X103050000Y-111200000D03*
X106950000Y-111200000D03*
%TD*%
D22*
%TO.C,D18*%
X18800000Y-65050000D03*
X18800000Y-68950000D03*
%TD*%
%TO.C,D19*%
X18800000Y-48050000D03*
X18800000Y-51950000D03*
%TD*%
D23*
%TO.C,D20*%
X111200000Y-83950000D03*
X111200000Y-80050000D03*
%TD*%
%TO.C,D21*%
X111200000Y-66950000D03*
X111200000Y-63050000D03*
%TD*%
%TO.C,D22*%
X111200000Y-49950000D03*
X111200000Y-46050000D03*
%TD*%
%TO.C,D23*%
X111200000Y-32950000D03*
X111200000Y-29050000D03*
%TD*%
D24*
%TO.C,*%
X70380000Y-113095000D03*
X70380000Y-96905000D03*
D25*
X70380000Y-108262000D03*
D26*
X70380000Y-110620000D03*
D27*
X70380000Y-109775000D03*
D25*
X70380000Y-101738000D03*
D28*
X70380000Y-100225000D03*
D29*
X70380000Y-99380000D03*
D24*
X72920000Y-113095000D03*
X72920000Y-96905000D03*
D25*
X72920000Y-108262000D03*
D26*
X72920000Y-110620000D03*
D27*
X72920000Y-109775000D03*
D25*
X72920000Y-101738000D03*
D28*
X72920000Y-100225000D03*
D29*
X72920000Y-99380000D03*
D24*
X75460000Y-113095000D03*
X75460000Y-96905000D03*
D25*
X75460000Y-108262000D03*
D26*
X75460000Y-110620000D03*
D27*
X75460000Y-109775000D03*
D25*
X75460000Y-101738000D03*
D28*
X75460000Y-100225000D03*
D29*
X75460000Y-99380000D03*
D24*
X78000000Y-113095000D03*
X78000000Y-96905000D03*
X80540000Y-113095000D03*
X80540000Y-96905000D03*
X83080000Y-113095000D03*
X83080000Y-96905000D03*
X85620000Y-113095000D03*
X85620000Y-96905000D03*
%TD*%
D30*
%TO.C,PAD1*%
X77750000Y-101500000D03*
%TD*%
D31*
%TO.C,H1*%
X77750000Y-100500000D03*
%TD*%
D30*
%TO.C,PAD2*%
X77750000Y-108500000D03*
%TD*%
D31*
%TO.C,H2*%
X77750000Y-109500000D03*
%TD*%
D32*
%TO.C,JST1*%
X103000000Y-95000000D03*
D33*
X103000000Y-93000000D03*
%TD*%
D32*
%TO.C,JST2*%
X95000000Y-94000000D03*
D33*
X95000000Y-92000000D03*
%TD*%
D34*
%TO.C,PWR1*%
X61150000Y-95125000D03*
X61150000Y-92915000D03*
X53850000Y-92915000D03*
X53850000Y-95125000D03*
D35*
X55250000Y-92265000D03*
X58250000Y-92265000D03*
X59750000Y-92265000D03*
D36*
X59000000Y-94025000D03*
X56000000Y-94025000D03*
%TD*%
D11*
%TO.C,MH1*%
X90000000Y-97000000D03*
%TD*%
%TO.C,MH2*%
X90000000Y-113000000D03*
%TD*%
%TO.C,MH3*%
X66000000Y-97000000D03*
%TD*%
%TO.C,MH4*%
X66000000Y-113000000D03*
%TD*%
%TO.C,MH5*%
X21500000Y-40500000D03*
%TD*%
%TO.C,MH6*%
X38500000Y-23500000D03*
%TD*%
%TO.C,MH7*%
X89500000Y-21500000D03*
%TD*%
%TO.C,MH8*%
X106500000Y-21500000D03*
%TD*%
%TO.C,MH9*%
X21500000Y-76500000D03*
%TD*%
%TO.C,MH10*%
X72500000Y-82500000D03*
%TD*%
%TO.C,MH11*%
X106500000Y-91500000D03*
%TD*%
%TO.C,MH12*%
X95000000Y-113000000D03*
%TD*%
%TO.C,MH13*%
X50000000Y-93000000D03*
%TD*%
D37*
%TO.C,MH14*%
X112500000Y-16000000D03*
%TD*%
%TO.C,MH15*%
X21500000Y-80500000D03*
%TD*%
%TO.C,MH16*%
X21500000Y-36500000D03*
%TD*%
%TO.C,MH17*%
X112500000Y-113000000D03*
%TD*%
%TO.C,MH18*%
X42250000Y-16000000D03*
%TD*%
M02*
