%TF.GenerationSoftware,KiCad,Pcbnew,9.0.2*%
%TF.CreationDate,2025-06-22T12:36:17+02:00*%
%TF.ProjectId,kicad,6b696361-642e-46b6-9963-61645f706362,rev?*%
%TF.SameCoordinates,Original*%
%TF.FileFunction,Paste,Top*%
%TF.FilePolarity,Positive*%
%FSLAX46Y46*%
G04 Gerber Fmt 4.6, Leading zero omitted, Abs format (unit mm)*
G04 Created by KiCad (PCBNEW 9.0.2) date 2025-06-22 12:36:17*
%MOMM*%
%LPD*%
G01*
G04 APERTURE LIST*
G04 Aperture macros list*
%AMRoundRect*
0 Rectangle with rounded corners*
0 $1 Rounding radius*
0 $2 $3 $4 $5 $6 $7 $8 $9 X,Y pos of 4 corners*
0 Add a 4 corners polygon primitive as box body*
4,1,4,$2,$3,$4,$5,$6,$7,$8,$9,$2,$3,0*
0 Add four circle primitives for the rounded corners*
1,1,$1+$1,$2,$3*
1,1,$1+$1,$4,$5*
1,1,$1+$1,$6,$7*
1,1,$1+$1,$8,$9*
0 Add four rect primitives between the rounded corners*
20,1,$1+$1,$2,$3,$4,$5,0*
20,1,$1+$1,$4,$5,$6,$7,0*
20,1,$1+$1,$6,$7,$8,$9,0*
20,1,$1+$1,$8,$9,$2,$3,0*%
G04 Aperture macros list end*
%ADD10RoundRect,0.215000X-1.110000X-0.860000X1.110000X-0.860000X1.110000X0.860000X-1.110000X0.860000X0*%
%ADD11RoundRect,0.215000X-1.085000X-0.860000X1.085000X-0.860000X1.085000X0.860000X-1.085000X0.860000X0*%
%ADD12RoundRect,0.215000X-0.860000X1.110000X-0.860000X-1.110000X0.860000X-1.110000X0.860000X1.110000X0*%
%ADD13RoundRect,0.215000X-0.860000X1.085000X-0.860000X-1.085000X0.860000X-1.085000X0.860000X1.085000X0*%
%ADD14RoundRect,0.215000X0.860000X-1.110000X0.860000X1.110000X-0.860000X1.110000X-0.860000X-1.110000X0*%
%ADD15RoundRect,0.215000X0.860000X-1.085000X0.860000X1.085000X-0.860000X1.085000X-0.860000X-1.085000X0*%
%ADD16R,1.200000X1.200000*%
%ADD17R,1.500000X1.500000*%
%ADD18R,1.000000X0.800000*%
%ADD19R,0.700000X1.500000*%
G04 APERTURE END LIST*
D10*
%TO.C,S1*%
X41745000Y-78050000D03*
D11*
X30252500Y-80250000D03*
%TD*%
D10*
%TO.C,S2*%
X41745000Y-61050000D03*
D11*
X30252500Y-63250000D03*
%TD*%
D10*
%TO.C,S3*%
X41745000Y-44050000D03*
D11*
X30252500Y-46250000D03*
%TD*%
D10*
%TO.C,S4*%
X41745000Y-27050000D03*
D11*
X30252500Y-29250000D03*
%TD*%
D10*
%TO.C,S5*%
X58745000Y-69050000D03*
D11*
X47252500Y-71250000D03*
%TD*%
D10*
%TO.C,S6*%
X58745000Y-52050000D03*
D11*
X47252500Y-54250000D03*
%TD*%
D10*
%TO.C,S7*%
X58745000Y-35050000D03*
D11*
X47252500Y-37250000D03*
%TD*%
D10*
%TO.C,S8*%
X58745000Y-18050000D03*
D11*
X47252500Y-20250000D03*
%TD*%
D10*
%TO.C,S9*%
X75745000Y-67050000D03*
D11*
X64252500Y-69250000D03*
%TD*%
D10*
%TO.C,S10*%
X75745000Y-50050000D03*
D11*
X64252500Y-52250000D03*
%TD*%
D10*
%TO.C,S11*%
X75745000Y-33050000D03*
D11*
X64252500Y-35250000D03*
%TD*%
D10*
%TO.C,S12*%
X75745000Y-16050000D03*
D11*
X64252500Y-18250000D03*
%TD*%
D10*
%TO.C,S13*%
X92745000Y-76050000D03*
D11*
X81252500Y-78250000D03*
%TD*%
D10*
%TO.C,S14*%
X92745000Y-59050000D03*
D11*
X81252500Y-61250000D03*
%TD*%
D10*
%TO.C,S15*%
X92745000Y-42050000D03*
D11*
X81252500Y-44250000D03*
%TD*%
D10*
%TO.C,S16*%
X92745000Y-25050000D03*
D11*
X81252500Y-27250000D03*
%TD*%
D10*
%TO.C,S17*%
X108245000Y-100550000D03*
D11*
X96752500Y-102750000D03*
%TD*%
D12*
%TO.C,S18*%
X27450000Y-70245000D03*
D13*
X25250000Y-58752500D03*
%TD*%
D12*
%TO.C,S19*%
X27450000Y-53245000D03*
D13*
X25250000Y-41752500D03*
%TD*%
D14*
%TO.C,S20*%
X100550000Y-78755000D03*
D15*
X102750000Y-90247500D03*
%TD*%
D14*
%TO.C,S21*%
X100550000Y-61755000D03*
D15*
X102750000Y-73247500D03*
%TD*%
D14*
%TO.C,S22*%
X100550000Y-44755000D03*
D15*
X102750000Y-56247500D03*
%TD*%
D14*
%TO.C,S23*%
X100550000Y-27755000D03*
D15*
X102750000Y-39247500D03*
%TD*%
D16*
%TO.C,D1*%
X36550000Y-88700000D03*
X40450000Y-88700000D03*
%TD*%
%TO.C,D2*%
X36550000Y-71700000D03*
X40450000Y-71700000D03*
%TD*%
%TO.C,D3*%
X36550000Y-54700000D03*
X40450000Y-54700000D03*
%TD*%
%TO.C,D4*%
X36550000Y-37700000D03*
X40450000Y-37700000D03*
%TD*%
%TO.C,D5*%
X53550000Y-79700000D03*
X57450000Y-79700000D03*
%TD*%
%TO.C,D6*%
X53550000Y-62700000D03*
X57450000Y-62700000D03*
%TD*%
%TO.C,D7*%
X53550000Y-45700000D03*
X57450000Y-45700000D03*
%TD*%
%TO.C,D8*%
X53550000Y-28700000D03*
X57450000Y-28700000D03*
%TD*%
%TO.C,D9*%
X70550000Y-77700000D03*
X74450000Y-77700000D03*
%TD*%
%TO.C,D10*%
X70550000Y-60700000D03*
X74450000Y-60700000D03*
%TD*%
%TO.C,D11*%
X70550000Y-43700000D03*
X74450000Y-43700000D03*
%TD*%
%TO.C,D12*%
X70550000Y-26700000D03*
X74450000Y-26700000D03*
%TD*%
%TO.C,D13*%
X87550000Y-86700000D03*
X91450000Y-86700000D03*
%TD*%
%TO.C,D14*%
X87550000Y-69700000D03*
X91450000Y-69700000D03*
%TD*%
%TO.C,D15*%
X87550000Y-52700000D03*
X91450000Y-52700000D03*
%TD*%
%TO.C,D16*%
X87550000Y-35700000D03*
X91450000Y-35700000D03*
%TD*%
%TO.C,D17*%
X103050000Y-111200000D03*
X106950000Y-111200000D03*
%TD*%
%TO.C,D18*%
X18800000Y-65050000D03*
X18800000Y-68950000D03*
%TD*%
%TO.C,D19*%
X18800000Y-48050000D03*
X18800000Y-51950000D03*
%TD*%
%TO.C,D20*%
X111200000Y-83950000D03*
X111200000Y-80050000D03*
%TD*%
%TO.C,D21*%
X111200000Y-66950000D03*
X111200000Y-63050000D03*
%TD*%
%TO.C,D22*%
X111200000Y-49950000D03*
X111200000Y-46050000D03*
%TD*%
%TO.C,D23*%
X111200000Y-32950000D03*
X111200000Y-29050000D03*
%TD*%
D17*
%TO.C,PAD1*%
X77750000Y-101500000D03*
%TD*%
%TO.C,PAD2*%
X77750000Y-108500000D03*
%TD*%
D18*
%TO.C,PWR1*%
X61150000Y-95125000D03*
X61150000Y-92915000D03*
X53850000Y-92915000D03*
X53850000Y-95125000D03*
D19*
X55250000Y-92265000D03*
X58250000Y-92265000D03*
X59750000Y-92265000D03*
%TD*%
M02*
