%TF.GenerationSoftware,KiCad,Pcbnew,9.0.2*%
%TF.CreationDate,2025-05-25T15:49:36+02:00*%
%TF.ProjectId,kicad,6b696361-642e-46b6-9963-61645f706362,rev?*%
%TF.SameCoordinates,Original*%
%TF.FileFunction,Drillmap*%
%TF.FilePolarity,Positive*%
%FSLAX45Y45*%
G04 Gerber Fmt 4.5, Leading zero omitted, Abs format (unit mm)*
G04 Created by KiCad (PCBNEW 9.0.2) date 2025-05-25 15:49:36*
%MOMM*%
%LPD*%
G01*
G04 APERTURE LIST*
%ADD10C,0.150000*%
%ADD11C,0.200000*%
%ADD12C,0.190000*%
%ADD13C,0.220000*%
%ADD14C,0.300000*%
%ADD15C,0.340000*%
G04 APERTURE END LIST*
D10*
X11450000Y-1400000D02*
X11450000Y-11400000D01*
X11450000Y-11400000D02*
X1450000Y-11400000D01*
X1450000Y-11400000D02*
X1450000Y-1400000D01*
X1450000Y-1400000D02*
X11450000Y-1400000D01*
D11*
D12*
X1955000Y-4455000D02*
X2145000Y-4645000D01*
X2145000Y-4455000D02*
X1955000Y-4645000D01*
X1955000Y-5555000D02*
X2145000Y-5745000D01*
X2145000Y-5555000D02*
X1955000Y-5745000D01*
X1955000Y-6155000D02*
X2145000Y-6345000D01*
X2145000Y-6155000D02*
X1955000Y-6345000D01*
X1955000Y-7255000D02*
X2145000Y-7445000D01*
X2145000Y-7255000D02*
X1955000Y-7445000D01*
X3655000Y-2755000D02*
X3845000Y-2945000D01*
X3845000Y-2755000D02*
X3655000Y-2945000D01*
X3655000Y-3855000D02*
X3845000Y-4045000D01*
X3845000Y-3855000D02*
X3655000Y-4045000D01*
X3655000Y-4455000D02*
X3845000Y-4645000D01*
X3845000Y-4455000D02*
X3655000Y-4645000D01*
X3655000Y-5555000D02*
X3845000Y-5745000D01*
X3845000Y-5555000D02*
X3655000Y-5745000D01*
X3655000Y-6155000D02*
X3845000Y-6345000D01*
X3845000Y-6155000D02*
X3655000Y-6345000D01*
X3655000Y-7255000D02*
X3845000Y-7445000D01*
X3845000Y-7255000D02*
X3655000Y-7445000D01*
X3655000Y-7855000D02*
X3845000Y-8045000D01*
X3845000Y-7855000D02*
X3655000Y-8045000D01*
X3655000Y-8955000D02*
X3845000Y-9145000D01*
X3845000Y-8955000D02*
X3655000Y-9145000D01*
X5355000Y-1955000D02*
X5545000Y-2145000D01*
X5545000Y-1955000D02*
X5355000Y-2145000D01*
X5355000Y-3055000D02*
X5545000Y-3245000D01*
X5545000Y-3055000D02*
X5355000Y-3245000D01*
X5355000Y-3655000D02*
X5545000Y-3845000D01*
X5545000Y-3655000D02*
X5355000Y-3845000D01*
X5355000Y-4755000D02*
X5545000Y-4945000D01*
X5545000Y-4755000D02*
X5355000Y-4945000D01*
X5355000Y-5355000D02*
X5545000Y-5545000D01*
X5545000Y-5355000D02*
X5355000Y-5545000D01*
X5355000Y-6455000D02*
X5545000Y-6645000D01*
X5545000Y-6455000D02*
X5355000Y-6645000D01*
X5355000Y-7055000D02*
X5545000Y-7245000D01*
X5545000Y-7055000D02*
X5355000Y-7245000D01*
X5355000Y-8155000D02*
X5545000Y-8345000D01*
X5545000Y-8155000D02*
X5355000Y-8345000D01*
X7055000Y-1755000D02*
X7245000Y-1945000D01*
X7245000Y-1755000D02*
X7055000Y-1945000D01*
X7055000Y-2855000D02*
X7245000Y-3045000D01*
X7245000Y-2855000D02*
X7055000Y-3045000D01*
X7055000Y-3455000D02*
X7245000Y-3645000D01*
X7245000Y-3455000D02*
X7055000Y-3645000D01*
X7055000Y-4555000D02*
X7245000Y-4745000D01*
X7245000Y-4555000D02*
X7055000Y-4745000D01*
X7055000Y-5155000D02*
X7245000Y-5345000D01*
X7245000Y-5155000D02*
X7055000Y-5345000D01*
X7055000Y-6255000D02*
X7245000Y-6445000D01*
X7245000Y-6255000D02*
X7055000Y-6445000D01*
X7055000Y-6855000D02*
X7245000Y-7045000D01*
X7245000Y-6855000D02*
X7055000Y-7045000D01*
X7055000Y-7955000D02*
X7245000Y-8145000D01*
X7245000Y-7955000D02*
X7055000Y-8145000D01*
X8755000Y-2555000D02*
X8945000Y-2745000D01*
X8945000Y-2555000D02*
X8755000Y-2745000D01*
X8755000Y-3655000D02*
X8945000Y-3845000D01*
X8945000Y-3655000D02*
X8755000Y-3845000D01*
X8755000Y-4255000D02*
X8945000Y-4445000D01*
X8945000Y-4255000D02*
X8755000Y-4445000D01*
X8755000Y-5355000D02*
X8945000Y-5545000D01*
X8945000Y-5355000D02*
X8755000Y-5545000D01*
X8755000Y-5955000D02*
X8945000Y-6145000D01*
X8945000Y-5955000D02*
X8755000Y-6145000D01*
X8755000Y-7055000D02*
X8945000Y-7245000D01*
X8945000Y-7055000D02*
X8755000Y-7245000D01*
X8755000Y-7655000D02*
X8945000Y-7845000D01*
X8945000Y-7655000D02*
X8755000Y-7845000D01*
X8755000Y-8755000D02*
X8945000Y-8945000D01*
X8945000Y-8755000D02*
X8755000Y-8945000D01*
X10455000Y-2555000D02*
X10645000Y-2745000D01*
X10645000Y-2555000D02*
X10455000Y-2745000D01*
X10455000Y-3655000D02*
X10645000Y-3845000D01*
X10645000Y-3655000D02*
X10455000Y-3845000D01*
X10455000Y-4255000D02*
X10645000Y-4445000D01*
X10645000Y-4255000D02*
X10455000Y-4445000D01*
X10455000Y-5355000D02*
X10645000Y-5545000D01*
X10645000Y-5355000D02*
X10455000Y-5545000D01*
X10455000Y-5955000D02*
X10645000Y-6145000D01*
X10645000Y-5955000D02*
X10455000Y-6145000D01*
X10455000Y-7055000D02*
X10645000Y-7245000D01*
X10645000Y-7055000D02*
X10455000Y-7245000D01*
X10455000Y-7655000D02*
X10645000Y-7845000D01*
X10645000Y-7655000D02*
X10455000Y-7845000D01*
X10455000Y-8755000D02*
X10645000Y-8945000D01*
X10645000Y-8755000D02*
X10455000Y-8945000D01*
X10455000Y-9755000D02*
X10645000Y-9945000D01*
X10645000Y-9755000D02*
X10455000Y-9945000D01*
X10455000Y-10855000D02*
X10645000Y-11045000D01*
X10645000Y-10855000D02*
X10455000Y-11045000D01*
D13*
X1760000Y-1600000D02*
G75*
G02*
X1540000Y-1600000I-110000J0D01*
G01*
X1540000Y-1600000D02*
G75*
G02*
X1760000Y-1600000I110000J0D01*
G01*
X1760000Y-11200000D02*
G75*
G02*
X1540000Y-11200000I-110000J0D01*
G01*
X1540000Y-11200000D02*
G75*
G02*
X1760000Y-11200000I110000J0D01*
G01*
X11360000Y-1600000D02*
G75*
G02*
X11140000Y-1600000I-110000J0D01*
G01*
X11140000Y-1600000D02*
G75*
G02*
X11360000Y-1600000I110000J0D01*
G01*
X11360000Y-11200000D02*
G75*
G02*
X11140000Y-11200000I-110000J0D01*
G01*
X11140000Y-11200000D02*
G75*
G02*
X11360000Y-11200000I110000J0D01*
G01*
D14*
X2425000Y-4450000D02*
X2425000Y-4750000D01*
X2275000Y-4600000D02*
X2575000Y-4600000D01*
X2425000Y-5450000D02*
X2425000Y-5750000D01*
X2275000Y-5600000D02*
X2575000Y-5600000D01*
X2425000Y-6150000D02*
X2425000Y-6450000D01*
X2275000Y-6300000D02*
X2575000Y-6300000D01*
X2425000Y-7150000D02*
X2425000Y-7450000D01*
X2275000Y-7300000D02*
X2575000Y-7300000D01*
X2645000Y-4950000D02*
X2645000Y-5250000D01*
X2495000Y-5100000D02*
X2795000Y-5100000D01*
X2645000Y-6650000D02*
X2645000Y-6950000D01*
X2495000Y-6800000D02*
X2795000Y-6800000D01*
X4125000Y-2750000D02*
X4125000Y-3050000D01*
X3975000Y-2900000D02*
X4275000Y-2900000D01*
X4125000Y-3750000D02*
X4125000Y-4050000D01*
X3975000Y-3900000D02*
X4275000Y-3900000D01*
X4125000Y-4450000D02*
X4125000Y-4750000D01*
X3975000Y-4600000D02*
X4275000Y-4600000D01*
X4125000Y-5450000D02*
X4125000Y-5750000D01*
X3975000Y-5600000D02*
X4275000Y-5600000D01*
X4125000Y-6150000D02*
X4125000Y-6450000D01*
X3975000Y-6300000D02*
X4275000Y-6300000D01*
X4125000Y-7150000D02*
X4125000Y-7450000D01*
X3975000Y-7300000D02*
X4275000Y-7300000D01*
X4125000Y-7850000D02*
X4125000Y-8150000D01*
X3975000Y-8000000D02*
X4275000Y-8000000D01*
X4125000Y-8850000D02*
X4125000Y-9150000D01*
X3975000Y-9000000D02*
X4275000Y-9000000D01*
X4345000Y-3250000D02*
X4345000Y-3550000D01*
X4195000Y-3400000D02*
X4495000Y-3400000D01*
X4345000Y-4950000D02*
X4345000Y-5250000D01*
X4195000Y-5100000D02*
X4495000Y-5100000D01*
X4345000Y-6650000D02*
X4345000Y-6950000D01*
X4195000Y-6800000D02*
X4495000Y-6800000D01*
X4345000Y-8350000D02*
X4345000Y-8650000D01*
X4195000Y-8500000D02*
X4495000Y-8500000D01*
X5825000Y-1950000D02*
X5825000Y-2250000D01*
X5675000Y-2100000D02*
X5975000Y-2100000D01*
X5825000Y-2950000D02*
X5825000Y-3250000D01*
X5675000Y-3100000D02*
X5975000Y-3100000D01*
X5825000Y-3650000D02*
X5825000Y-3950000D01*
X5675000Y-3800000D02*
X5975000Y-3800000D01*
X5825000Y-4650000D02*
X5825000Y-4950000D01*
X5675000Y-4800000D02*
X5975000Y-4800000D01*
X5825000Y-5350000D02*
X5825000Y-5650000D01*
X5675000Y-5500000D02*
X5975000Y-5500000D01*
X5825000Y-6350000D02*
X5825000Y-6650000D01*
X5675000Y-6500000D02*
X5975000Y-6500000D01*
X5825000Y-7050000D02*
X5825000Y-7350000D01*
X5675000Y-7200000D02*
X5975000Y-7200000D01*
X5825000Y-8050000D02*
X5825000Y-8350000D01*
X5675000Y-8200000D02*
X5975000Y-8200000D01*
X6045000Y-2450000D02*
X6045000Y-2750000D01*
X5895000Y-2600000D02*
X6195000Y-2600000D01*
X6045000Y-4150000D02*
X6045000Y-4450000D01*
X5895000Y-4300000D02*
X6195000Y-4300000D01*
X6045000Y-5850000D02*
X6045000Y-6150000D01*
X5895000Y-6000000D02*
X6195000Y-6000000D01*
X6045000Y-7550000D02*
X6045000Y-7850000D01*
X5895000Y-7700000D02*
X6195000Y-7700000D01*
X7525000Y-1750000D02*
X7525000Y-2050000D01*
X7375000Y-1900000D02*
X7675000Y-1900000D01*
X7525000Y-2750000D02*
X7525000Y-3050000D01*
X7375000Y-2900000D02*
X7675000Y-2900000D01*
X7525000Y-3450000D02*
X7525000Y-3750000D01*
X7375000Y-3600000D02*
X7675000Y-3600000D01*
X7525000Y-4450000D02*
X7525000Y-4750000D01*
X7375000Y-4600000D02*
X7675000Y-4600000D01*
X7525000Y-5150000D02*
X7525000Y-5450000D01*
X7375000Y-5300000D02*
X7675000Y-5300000D01*
X7525000Y-6150000D02*
X7525000Y-6450000D01*
X7375000Y-6300000D02*
X7675000Y-6300000D01*
X7525000Y-6850000D02*
X7525000Y-7150000D01*
X7375000Y-7000000D02*
X7675000Y-7000000D01*
X7525000Y-7850000D02*
X7525000Y-8150000D01*
X7375000Y-8000000D02*
X7675000Y-8000000D01*
X7745000Y-2250000D02*
X7745000Y-2550000D01*
X7595000Y-2400000D02*
X7895000Y-2400000D01*
X7745000Y-3950000D02*
X7745000Y-4250000D01*
X7595000Y-4100000D02*
X7895000Y-4100000D01*
X7745000Y-5650000D02*
X7745000Y-5950000D01*
X7595000Y-5800000D02*
X7895000Y-5800000D01*
X7745000Y-7350000D02*
X7745000Y-7650000D01*
X7595000Y-7500000D02*
X7895000Y-7500000D01*
X9225000Y-2550000D02*
X9225000Y-2850000D01*
X9075000Y-2700000D02*
X9375000Y-2700000D01*
X9225000Y-3550000D02*
X9225000Y-3850000D01*
X9075000Y-3700000D02*
X9375000Y-3700000D01*
X9225000Y-4250000D02*
X9225000Y-4550000D01*
X9075000Y-4400000D02*
X9375000Y-4400000D01*
X9225000Y-5250000D02*
X9225000Y-5550000D01*
X9075000Y-5400000D02*
X9375000Y-5400000D01*
X9225000Y-5950000D02*
X9225000Y-6250000D01*
X9075000Y-6100000D02*
X9375000Y-6100000D01*
X9225000Y-6950000D02*
X9225000Y-7250000D01*
X9075000Y-7100000D02*
X9375000Y-7100000D01*
X9225000Y-7650000D02*
X9225000Y-7950000D01*
X9075000Y-7800000D02*
X9375000Y-7800000D01*
X9225000Y-8650000D02*
X9225000Y-8950000D01*
X9075000Y-8800000D02*
X9375000Y-8800000D01*
X9445000Y-3050000D02*
X9445000Y-3350000D01*
X9295000Y-3200000D02*
X9595000Y-3200000D01*
X9445000Y-4750000D02*
X9445000Y-5050000D01*
X9295000Y-4900000D02*
X9595000Y-4900000D01*
X9445000Y-6450000D02*
X9445000Y-6750000D01*
X9295000Y-6600000D02*
X9595000Y-6600000D01*
X9445000Y-8150000D02*
X9445000Y-8450000D01*
X9295000Y-8300000D02*
X9595000Y-8300000D01*
X10925000Y-2550000D02*
X10925000Y-2850000D01*
X10775000Y-2700000D02*
X11075000Y-2700000D01*
X10925000Y-3550000D02*
X10925000Y-3850000D01*
X10775000Y-3700000D02*
X11075000Y-3700000D01*
X10925000Y-4250000D02*
X10925000Y-4550000D01*
X10775000Y-4400000D02*
X11075000Y-4400000D01*
X10925000Y-5250000D02*
X10925000Y-5550000D01*
X10775000Y-5400000D02*
X11075000Y-5400000D01*
X10925000Y-5950000D02*
X10925000Y-6250000D01*
X10775000Y-6100000D02*
X11075000Y-6100000D01*
X10925000Y-6950000D02*
X10925000Y-7250000D01*
X10775000Y-7100000D02*
X11075000Y-7100000D01*
X10925000Y-7650000D02*
X10925000Y-7950000D01*
X10775000Y-7800000D02*
X11075000Y-7800000D01*
X10925000Y-8650000D02*
X10925000Y-8950000D01*
X10775000Y-8800000D02*
X11075000Y-8800000D01*
X10925000Y-9750000D02*
X10925000Y-10050000D01*
X10775000Y-9900000D02*
X11075000Y-9900000D01*
X10925000Y-10750000D02*
X10925000Y-11050000D01*
X10775000Y-10900000D02*
X11075000Y-10900000D01*
X11145000Y-3050000D02*
X11145000Y-3350000D01*
X10995000Y-3200000D02*
X11295000Y-3200000D01*
X11145000Y-4750000D02*
X11145000Y-5050000D01*
X10995000Y-4900000D02*
X11295000Y-4900000D01*
X11145000Y-6450000D02*
X11145000Y-6750000D01*
X10995000Y-6600000D02*
X11295000Y-6600000D01*
X11145000Y-8150000D02*
X11145000Y-8450000D01*
X10995000Y-8300000D02*
X11295000Y-8300000D01*
X11145000Y-10250000D02*
X11145000Y-10550000D01*
X10995000Y-10400000D02*
X11295000Y-10400000D01*
D15*
X2170209Y-5220209D02*
X2170209Y-4979791D01*
X1929791Y-4979791D01*
X1929791Y-5220209D01*
X2170209Y-5220209D01*
X2170209Y-6920209D02*
X2170209Y-6679791D01*
X1929791Y-6679791D01*
X1929791Y-6920209D01*
X2170209Y-6920209D01*
X3870209Y-3520209D02*
X3870209Y-3279791D01*
X3629791Y-3279791D01*
X3629791Y-3520209D01*
X3870209Y-3520209D01*
X3870209Y-5220209D02*
X3870209Y-4979791D01*
X3629791Y-4979791D01*
X3629791Y-5220209D01*
X3870209Y-5220209D01*
X3870209Y-6920209D02*
X3870209Y-6679791D01*
X3629791Y-6679791D01*
X3629791Y-6920209D01*
X3870209Y-6920209D01*
X3870209Y-8620209D02*
X3870209Y-8379791D01*
X3629791Y-8379791D01*
X3629791Y-8620209D01*
X3870209Y-8620209D01*
X5570209Y-2720209D02*
X5570209Y-2479791D01*
X5329791Y-2479791D01*
X5329791Y-2720209D01*
X5570209Y-2720209D01*
X5570209Y-4420209D02*
X5570209Y-4179791D01*
X5329791Y-4179791D01*
X5329791Y-4420209D01*
X5570209Y-4420209D01*
X5570209Y-6120209D02*
X5570209Y-5879791D01*
X5329791Y-5879791D01*
X5329791Y-6120209D01*
X5570209Y-6120209D01*
X5570209Y-7820209D02*
X5570209Y-7579791D01*
X5329791Y-7579791D01*
X5329791Y-7820209D01*
X5570209Y-7820209D01*
X7270209Y-2520209D02*
X7270209Y-2279791D01*
X7029791Y-2279791D01*
X7029791Y-2520209D01*
X7270209Y-2520209D01*
X7270209Y-4220209D02*
X7270209Y-3979791D01*
X7029791Y-3979791D01*
X7029791Y-4220209D01*
X7270209Y-4220209D01*
X7270209Y-5920209D02*
X7270209Y-5679791D01*
X7029791Y-5679791D01*
X7029791Y-5920209D01*
X7270209Y-5920209D01*
X7270209Y-7620209D02*
X7270209Y-7379791D01*
X7029791Y-7379791D01*
X7029791Y-7620209D01*
X7270209Y-7620209D01*
X8970209Y-3320209D02*
X8970209Y-3079791D01*
X8729791Y-3079791D01*
X8729791Y-3320209D01*
X8970209Y-3320209D01*
X8970209Y-5020209D02*
X8970209Y-4779791D01*
X8729791Y-4779791D01*
X8729791Y-5020209D01*
X8970209Y-5020209D01*
X8970209Y-6720209D02*
X8970209Y-6479791D01*
X8729791Y-6479791D01*
X8729791Y-6720209D01*
X8970209Y-6720209D01*
X8970209Y-8420209D02*
X8970209Y-8179791D01*
X8729791Y-8179791D01*
X8729791Y-8420209D01*
X8970209Y-8420209D01*
X10670209Y-3320209D02*
X10670209Y-3079791D01*
X10429791Y-3079791D01*
X10429791Y-3320209D01*
X10670209Y-3320209D01*
X10670209Y-5020209D02*
X10670209Y-4779791D01*
X10429791Y-4779791D01*
X10429791Y-5020209D01*
X10670209Y-5020209D01*
X10670209Y-6720209D02*
X10670209Y-6479791D01*
X10429791Y-6479791D01*
X10429791Y-6720209D01*
X10670209Y-6720209D01*
X10670209Y-8420209D02*
X10670209Y-8179791D01*
X10429791Y-8179791D01*
X10429791Y-8420209D01*
X10670209Y-8420209D01*
X10670209Y-10520209D02*
X10670209Y-10279791D01*
X10429791Y-10279791D01*
X10429791Y-10520209D01*
X10670209Y-10520209D01*
D11*
X1703277Y-11718984D02*
X1703277Y-11518984D01*
X1703277Y-11518984D02*
X1750896Y-11518984D01*
X1750896Y-11518984D02*
X1779467Y-11528508D01*
X1779467Y-11528508D02*
X1798515Y-11547555D01*
X1798515Y-11547555D02*
X1808039Y-11566603D01*
X1808039Y-11566603D02*
X1817562Y-11604698D01*
X1817562Y-11604698D02*
X1817562Y-11633269D01*
X1817562Y-11633269D02*
X1808039Y-11671365D01*
X1808039Y-11671365D02*
X1798515Y-11690412D01*
X1798515Y-11690412D02*
X1779467Y-11709460D01*
X1779467Y-11709460D02*
X1750896Y-11718984D01*
X1750896Y-11718984D02*
X1703277Y-11718984D01*
X1903277Y-11718984D02*
X1903277Y-11585650D01*
X1903277Y-11623746D02*
X1912801Y-11604698D01*
X1912801Y-11604698D02*
X1922324Y-11595174D01*
X1922324Y-11595174D02*
X1941372Y-11585650D01*
X1941372Y-11585650D02*
X1960420Y-11585650D01*
X2027086Y-11718984D02*
X2027086Y-11585650D01*
X2027086Y-11518984D02*
X2017562Y-11528508D01*
X2017562Y-11528508D02*
X2027086Y-11538031D01*
X2027086Y-11538031D02*
X2036610Y-11528508D01*
X2036610Y-11528508D02*
X2027086Y-11518984D01*
X2027086Y-11518984D02*
X2027086Y-11538031D01*
X2150896Y-11718984D02*
X2131848Y-11709460D01*
X2131848Y-11709460D02*
X2122324Y-11690412D01*
X2122324Y-11690412D02*
X2122324Y-11518984D01*
X2255658Y-11718984D02*
X2236610Y-11709460D01*
X2236610Y-11709460D02*
X2227086Y-11690412D01*
X2227086Y-11690412D02*
X2227086Y-11518984D01*
X2484229Y-11718984D02*
X2484229Y-11518984D01*
X2484229Y-11518984D02*
X2550896Y-11661841D01*
X2550896Y-11661841D02*
X2617563Y-11518984D01*
X2617563Y-11518984D02*
X2617563Y-11718984D01*
X2798515Y-11718984D02*
X2798515Y-11614222D01*
X2798515Y-11614222D02*
X2788991Y-11595174D01*
X2788991Y-11595174D02*
X2769944Y-11585650D01*
X2769944Y-11585650D02*
X2731848Y-11585650D01*
X2731848Y-11585650D02*
X2712801Y-11595174D01*
X2798515Y-11709460D02*
X2779467Y-11718984D01*
X2779467Y-11718984D02*
X2731848Y-11718984D01*
X2731848Y-11718984D02*
X2712801Y-11709460D01*
X2712801Y-11709460D02*
X2703277Y-11690412D01*
X2703277Y-11690412D02*
X2703277Y-11671365D01*
X2703277Y-11671365D02*
X2712801Y-11652317D01*
X2712801Y-11652317D02*
X2731848Y-11642793D01*
X2731848Y-11642793D02*
X2779467Y-11642793D01*
X2779467Y-11642793D02*
X2798515Y-11633269D01*
X2893753Y-11585650D02*
X2893753Y-11785650D01*
X2893753Y-11595174D02*
X2912801Y-11585650D01*
X2912801Y-11585650D02*
X2950896Y-11585650D01*
X2950896Y-11585650D02*
X2969943Y-11595174D01*
X2969943Y-11595174D02*
X2979467Y-11604698D01*
X2979467Y-11604698D02*
X2988991Y-11623746D01*
X2988991Y-11623746D02*
X2988991Y-11680888D01*
X2988991Y-11680888D02*
X2979467Y-11699936D01*
X2979467Y-11699936D02*
X2969943Y-11709460D01*
X2969943Y-11709460D02*
X2950896Y-11718984D01*
X2950896Y-11718984D02*
X2912801Y-11718984D01*
X2912801Y-11718984D02*
X2893753Y-11709460D01*
X3074705Y-11699936D02*
X3084229Y-11709460D01*
X3084229Y-11709460D02*
X3074705Y-11718984D01*
X3074705Y-11718984D02*
X3065182Y-11709460D01*
X3065182Y-11709460D02*
X3074705Y-11699936D01*
X3074705Y-11699936D02*
X3074705Y-11718984D01*
X3074705Y-11595174D02*
X3084229Y-11604698D01*
X3084229Y-11604698D02*
X3074705Y-11614222D01*
X3074705Y-11614222D02*
X3065182Y-11604698D01*
X3065182Y-11604698D02*
X3074705Y-11595174D01*
X3074705Y-11595174D02*
X3074705Y-11614222D01*
D12*
X1252500Y-11952500D02*
X1442500Y-12142500D01*
X1442500Y-11952500D02*
X1252500Y-12142500D01*
D11*
X1808039Y-12138984D02*
X1693753Y-12138984D01*
X1750896Y-12138984D02*
X1750896Y-11938984D01*
X1750896Y-11938984D02*
X1731848Y-11967555D01*
X1731848Y-11967555D02*
X1712801Y-11986603D01*
X1712801Y-11986603D02*
X1693753Y-11996127D01*
X1893753Y-12119936D02*
X1903277Y-12129460D01*
X1903277Y-12129460D02*
X1893753Y-12138984D01*
X1893753Y-12138984D02*
X1884229Y-12129460D01*
X1884229Y-12129460D02*
X1893753Y-12119936D01*
X1893753Y-12119936D02*
X1893753Y-12138984D01*
X1998515Y-12138984D02*
X2036610Y-12138984D01*
X2036610Y-12138984D02*
X2055658Y-12129460D01*
X2055658Y-12129460D02*
X2065182Y-12119936D01*
X2065182Y-12119936D02*
X2084229Y-12091365D01*
X2084229Y-12091365D02*
X2093753Y-12053269D01*
X2093753Y-12053269D02*
X2093753Y-11977079D01*
X2093753Y-11977079D02*
X2084229Y-11958031D01*
X2084229Y-11958031D02*
X2074705Y-11948508D01*
X2074705Y-11948508D02*
X2055658Y-11938984D01*
X2055658Y-11938984D02*
X2017562Y-11938984D01*
X2017562Y-11938984D02*
X1998515Y-11948508D01*
X1998515Y-11948508D02*
X1988991Y-11958031D01*
X1988991Y-11958031D02*
X1979467Y-11977079D01*
X1979467Y-11977079D02*
X1979467Y-12024698D01*
X1979467Y-12024698D02*
X1988991Y-12043746D01*
X1988991Y-12043746D02*
X1998515Y-12053269D01*
X1998515Y-12053269D02*
X2017562Y-12062793D01*
X2017562Y-12062793D02*
X2055658Y-12062793D01*
X2055658Y-12062793D02*
X2074705Y-12053269D01*
X2074705Y-12053269D02*
X2084229Y-12043746D01*
X2084229Y-12043746D02*
X2093753Y-12024698D01*
X2217563Y-11938984D02*
X2236610Y-11938984D01*
X2236610Y-11938984D02*
X2255658Y-11948508D01*
X2255658Y-11948508D02*
X2265182Y-11958031D01*
X2265182Y-11958031D02*
X2274705Y-11977079D01*
X2274705Y-11977079D02*
X2284229Y-12015174D01*
X2284229Y-12015174D02*
X2284229Y-12062793D01*
X2284229Y-12062793D02*
X2274705Y-12100888D01*
X2274705Y-12100888D02*
X2265182Y-12119936D01*
X2265182Y-12119936D02*
X2255658Y-12129460D01*
X2255658Y-12129460D02*
X2236610Y-12138984D01*
X2236610Y-12138984D02*
X2217563Y-12138984D01*
X2217563Y-12138984D02*
X2198515Y-12129460D01*
X2198515Y-12129460D02*
X2188991Y-12119936D01*
X2188991Y-12119936D02*
X2179467Y-12100888D01*
X2179467Y-12100888D02*
X2169944Y-12062793D01*
X2169944Y-12062793D02*
X2169944Y-12015174D01*
X2169944Y-12015174D02*
X2179467Y-11977079D01*
X2179467Y-11977079D02*
X2188991Y-11958031D01*
X2188991Y-11958031D02*
X2198515Y-11948508D01*
X2198515Y-11948508D02*
X2217563Y-11938984D01*
X2408039Y-11938984D02*
X2427086Y-11938984D01*
X2427086Y-11938984D02*
X2446134Y-11948508D01*
X2446134Y-11948508D02*
X2455658Y-11958031D01*
X2455658Y-11958031D02*
X2465182Y-11977079D01*
X2465182Y-11977079D02*
X2474705Y-12015174D01*
X2474705Y-12015174D02*
X2474705Y-12062793D01*
X2474705Y-12062793D02*
X2465182Y-12100888D01*
X2465182Y-12100888D02*
X2455658Y-12119936D01*
X2455658Y-12119936D02*
X2446134Y-12129460D01*
X2446134Y-12129460D02*
X2427086Y-12138984D01*
X2427086Y-12138984D02*
X2408039Y-12138984D01*
X2408039Y-12138984D02*
X2388991Y-12129460D01*
X2388991Y-12129460D02*
X2379467Y-12119936D01*
X2379467Y-12119936D02*
X2369944Y-12100888D01*
X2369944Y-12100888D02*
X2360420Y-12062793D01*
X2360420Y-12062793D02*
X2360420Y-12015174D01*
X2360420Y-12015174D02*
X2369944Y-11977079D01*
X2369944Y-11977079D02*
X2379467Y-11958031D01*
X2379467Y-11958031D02*
X2388991Y-11948508D01*
X2388991Y-11948508D02*
X2408039Y-11938984D01*
X2560420Y-12138984D02*
X2560420Y-12005650D01*
X2560420Y-12024698D02*
X2569944Y-12015174D01*
X2569944Y-12015174D02*
X2588991Y-12005650D01*
X2588991Y-12005650D02*
X2617563Y-12005650D01*
X2617563Y-12005650D02*
X2636610Y-12015174D01*
X2636610Y-12015174D02*
X2646134Y-12034222D01*
X2646134Y-12034222D02*
X2646134Y-12138984D01*
X2646134Y-12034222D02*
X2655658Y-12015174D01*
X2655658Y-12015174D02*
X2674705Y-12005650D01*
X2674705Y-12005650D02*
X2703277Y-12005650D01*
X2703277Y-12005650D02*
X2722325Y-12015174D01*
X2722325Y-12015174D02*
X2731848Y-12034222D01*
X2731848Y-12034222D02*
X2731848Y-12138984D01*
X2827086Y-12138984D02*
X2827086Y-12005650D01*
X2827086Y-12024698D02*
X2836610Y-12015174D01*
X2836610Y-12015174D02*
X2855658Y-12005650D01*
X2855658Y-12005650D02*
X2884229Y-12005650D01*
X2884229Y-12005650D02*
X2903277Y-12015174D01*
X2903277Y-12015174D02*
X2912801Y-12034222D01*
X2912801Y-12034222D02*
X2912801Y-12138984D01*
X2912801Y-12034222D02*
X2922324Y-12015174D01*
X2922324Y-12015174D02*
X2941372Y-12005650D01*
X2941372Y-12005650D02*
X2969943Y-12005650D01*
X2969943Y-12005650D02*
X2988991Y-12015174D01*
X2988991Y-12015174D02*
X2998515Y-12034222D01*
X2998515Y-12034222D02*
X2998515Y-12138984D01*
X3388991Y-11929460D02*
X3217563Y-12186603D01*
X3646134Y-11938984D02*
X3665182Y-11938984D01*
X3665182Y-11938984D02*
X3684229Y-11948508D01*
X3684229Y-11948508D02*
X3693753Y-11958031D01*
X3693753Y-11958031D02*
X3703277Y-11977079D01*
X3703277Y-11977079D02*
X3712801Y-12015174D01*
X3712801Y-12015174D02*
X3712801Y-12062793D01*
X3712801Y-12062793D02*
X3703277Y-12100888D01*
X3703277Y-12100888D02*
X3693753Y-12119936D01*
X3693753Y-12119936D02*
X3684229Y-12129460D01*
X3684229Y-12129460D02*
X3665182Y-12138984D01*
X3665182Y-12138984D02*
X3646134Y-12138984D01*
X3646134Y-12138984D02*
X3627086Y-12129460D01*
X3627086Y-12129460D02*
X3617563Y-12119936D01*
X3617563Y-12119936D02*
X3608039Y-12100888D01*
X3608039Y-12100888D02*
X3598515Y-12062793D01*
X3598515Y-12062793D02*
X3598515Y-12015174D01*
X3598515Y-12015174D02*
X3608039Y-11977079D01*
X3608039Y-11977079D02*
X3617563Y-11958031D01*
X3617563Y-11958031D02*
X3627086Y-11948508D01*
X3627086Y-11948508D02*
X3646134Y-11938984D01*
X3798515Y-12119936D02*
X3808039Y-12129460D01*
X3808039Y-12129460D02*
X3798515Y-12138984D01*
X3798515Y-12138984D02*
X3788991Y-12129460D01*
X3788991Y-12129460D02*
X3798515Y-12119936D01*
X3798515Y-12119936D02*
X3798515Y-12138984D01*
X3931848Y-11938984D02*
X3950896Y-11938984D01*
X3950896Y-11938984D02*
X3969944Y-11948508D01*
X3969944Y-11948508D02*
X3979467Y-11958031D01*
X3979467Y-11958031D02*
X3988991Y-11977079D01*
X3988991Y-11977079D02*
X3998515Y-12015174D01*
X3998515Y-12015174D02*
X3998515Y-12062793D01*
X3998515Y-12062793D02*
X3988991Y-12100888D01*
X3988991Y-12100888D02*
X3979467Y-12119936D01*
X3979467Y-12119936D02*
X3969944Y-12129460D01*
X3969944Y-12129460D02*
X3950896Y-12138984D01*
X3950896Y-12138984D02*
X3931848Y-12138984D01*
X3931848Y-12138984D02*
X3912801Y-12129460D01*
X3912801Y-12129460D02*
X3903277Y-12119936D01*
X3903277Y-12119936D02*
X3893753Y-12100888D01*
X3893753Y-12100888D02*
X3884229Y-12062793D01*
X3884229Y-12062793D02*
X3884229Y-12015174D01*
X3884229Y-12015174D02*
X3893753Y-11977079D01*
X3893753Y-11977079D02*
X3903277Y-11958031D01*
X3903277Y-11958031D02*
X3912801Y-11948508D01*
X3912801Y-11948508D02*
X3931848Y-11938984D01*
X4065182Y-11938984D02*
X4198515Y-11938984D01*
X4198515Y-11938984D02*
X4112801Y-12138984D01*
X4360420Y-12005650D02*
X4360420Y-12138984D01*
X4312801Y-11929460D02*
X4265182Y-12072317D01*
X4265182Y-12072317D02*
X4388991Y-12072317D01*
X4493753Y-12024698D02*
X4474706Y-12015174D01*
X4474706Y-12015174D02*
X4465182Y-12005650D01*
X4465182Y-12005650D02*
X4455658Y-11986603D01*
X4455658Y-11986603D02*
X4455658Y-11977079D01*
X4455658Y-11977079D02*
X4465182Y-11958031D01*
X4465182Y-11958031D02*
X4474706Y-11948508D01*
X4474706Y-11948508D02*
X4493753Y-11938984D01*
X4493753Y-11938984D02*
X4531849Y-11938984D01*
X4531849Y-11938984D02*
X4550896Y-11948508D01*
X4550896Y-11948508D02*
X4560420Y-11958031D01*
X4560420Y-11958031D02*
X4569944Y-11977079D01*
X4569944Y-11977079D02*
X4569944Y-11986603D01*
X4569944Y-11986603D02*
X4560420Y-12005650D01*
X4560420Y-12005650D02*
X4550896Y-12015174D01*
X4550896Y-12015174D02*
X4531849Y-12024698D01*
X4531849Y-12024698D02*
X4493753Y-12024698D01*
X4493753Y-12024698D02*
X4474706Y-12034222D01*
X4474706Y-12034222D02*
X4465182Y-12043746D01*
X4465182Y-12043746D02*
X4455658Y-12062793D01*
X4455658Y-12062793D02*
X4455658Y-12100888D01*
X4455658Y-12100888D02*
X4465182Y-12119936D01*
X4465182Y-12119936D02*
X4474706Y-12129460D01*
X4474706Y-12129460D02*
X4493753Y-12138984D01*
X4493753Y-12138984D02*
X4531849Y-12138984D01*
X4531849Y-12138984D02*
X4550896Y-12129460D01*
X4550896Y-12129460D02*
X4560420Y-12119936D01*
X4560420Y-12119936D02*
X4569944Y-12100888D01*
X4569944Y-12100888D02*
X4569944Y-12062793D01*
X4569944Y-12062793D02*
X4560420Y-12043746D01*
X4560420Y-12043746D02*
X4550896Y-12034222D01*
X4550896Y-12034222D02*
X4531849Y-12024698D01*
X4646134Y-11938984D02*
X4646134Y-11977079D01*
X4722325Y-11938984D02*
X4722325Y-11977079D01*
X5017563Y-12215174D02*
X5008039Y-12205650D01*
X5008039Y-12205650D02*
X4988991Y-12177079D01*
X4988991Y-12177079D02*
X4979468Y-12158031D01*
X4979468Y-12158031D02*
X4969944Y-12129460D01*
X4969944Y-12129460D02*
X4960420Y-12081841D01*
X4960420Y-12081841D02*
X4960420Y-12043746D01*
X4960420Y-12043746D02*
X4969944Y-11996127D01*
X4969944Y-11996127D02*
X4979468Y-11967555D01*
X4979468Y-11967555D02*
X4988991Y-11948508D01*
X4988991Y-11948508D02*
X5008039Y-11919936D01*
X5008039Y-11919936D02*
X5017563Y-11910412D01*
X5179468Y-12005650D02*
X5179468Y-12138984D01*
X5131849Y-11929460D02*
X5084230Y-12072317D01*
X5084230Y-12072317D02*
X5208039Y-12072317D01*
X5369944Y-11938984D02*
X5331849Y-11938984D01*
X5331849Y-11938984D02*
X5312801Y-11948508D01*
X5312801Y-11948508D02*
X5303277Y-11958031D01*
X5303277Y-11958031D02*
X5284230Y-11986603D01*
X5284230Y-11986603D02*
X5274706Y-12024698D01*
X5274706Y-12024698D02*
X5274706Y-12100888D01*
X5274706Y-12100888D02*
X5284230Y-12119936D01*
X5284230Y-12119936D02*
X5293753Y-12129460D01*
X5293753Y-12129460D02*
X5312801Y-12138984D01*
X5312801Y-12138984D02*
X5350896Y-12138984D01*
X5350896Y-12138984D02*
X5369944Y-12129460D01*
X5369944Y-12129460D02*
X5379468Y-12119936D01*
X5379468Y-12119936D02*
X5388991Y-12100888D01*
X5388991Y-12100888D02*
X5388991Y-12053269D01*
X5388991Y-12053269D02*
X5379468Y-12034222D01*
X5379468Y-12034222D02*
X5369944Y-12024698D01*
X5369944Y-12024698D02*
X5350896Y-12015174D01*
X5350896Y-12015174D02*
X5312801Y-12015174D01*
X5312801Y-12015174D02*
X5293753Y-12024698D01*
X5293753Y-12024698D02*
X5284230Y-12034222D01*
X5284230Y-12034222D02*
X5274706Y-12053269D01*
X5627087Y-12138984D02*
X5627087Y-11938984D01*
X5712801Y-12138984D02*
X5712801Y-12034222D01*
X5712801Y-12034222D02*
X5703277Y-12015174D01*
X5703277Y-12015174D02*
X5684230Y-12005650D01*
X5684230Y-12005650D02*
X5655658Y-12005650D01*
X5655658Y-12005650D02*
X5636610Y-12015174D01*
X5636610Y-12015174D02*
X5627087Y-12024698D01*
X5836610Y-12138984D02*
X5817563Y-12129460D01*
X5817563Y-12129460D02*
X5808039Y-12119936D01*
X5808039Y-12119936D02*
X5798515Y-12100888D01*
X5798515Y-12100888D02*
X5798515Y-12043746D01*
X5798515Y-12043746D02*
X5808039Y-12024698D01*
X5808039Y-12024698D02*
X5817563Y-12015174D01*
X5817563Y-12015174D02*
X5836610Y-12005650D01*
X5836610Y-12005650D02*
X5865182Y-12005650D01*
X5865182Y-12005650D02*
X5884230Y-12015174D01*
X5884230Y-12015174D02*
X5893753Y-12024698D01*
X5893753Y-12024698D02*
X5903277Y-12043746D01*
X5903277Y-12043746D02*
X5903277Y-12100888D01*
X5903277Y-12100888D02*
X5893753Y-12119936D01*
X5893753Y-12119936D02*
X5884230Y-12129460D01*
X5884230Y-12129460D02*
X5865182Y-12138984D01*
X5865182Y-12138984D02*
X5836610Y-12138984D01*
X6017563Y-12138984D02*
X5998515Y-12129460D01*
X5998515Y-12129460D02*
X5988991Y-12110412D01*
X5988991Y-12110412D02*
X5988991Y-11938984D01*
X6169944Y-12129460D02*
X6150896Y-12138984D01*
X6150896Y-12138984D02*
X6112801Y-12138984D01*
X6112801Y-12138984D02*
X6093753Y-12129460D01*
X6093753Y-12129460D02*
X6084230Y-12110412D01*
X6084230Y-12110412D02*
X6084230Y-12034222D01*
X6084230Y-12034222D02*
X6093753Y-12015174D01*
X6093753Y-12015174D02*
X6112801Y-12005650D01*
X6112801Y-12005650D02*
X6150896Y-12005650D01*
X6150896Y-12005650D02*
X6169944Y-12015174D01*
X6169944Y-12015174D02*
X6179468Y-12034222D01*
X6179468Y-12034222D02*
X6179468Y-12053269D01*
X6179468Y-12053269D02*
X6084230Y-12072317D01*
X6255658Y-12129460D02*
X6274706Y-12138984D01*
X6274706Y-12138984D02*
X6312801Y-12138984D01*
X6312801Y-12138984D02*
X6331849Y-12129460D01*
X6331849Y-12129460D02*
X6341372Y-12110412D01*
X6341372Y-12110412D02*
X6341372Y-12100888D01*
X6341372Y-12100888D02*
X6331849Y-12081841D01*
X6331849Y-12081841D02*
X6312801Y-12072317D01*
X6312801Y-12072317D02*
X6284230Y-12072317D01*
X6284230Y-12072317D02*
X6265182Y-12062793D01*
X6265182Y-12062793D02*
X6255658Y-12043746D01*
X6255658Y-12043746D02*
X6255658Y-12034222D01*
X6255658Y-12034222D02*
X6265182Y-12015174D01*
X6265182Y-12015174D02*
X6284230Y-12005650D01*
X6284230Y-12005650D02*
X6312801Y-12005650D01*
X6312801Y-12005650D02*
X6331849Y-12015174D01*
X6408039Y-12215174D02*
X6417563Y-12205650D01*
X6417563Y-12205650D02*
X6436611Y-12177079D01*
X6436611Y-12177079D02*
X6446134Y-12158031D01*
X6446134Y-12158031D02*
X6455658Y-12129460D01*
X6455658Y-12129460D02*
X6465182Y-12081841D01*
X6465182Y-12081841D02*
X6465182Y-12043746D01*
X6465182Y-12043746D02*
X6455658Y-11996127D01*
X6455658Y-11996127D02*
X6446134Y-11967555D01*
X6446134Y-11967555D02*
X6436611Y-11948508D01*
X6436611Y-11948508D02*
X6417563Y-11919936D01*
X6417563Y-11919936D02*
X6408039Y-11910412D01*
X6769944Y-12215174D02*
X6760420Y-12205650D01*
X6760420Y-12205650D02*
X6741372Y-12177079D01*
X6741372Y-12177079D02*
X6731849Y-12158031D01*
X6731849Y-12158031D02*
X6722325Y-12129460D01*
X6722325Y-12129460D02*
X6712801Y-12081841D01*
X6712801Y-12081841D02*
X6712801Y-12043746D01*
X6712801Y-12043746D02*
X6722325Y-11996127D01*
X6722325Y-11996127D02*
X6731849Y-11967555D01*
X6731849Y-11967555D02*
X6741372Y-11948508D01*
X6741372Y-11948508D02*
X6760420Y-11919936D01*
X6760420Y-11919936D02*
X6769944Y-11910412D01*
X6846134Y-12005650D02*
X6846134Y-12138984D01*
X6846134Y-12024698D02*
X6855658Y-12015174D01*
X6855658Y-12015174D02*
X6874706Y-12005650D01*
X6874706Y-12005650D02*
X6903277Y-12005650D01*
X6903277Y-12005650D02*
X6922325Y-12015174D01*
X6922325Y-12015174D02*
X6931849Y-12034222D01*
X6931849Y-12034222D02*
X6931849Y-12138984D01*
X7055658Y-12138984D02*
X7036611Y-12129460D01*
X7036611Y-12129460D02*
X7027087Y-12119936D01*
X7027087Y-12119936D02*
X7017563Y-12100888D01*
X7017563Y-12100888D02*
X7017563Y-12043746D01*
X7017563Y-12043746D02*
X7027087Y-12024698D01*
X7027087Y-12024698D02*
X7036611Y-12015174D01*
X7036611Y-12015174D02*
X7055658Y-12005650D01*
X7055658Y-12005650D02*
X7084230Y-12005650D01*
X7084230Y-12005650D02*
X7103277Y-12015174D01*
X7103277Y-12015174D02*
X7112801Y-12024698D01*
X7112801Y-12024698D02*
X7122325Y-12043746D01*
X7122325Y-12043746D02*
X7122325Y-12100888D01*
X7122325Y-12100888D02*
X7112801Y-12119936D01*
X7112801Y-12119936D02*
X7103277Y-12129460D01*
X7103277Y-12129460D02*
X7084230Y-12138984D01*
X7084230Y-12138984D02*
X7055658Y-12138984D01*
X7179468Y-12005650D02*
X7255658Y-12005650D01*
X7208039Y-11938984D02*
X7208039Y-12110412D01*
X7208039Y-12110412D02*
X7217563Y-12129460D01*
X7217563Y-12129460D02*
X7236611Y-12138984D01*
X7236611Y-12138984D02*
X7255658Y-12138984D01*
X7474706Y-12005650D02*
X7474706Y-12205650D01*
X7474706Y-12015174D02*
X7493753Y-12005650D01*
X7493753Y-12005650D02*
X7531849Y-12005650D01*
X7531849Y-12005650D02*
X7550896Y-12015174D01*
X7550896Y-12015174D02*
X7560420Y-12024698D01*
X7560420Y-12024698D02*
X7569944Y-12043746D01*
X7569944Y-12043746D02*
X7569944Y-12100888D01*
X7569944Y-12100888D02*
X7560420Y-12119936D01*
X7560420Y-12119936D02*
X7550896Y-12129460D01*
X7550896Y-12129460D02*
X7531849Y-12138984D01*
X7531849Y-12138984D02*
X7493753Y-12138984D01*
X7493753Y-12138984D02*
X7474706Y-12129460D01*
X7684230Y-12138984D02*
X7665182Y-12129460D01*
X7665182Y-12129460D02*
X7655658Y-12110412D01*
X7655658Y-12110412D02*
X7655658Y-11938984D01*
X7846134Y-12138984D02*
X7846134Y-12034222D01*
X7846134Y-12034222D02*
X7836611Y-12015174D01*
X7836611Y-12015174D02*
X7817563Y-12005650D01*
X7817563Y-12005650D02*
X7779468Y-12005650D01*
X7779468Y-12005650D02*
X7760420Y-12015174D01*
X7846134Y-12129460D02*
X7827087Y-12138984D01*
X7827087Y-12138984D02*
X7779468Y-12138984D01*
X7779468Y-12138984D02*
X7760420Y-12129460D01*
X7760420Y-12129460D02*
X7750896Y-12110412D01*
X7750896Y-12110412D02*
X7750896Y-12091365D01*
X7750896Y-12091365D02*
X7760420Y-12072317D01*
X7760420Y-12072317D02*
X7779468Y-12062793D01*
X7779468Y-12062793D02*
X7827087Y-12062793D01*
X7827087Y-12062793D02*
X7846134Y-12053269D01*
X7912801Y-12005650D02*
X7988992Y-12005650D01*
X7941373Y-11938984D02*
X7941373Y-12110412D01*
X7941373Y-12110412D02*
X7950896Y-12129460D01*
X7950896Y-12129460D02*
X7969944Y-12138984D01*
X7969944Y-12138984D02*
X7988992Y-12138984D01*
X8131849Y-12129460D02*
X8112801Y-12138984D01*
X8112801Y-12138984D02*
X8074706Y-12138984D01*
X8074706Y-12138984D02*
X8055658Y-12129460D01*
X8055658Y-12129460D02*
X8046134Y-12110412D01*
X8046134Y-12110412D02*
X8046134Y-12034222D01*
X8046134Y-12034222D02*
X8055658Y-12015174D01*
X8055658Y-12015174D02*
X8074706Y-12005650D01*
X8074706Y-12005650D02*
X8112801Y-12005650D01*
X8112801Y-12005650D02*
X8131849Y-12015174D01*
X8131849Y-12015174D02*
X8141373Y-12034222D01*
X8141373Y-12034222D02*
X8141373Y-12053269D01*
X8141373Y-12053269D02*
X8046134Y-12072317D01*
X8312801Y-12138984D02*
X8312801Y-11938984D01*
X8312801Y-12129460D02*
X8293754Y-12138984D01*
X8293754Y-12138984D02*
X8255658Y-12138984D01*
X8255658Y-12138984D02*
X8236611Y-12129460D01*
X8236611Y-12129460D02*
X8227087Y-12119936D01*
X8227087Y-12119936D02*
X8217563Y-12100888D01*
X8217563Y-12100888D02*
X8217563Y-12043746D01*
X8217563Y-12043746D02*
X8227087Y-12024698D01*
X8227087Y-12024698D02*
X8236611Y-12015174D01*
X8236611Y-12015174D02*
X8255658Y-12005650D01*
X8255658Y-12005650D02*
X8293754Y-12005650D01*
X8293754Y-12005650D02*
X8312801Y-12015174D01*
X8388992Y-12215174D02*
X8398516Y-12205650D01*
X8398516Y-12205650D02*
X8417563Y-12177079D01*
X8417563Y-12177079D02*
X8427087Y-12158031D01*
X8427087Y-12158031D02*
X8436611Y-12129460D01*
X8436611Y-12129460D02*
X8446135Y-12081841D01*
X8446135Y-12081841D02*
X8446135Y-12043746D01*
X8446135Y-12043746D02*
X8436611Y-11996127D01*
X8436611Y-11996127D02*
X8427087Y-11967555D01*
X8427087Y-11967555D02*
X8417563Y-11948508D01*
X8417563Y-11948508D02*
X8398516Y-11919936D01*
X8398516Y-11919936D02*
X8388992Y-11910412D01*
X1442500Y-12357500D02*
G75*
G02*
X1242500Y-12357500I-100000J0D01*
G01*
X1242500Y-12357500D02*
G75*
G02*
X1442500Y-12357500I100000J0D01*
G01*
X1693753Y-12268031D02*
X1703277Y-12258508D01*
X1703277Y-12258508D02*
X1722324Y-12248984D01*
X1722324Y-12248984D02*
X1769943Y-12248984D01*
X1769943Y-12248984D02*
X1788991Y-12258508D01*
X1788991Y-12258508D02*
X1798515Y-12268031D01*
X1798515Y-12268031D02*
X1808039Y-12287079D01*
X1808039Y-12287079D02*
X1808039Y-12306127D01*
X1808039Y-12306127D02*
X1798515Y-12334698D01*
X1798515Y-12334698D02*
X1684229Y-12448984D01*
X1684229Y-12448984D02*
X1808039Y-12448984D01*
X1893753Y-12429936D02*
X1903277Y-12439460D01*
X1903277Y-12439460D02*
X1893753Y-12448984D01*
X1893753Y-12448984D02*
X1884229Y-12439460D01*
X1884229Y-12439460D02*
X1893753Y-12429936D01*
X1893753Y-12429936D02*
X1893753Y-12448984D01*
X1979467Y-12268031D02*
X1988991Y-12258508D01*
X1988991Y-12258508D02*
X2008039Y-12248984D01*
X2008039Y-12248984D02*
X2055658Y-12248984D01*
X2055658Y-12248984D02*
X2074705Y-12258508D01*
X2074705Y-12258508D02*
X2084229Y-12268031D01*
X2084229Y-12268031D02*
X2093753Y-12287079D01*
X2093753Y-12287079D02*
X2093753Y-12306127D01*
X2093753Y-12306127D02*
X2084229Y-12334698D01*
X2084229Y-12334698D02*
X1969943Y-12448984D01*
X1969943Y-12448984D02*
X2093753Y-12448984D01*
X2217563Y-12248984D02*
X2236610Y-12248984D01*
X2236610Y-12248984D02*
X2255658Y-12258508D01*
X2255658Y-12258508D02*
X2265182Y-12268031D01*
X2265182Y-12268031D02*
X2274705Y-12287079D01*
X2274705Y-12287079D02*
X2284229Y-12325174D01*
X2284229Y-12325174D02*
X2284229Y-12372793D01*
X2284229Y-12372793D02*
X2274705Y-12410888D01*
X2274705Y-12410888D02*
X2265182Y-12429936D01*
X2265182Y-12429936D02*
X2255658Y-12439460D01*
X2255658Y-12439460D02*
X2236610Y-12448984D01*
X2236610Y-12448984D02*
X2217563Y-12448984D01*
X2217563Y-12448984D02*
X2198515Y-12439460D01*
X2198515Y-12439460D02*
X2188991Y-12429936D01*
X2188991Y-12429936D02*
X2179467Y-12410888D01*
X2179467Y-12410888D02*
X2169944Y-12372793D01*
X2169944Y-12372793D02*
X2169944Y-12325174D01*
X2169944Y-12325174D02*
X2179467Y-12287079D01*
X2179467Y-12287079D02*
X2188991Y-12268031D01*
X2188991Y-12268031D02*
X2198515Y-12258508D01*
X2198515Y-12258508D02*
X2217563Y-12248984D01*
X2408039Y-12248984D02*
X2427086Y-12248984D01*
X2427086Y-12248984D02*
X2446134Y-12258508D01*
X2446134Y-12258508D02*
X2455658Y-12268031D01*
X2455658Y-12268031D02*
X2465182Y-12287079D01*
X2465182Y-12287079D02*
X2474705Y-12325174D01*
X2474705Y-12325174D02*
X2474705Y-12372793D01*
X2474705Y-12372793D02*
X2465182Y-12410888D01*
X2465182Y-12410888D02*
X2455658Y-12429936D01*
X2455658Y-12429936D02*
X2446134Y-12439460D01*
X2446134Y-12439460D02*
X2427086Y-12448984D01*
X2427086Y-12448984D02*
X2408039Y-12448984D01*
X2408039Y-12448984D02*
X2388991Y-12439460D01*
X2388991Y-12439460D02*
X2379467Y-12429936D01*
X2379467Y-12429936D02*
X2369944Y-12410888D01*
X2369944Y-12410888D02*
X2360420Y-12372793D01*
X2360420Y-12372793D02*
X2360420Y-12325174D01*
X2360420Y-12325174D02*
X2369944Y-12287079D01*
X2369944Y-12287079D02*
X2379467Y-12268031D01*
X2379467Y-12268031D02*
X2388991Y-12258508D01*
X2388991Y-12258508D02*
X2408039Y-12248984D01*
X2560420Y-12448984D02*
X2560420Y-12315650D01*
X2560420Y-12334698D02*
X2569944Y-12325174D01*
X2569944Y-12325174D02*
X2588991Y-12315650D01*
X2588991Y-12315650D02*
X2617563Y-12315650D01*
X2617563Y-12315650D02*
X2636610Y-12325174D01*
X2636610Y-12325174D02*
X2646134Y-12344222D01*
X2646134Y-12344222D02*
X2646134Y-12448984D01*
X2646134Y-12344222D02*
X2655658Y-12325174D01*
X2655658Y-12325174D02*
X2674705Y-12315650D01*
X2674705Y-12315650D02*
X2703277Y-12315650D01*
X2703277Y-12315650D02*
X2722325Y-12325174D01*
X2722325Y-12325174D02*
X2731848Y-12344222D01*
X2731848Y-12344222D02*
X2731848Y-12448984D01*
X2827086Y-12448984D02*
X2827086Y-12315650D01*
X2827086Y-12334698D02*
X2836610Y-12325174D01*
X2836610Y-12325174D02*
X2855658Y-12315650D01*
X2855658Y-12315650D02*
X2884229Y-12315650D01*
X2884229Y-12315650D02*
X2903277Y-12325174D01*
X2903277Y-12325174D02*
X2912801Y-12344222D01*
X2912801Y-12344222D02*
X2912801Y-12448984D01*
X2912801Y-12344222D02*
X2922324Y-12325174D01*
X2922324Y-12325174D02*
X2941372Y-12315650D01*
X2941372Y-12315650D02*
X2969943Y-12315650D01*
X2969943Y-12315650D02*
X2988991Y-12325174D01*
X2988991Y-12325174D02*
X2998515Y-12344222D01*
X2998515Y-12344222D02*
X2998515Y-12448984D01*
X3388991Y-12239460D02*
X3217563Y-12496603D01*
X3646134Y-12248984D02*
X3665182Y-12248984D01*
X3665182Y-12248984D02*
X3684229Y-12258508D01*
X3684229Y-12258508D02*
X3693753Y-12268031D01*
X3693753Y-12268031D02*
X3703277Y-12287079D01*
X3703277Y-12287079D02*
X3712801Y-12325174D01*
X3712801Y-12325174D02*
X3712801Y-12372793D01*
X3712801Y-12372793D02*
X3703277Y-12410888D01*
X3703277Y-12410888D02*
X3693753Y-12429936D01*
X3693753Y-12429936D02*
X3684229Y-12439460D01*
X3684229Y-12439460D02*
X3665182Y-12448984D01*
X3665182Y-12448984D02*
X3646134Y-12448984D01*
X3646134Y-12448984D02*
X3627086Y-12439460D01*
X3627086Y-12439460D02*
X3617563Y-12429936D01*
X3617563Y-12429936D02*
X3608039Y-12410888D01*
X3608039Y-12410888D02*
X3598515Y-12372793D01*
X3598515Y-12372793D02*
X3598515Y-12325174D01*
X3598515Y-12325174D02*
X3608039Y-12287079D01*
X3608039Y-12287079D02*
X3617563Y-12268031D01*
X3617563Y-12268031D02*
X3627086Y-12258508D01*
X3627086Y-12258508D02*
X3646134Y-12248984D01*
X3798515Y-12429936D02*
X3808039Y-12439460D01*
X3808039Y-12439460D02*
X3798515Y-12448984D01*
X3798515Y-12448984D02*
X3788991Y-12439460D01*
X3788991Y-12439460D02*
X3798515Y-12429936D01*
X3798515Y-12429936D02*
X3798515Y-12448984D01*
X3931848Y-12248984D02*
X3950896Y-12248984D01*
X3950896Y-12248984D02*
X3969944Y-12258508D01*
X3969944Y-12258508D02*
X3979467Y-12268031D01*
X3979467Y-12268031D02*
X3988991Y-12287079D01*
X3988991Y-12287079D02*
X3998515Y-12325174D01*
X3998515Y-12325174D02*
X3998515Y-12372793D01*
X3998515Y-12372793D02*
X3988991Y-12410888D01*
X3988991Y-12410888D02*
X3979467Y-12429936D01*
X3979467Y-12429936D02*
X3969944Y-12439460D01*
X3969944Y-12439460D02*
X3950896Y-12448984D01*
X3950896Y-12448984D02*
X3931848Y-12448984D01*
X3931848Y-12448984D02*
X3912801Y-12439460D01*
X3912801Y-12439460D02*
X3903277Y-12429936D01*
X3903277Y-12429936D02*
X3893753Y-12410888D01*
X3893753Y-12410888D02*
X3884229Y-12372793D01*
X3884229Y-12372793D02*
X3884229Y-12325174D01*
X3884229Y-12325174D02*
X3893753Y-12287079D01*
X3893753Y-12287079D02*
X3903277Y-12268031D01*
X3903277Y-12268031D02*
X3912801Y-12258508D01*
X3912801Y-12258508D02*
X3931848Y-12248984D01*
X4112801Y-12334698D02*
X4093753Y-12325174D01*
X4093753Y-12325174D02*
X4084229Y-12315650D01*
X4084229Y-12315650D02*
X4074706Y-12296603D01*
X4074706Y-12296603D02*
X4074706Y-12287079D01*
X4074706Y-12287079D02*
X4084229Y-12268031D01*
X4084229Y-12268031D02*
X4093753Y-12258508D01*
X4093753Y-12258508D02*
X4112801Y-12248984D01*
X4112801Y-12248984D02*
X4150896Y-12248984D01*
X4150896Y-12248984D02*
X4169944Y-12258508D01*
X4169944Y-12258508D02*
X4179467Y-12268031D01*
X4179467Y-12268031D02*
X4188991Y-12287079D01*
X4188991Y-12287079D02*
X4188991Y-12296603D01*
X4188991Y-12296603D02*
X4179467Y-12315650D01*
X4179467Y-12315650D02*
X4169944Y-12325174D01*
X4169944Y-12325174D02*
X4150896Y-12334698D01*
X4150896Y-12334698D02*
X4112801Y-12334698D01*
X4112801Y-12334698D02*
X4093753Y-12344222D01*
X4093753Y-12344222D02*
X4084229Y-12353746D01*
X4084229Y-12353746D02*
X4074706Y-12372793D01*
X4074706Y-12372793D02*
X4074706Y-12410888D01*
X4074706Y-12410888D02*
X4084229Y-12429936D01*
X4084229Y-12429936D02*
X4093753Y-12439460D01*
X4093753Y-12439460D02*
X4112801Y-12448984D01*
X4112801Y-12448984D02*
X4150896Y-12448984D01*
X4150896Y-12448984D02*
X4169944Y-12439460D01*
X4169944Y-12439460D02*
X4179467Y-12429936D01*
X4179467Y-12429936D02*
X4188991Y-12410888D01*
X4188991Y-12410888D02*
X4188991Y-12372793D01*
X4188991Y-12372793D02*
X4179467Y-12353746D01*
X4179467Y-12353746D02*
X4169944Y-12344222D01*
X4169944Y-12344222D02*
X4150896Y-12334698D01*
X4360420Y-12248984D02*
X4322325Y-12248984D01*
X4322325Y-12248984D02*
X4303277Y-12258508D01*
X4303277Y-12258508D02*
X4293753Y-12268031D01*
X4293753Y-12268031D02*
X4274706Y-12296603D01*
X4274706Y-12296603D02*
X4265182Y-12334698D01*
X4265182Y-12334698D02*
X4265182Y-12410888D01*
X4265182Y-12410888D02*
X4274706Y-12429936D01*
X4274706Y-12429936D02*
X4284229Y-12439460D01*
X4284229Y-12439460D02*
X4303277Y-12448984D01*
X4303277Y-12448984D02*
X4341372Y-12448984D01*
X4341372Y-12448984D02*
X4360420Y-12439460D01*
X4360420Y-12439460D02*
X4369944Y-12429936D01*
X4369944Y-12429936D02*
X4379468Y-12410888D01*
X4379468Y-12410888D02*
X4379468Y-12363269D01*
X4379468Y-12363269D02*
X4369944Y-12344222D01*
X4369944Y-12344222D02*
X4360420Y-12334698D01*
X4360420Y-12334698D02*
X4341372Y-12325174D01*
X4341372Y-12325174D02*
X4303277Y-12325174D01*
X4303277Y-12325174D02*
X4284229Y-12334698D01*
X4284229Y-12334698D02*
X4274706Y-12344222D01*
X4274706Y-12344222D02*
X4265182Y-12363269D01*
X4550896Y-12248984D02*
X4512801Y-12248984D01*
X4512801Y-12248984D02*
X4493753Y-12258508D01*
X4493753Y-12258508D02*
X4484229Y-12268031D01*
X4484229Y-12268031D02*
X4465182Y-12296603D01*
X4465182Y-12296603D02*
X4455658Y-12334698D01*
X4455658Y-12334698D02*
X4455658Y-12410888D01*
X4455658Y-12410888D02*
X4465182Y-12429936D01*
X4465182Y-12429936D02*
X4474706Y-12439460D01*
X4474706Y-12439460D02*
X4493753Y-12448984D01*
X4493753Y-12448984D02*
X4531849Y-12448984D01*
X4531849Y-12448984D02*
X4550896Y-12439460D01*
X4550896Y-12439460D02*
X4560420Y-12429936D01*
X4560420Y-12429936D02*
X4569944Y-12410888D01*
X4569944Y-12410888D02*
X4569944Y-12363269D01*
X4569944Y-12363269D02*
X4560420Y-12344222D01*
X4560420Y-12344222D02*
X4550896Y-12334698D01*
X4550896Y-12334698D02*
X4531849Y-12325174D01*
X4531849Y-12325174D02*
X4493753Y-12325174D01*
X4493753Y-12325174D02*
X4474706Y-12334698D01*
X4474706Y-12334698D02*
X4465182Y-12344222D01*
X4465182Y-12344222D02*
X4455658Y-12363269D01*
X4646134Y-12248984D02*
X4646134Y-12287079D01*
X4722325Y-12248984D02*
X4722325Y-12287079D01*
X5017563Y-12525174D02*
X5008039Y-12515650D01*
X5008039Y-12515650D02*
X4988991Y-12487079D01*
X4988991Y-12487079D02*
X4979468Y-12468031D01*
X4979468Y-12468031D02*
X4969944Y-12439460D01*
X4969944Y-12439460D02*
X4960420Y-12391841D01*
X4960420Y-12391841D02*
X4960420Y-12353746D01*
X4960420Y-12353746D02*
X4969944Y-12306127D01*
X4969944Y-12306127D02*
X4979468Y-12277555D01*
X4979468Y-12277555D02*
X4988991Y-12258508D01*
X4988991Y-12258508D02*
X5008039Y-12229936D01*
X5008039Y-12229936D02*
X5017563Y-12220412D01*
X5179468Y-12315650D02*
X5179468Y-12448984D01*
X5131849Y-12239460D02*
X5084230Y-12382317D01*
X5084230Y-12382317D02*
X5208039Y-12382317D01*
X5436611Y-12448984D02*
X5436611Y-12248984D01*
X5522325Y-12448984D02*
X5522325Y-12344222D01*
X5522325Y-12344222D02*
X5512801Y-12325174D01*
X5512801Y-12325174D02*
X5493753Y-12315650D01*
X5493753Y-12315650D02*
X5465182Y-12315650D01*
X5465182Y-12315650D02*
X5446134Y-12325174D01*
X5446134Y-12325174D02*
X5436611Y-12334698D01*
X5646134Y-12448984D02*
X5627087Y-12439460D01*
X5627087Y-12439460D02*
X5617563Y-12429936D01*
X5617563Y-12429936D02*
X5608039Y-12410888D01*
X5608039Y-12410888D02*
X5608039Y-12353746D01*
X5608039Y-12353746D02*
X5617563Y-12334698D01*
X5617563Y-12334698D02*
X5627087Y-12325174D01*
X5627087Y-12325174D02*
X5646134Y-12315650D01*
X5646134Y-12315650D02*
X5674706Y-12315650D01*
X5674706Y-12315650D02*
X5693753Y-12325174D01*
X5693753Y-12325174D02*
X5703277Y-12334698D01*
X5703277Y-12334698D02*
X5712801Y-12353746D01*
X5712801Y-12353746D02*
X5712801Y-12410888D01*
X5712801Y-12410888D02*
X5703277Y-12429936D01*
X5703277Y-12429936D02*
X5693753Y-12439460D01*
X5693753Y-12439460D02*
X5674706Y-12448984D01*
X5674706Y-12448984D02*
X5646134Y-12448984D01*
X5827087Y-12448984D02*
X5808039Y-12439460D01*
X5808039Y-12439460D02*
X5798515Y-12420412D01*
X5798515Y-12420412D02*
X5798515Y-12248984D01*
X5979468Y-12439460D02*
X5960420Y-12448984D01*
X5960420Y-12448984D02*
X5922325Y-12448984D01*
X5922325Y-12448984D02*
X5903277Y-12439460D01*
X5903277Y-12439460D02*
X5893753Y-12420412D01*
X5893753Y-12420412D02*
X5893753Y-12344222D01*
X5893753Y-12344222D02*
X5903277Y-12325174D01*
X5903277Y-12325174D02*
X5922325Y-12315650D01*
X5922325Y-12315650D02*
X5960420Y-12315650D01*
X5960420Y-12315650D02*
X5979468Y-12325174D01*
X5979468Y-12325174D02*
X5988991Y-12344222D01*
X5988991Y-12344222D02*
X5988991Y-12363269D01*
X5988991Y-12363269D02*
X5893753Y-12382317D01*
X6065182Y-12439460D02*
X6084230Y-12448984D01*
X6084230Y-12448984D02*
X6122325Y-12448984D01*
X6122325Y-12448984D02*
X6141372Y-12439460D01*
X6141372Y-12439460D02*
X6150896Y-12420412D01*
X6150896Y-12420412D02*
X6150896Y-12410888D01*
X6150896Y-12410888D02*
X6141372Y-12391841D01*
X6141372Y-12391841D02*
X6122325Y-12382317D01*
X6122325Y-12382317D02*
X6093753Y-12382317D01*
X6093753Y-12382317D02*
X6074706Y-12372793D01*
X6074706Y-12372793D02*
X6065182Y-12353746D01*
X6065182Y-12353746D02*
X6065182Y-12344222D01*
X6065182Y-12344222D02*
X6074706Y-12325174D01*
X6074706Y-12325174D02*
X6093753Y-12315650D01*
X6093753Y-12315650D02*
X6122325Y-12315650D01*
X6122325Y-12315650D02*
X6141372Y-12325174D01*
X6217563Y-12525174D02*
X6227087Y-12515650D01*
X6227087Y-12515650D02*
X6246134Y-12487079D01*
X6246134Y-12487079D02*
X6255658Y-12468031D01*
X6255658Y-12468031D02*
X6265182Y-12439460D01*
X6265182Y-12439460D02*
X6274706Y-12391841D01*
X6274706Y-12391841D02*
X6274706Y-12353746D01*
X6274706Y-12353746D02*
X6265182Y-12306127D01*
X6265182Y-12306127D02*
X6255658Y-12277555D01*
X6255658Y-12277555D02*
X6246134Y-12258508D01*
X6246134Y-12258508D02*
X6227087Y-12229936D01*
X6227087Y-12229936D02*
X6217563Y-12220412D01*
X6579468Y-12525174D02*
X6569944Y-12515650D01*
X6569944Y-12515650D02*
X6550896Y-12487079D01*
X6550896Y-12487079D02*
X6541372Y-12468031D01*
X6541372Y-12468031D02*
X6531849Y-12439460D01*
X6531849Y-12439460D02*
X6522325Y-12391841D01*
X6522325Y-12391841D02*
X6522325Y-12353746D01*
X6522325Y-12353746D02*
X6531849Y-12306127D01*
X6531849Y-12306127D02*
X6541372Y-12277555D01*
X6541372Y-12277555D02*
X6550896Y-12258508D01*
X6550896Y-12258508D02*
X6569944Y-12229936D01*
X6569944Y-12229936D02*
X6579468Y-12220412D01*
X6655658Y-12315650D02*
X6655658Y-12448984D01*
X6655658Y-12334698D02*
X6665182Y-12325174D01*
X6665182Y-12325174D02*
X6684230Y-12315650D01*
X6684230Y-12315650D02*
X6712801Y-12315650D01*
X6712801Y-12315650D02*
X6731849Y-12325174D01*
X6731849Y-12325174D02*
X6741372Y-12344222D01*
X6741372Y-12344222D02*
X6741372Y-12448984D01*
X6865182Y-12448984D02*
X6846134Y-12439460D01*
X6846134Y-12439460D02*
X6836611Y-12429936D01*
X6836611Y-12429936D02*
X6827087Y-12410888D01*
X6827087Y-12410888D02*
X6827087Y-12353746D01*
X6827087Y-12353746D02*
X6836611Y-12334698D01*
X6836611Y-12334698D02*
X6846134Y-12325174D01*
X6846134Y-12325174D02*
X6865182Y-12315650D01*
X6865182Y-12315650D02*
X6893753Y-12315650D01*
X6893753Y-12315650D02*
X6912801Y-12325174D01*
X6912801Y-12325174D02*
X6922325Y-12334698D01*
X6922325Y-12334698D02*
X6931849Y-12353746D01*
X6931849Y-12353746D02*
X6931849Y-12410888D01*
X6931849Y-12410888D02*
X6922325Y-12429936D01*
X6922325Y-12429936D02*
X6912801Y-12439460D01*
X6912801Y-12439460D02*
X6893753Y-12448984D01*
X6893753Y-12448984D02*
X6865182Y-12448984D01*
X6988992Y-12315650D02*
X7065182Y-12315650D01*
X7017563Y-12248984D02*
X7017563Y-12420412D01*
X7017563Y-12420412D02*
X7027087Y-12439460D01*
X7027087Y-12439460D02*
X7046134Y-12448984D01*
X7046134Y-12448984D02*
X7065182Y-12448984D01*
X7284230Y-12315650D02*
X7284230Y-12515650D01*
X7284230Y-12325174D02*
X7303277Y-12315650D01*
X7303277Y-12315650D02*
X7341373Y-12315650D01*
X7341373Y-12315650D02*
X7360420Y-12325174D01*
X7360420Y-12325174D02*
X7369944Y-12334698D01*
X7369944Y-12334698D02*
X7379468Y-12353746D01*
X7379468Y-12353746D02*
X7379468Y-12410888D01*
X7379468Y-12410888D02*
X7369944Y-12429936D01*
X7369944Y-12429936D02*
X7360420Y-12439460D01*
X7360420Y-12439460D02*
X7341373Y-12448984D01*
X7341373Y-12448984D02*
X7303277Y-12448984D01*
X7303277Y-12448984D02*
X7284230Y-12439460D01*
X7493753Y-12448984D02*
X7474706Y-12439460D01*
X7474706Y-12439460D02*
X7465182Y-12420412D01*
X7465182Y-12420412D02*
X7465182Y-12248984D01*
X7655658Y-12448984D02*
X7655658Y-12344222D01*
X7655658Y-12344222D02*
X7646134Y-12325174D01*
X7646134Y-12325174D02*
X7627087Y-12315650D01*
X7627087Y-12315650D02*
X7588992Y-12315650D01*
X7588992Y-12315650D02*
X7569944Y-12325174D01*
X7655658Y-12439460D02*
X7636611Y-12448984D01*
X7636611Y-12448984D02*
X7588992Y-12448984D01*
X7588992Y-12448984D02*
X7569944Y-12439460D01*
X7569944Y-12439460D02*
X7560420Y-12420412D01*
X7560420Y-12420412D02*
X7560420Y-12401365D01*
X7560420Y-12401365D02*
X7569944Y-12382317D01*
X7569944Y-12382317D02*
X7588992Y-12372793D01*
X7588992Y-12372793D02*
X7636611Y-12372793D01*
X7636611Y-12372793D02*
X7655658Y-12363269D01*
X7722325Y-12315650D02*
X7798515Y-12315650D01*
X7750896Y-12248984D02*
X7750896Y-12420412D01*
X7750896Y-12420412D02*
X7760420Y-12439460D01*
X7760420Y-12439460D02*
X7779468Y-12448984D01*
X7779468Y-12448984D02*
X7798515Y-12448984D01*
X7941373Y-12439460D02*
X7922325Y-12448984D01*
X7922325Y-12448984D02*
X7884230Y-12448984D01*
X7884230Y-12448984D02*
X7865182Y-12439460D01*
X7865182Y-12439460D02*
X7855658Y-12420412D01*
X7855658Y-12420412D02*
X7855658Y-12344222D01*
X7855658Y-12344222D02*
X7865182Y-12325174D01*
X7865182Y-12325174D02*
X7884230Y-12315650D01*
X7884230Y-12315650D02*
X7922325Y-12315650D01*
X7922325Y-12315650D02*
X7941373Y-12325174D01*
X7941373Y-12325174D02*
X7950896Y-12344222D01*
X7950896Y-12344222D02*
X7950896Y-12363269D01*
X7950896Y-12363269D02*
X7855658Y-12382317D01*
X8122325Y-12448984D02*
X8122325Y-12248984D01*
X8122325Y-12439460D02*
X8103277Y-12448984D01*
X8103277Y-12448984D02*
X8065182Y-12448984D01*
X8065182Y-12448984D02*
X8046134Y-12439460D01*
X8046134Y-12439460D02*
X8036611Y-12429936D01*
X8036611Y-12429936D02*
X8027087Y-12410888D01*
X8027087Y-12410888D02*
X8027087Y-12353746D01*
X8027087Y-12353746D02*
X8036611Y-12334698D01*
X8036611Y-12334698D02*
X8046134Y-12325174D01*
X8046134Y-12325174D02*
X8065182Y-12315650D01*
X8065182Y-12315650D02*
X8103277Y-12315650D01*
X8103277Y-12315650D02*
X8122325Y-12325174D01*
X8198515Y-12525174D02*
X8208039Y-12515650D01*
X8208039Y-12515650D02*
X8227087Y-12487079D01*
X8227087Y-12487079D02*
X8236611Y-12468031D01*
X8236611Y-12468031D02*
X8246134Y-12439460D01*
X8246134Y-12439460D02*
X8255658Y-12391841D01*
X8255658Y-12391841D02*
X8255658Y-12353746D01*
X8255658Y-12353746D02*
X8246134Y-12306127D01*
X8246134Y-12306127D02*
X8236611Y-12277555D01*
X8236611Y-12277555D02*
X8227087Y-12258508D01*
X8227087Y-12258508D02*
X8208039Y-12229936D01*
X8208039Y-12229936D02*
X8198515Y-12220412D01*
X1342500Y-12577500D02*
X1342500Y-12777500D01*
X1242500Y-12677500D02*
X1442500Y-12677500D01*
X1684229Y-12568984D02*
X1808039Y-12568984D01*
X1808039Y-12568984D02*
X1741372Y-12645174D01*
X1741372Y-12645174D02*
X1769943Y-12645174D01*
X1769943Y-12645174D02*
X1788991Y-12654698D01*
X1788991Y-12654698D02*
X1798515Y-12664222D01*
X1798515Y-12664222D02*
X1808039Y-12683269D01*
X1808039Y-12683269D02*
X1808039Y-12730888D01*
X1808039Y-12730888D02*
X1798515Y-12749936D01*
X1798515Y-12749936D02*
X1788991Y-12759460D01*
X1788991Y-12759460D02*
X1769943Y-12768984D01*
X1769943Y-12768984D02*
X1712801Y-12768984D01*
X1712801Y-12768984D02*
X1693753Y-12759460D01*
X1693753Y-12759460D02*
X1684229Y-12749936D01*
X1893753Y-12749936D02*
X1903277Y-12759460D01*
X1903277Y-12759460D02*
X1893753Y-12768984D01*
X1893753Y-12768984D02*
X1884229Y-12759460D01*
X1884229Y-12759460D02*
X1893753Y-12749936D01*
X1893753Y-12749936D02*
X1893753Y-12768984D01*
X2027086Y-12568984D02*
X2046134Y-12568984D01*
X2046134Y-12568984D02*
X2065182Y-12578508D01*
X2065182Y-12578508D02*
X2074705Y-12588031D01*
X2074705Y-12588031D02*
X2084229Y-12607079D01*
X2084229Y-12607079D02*
X2093753Y-12645174D01*
X2093753Y-12645174D02*
X2093753Y-12692793D01*
X2093753Y-12692793D02*
X2084229Y-12730888D01*
X2084229Y-12730888D02*
X2074705Y-12749936D01*
X2074705Y-12749936D02*
X2065182Y-12759460D01*
X2065182Y-12759460D02*
X2046134Y-12768984D01*
X2046134Y-12768984D02*
X2027086Y-12768984D01*
X2027086Y-12768984D02*
X2008039Y-12759460D01*
X2008039Y-12759460D02*
X1998515Y-12749936D01*
X1998515Y-12749936D02*
X1988991Y-12730888D01*
X1988991Y-12730888D02*
X1979467Y-12692793D01*
X1979467Y-12692793D02*
X1979467Y-12645174D01*
X1979467Y-12645174D02*
X1988991Y-12607079D01*
X1988991Y-12607079D02*
X1998515Y-12588031D01*
X1998515Y-12588031D02*
X2008039Y-12578508D01*
X2008039Y-12578508D02*
X2027086Y-12568984D01*
X2217563Y-12568984D02*
X2236610Y-12568984D01*
X2236610Y-12568984D02*
X2255658Y-12578508D01*
X2255658Y-12578508D02*
X2265182Y-12588031D01*
X2265182Y-12588031D02*
X2274705Y-12607079D01*
X2274705Y-12607079D02*
X2284229Y-12645174D01*
X2284229Y-12645174D02*
X2284229Y-12692793D01*
X2284229Y-12692793D02*
X2274705Y-12730888D01*
X2274705Y-12730888D02*
X2265182Y-12749936D01*
X2265182Y-12749936D02*
X2255658Y-12759460D01*
X2255658Y-12759460D02*
X2236610Y-12768984D01*
X2236610Y-12768984D02*
X2217563Y-12768984D01*
X2217563Y-12768984D02*
X2198515Y-12759460D01*
X2198515Y-12759460D02*
X2188991Y-12749936D01*
X2188991Y-12749936D02*
X2179467Y-12730888D01*
X2179467Y-12730888D02*
X2169944Y-12692793D01*
X2169944Y-12692793D02*
X2169944Y-12645174D01*
X2169944Y-12645174D02*
X2179467Y-12607079D01*
X2179467Y-12607079D02*
X2188991Y-12588031D01*
X2188991Y-12588031D02*
X2198515Y-12578508D01*
X2198515Y-12578508D02*
X2217563Y-12568984D01*
X2408039Y-12568984D02*
X2427086Y-12568984D01*
X2427086Y-12568984D02*
X2446134Y-12578508D01*
X2446134Y-12578508D02*
X2455658Y-12588031D01*
X2455658Y-12588031D02*
X2465182Y-12607079D01*
X2465182Y-12607079D02*
X2474705Y-12645174D01*
X2474705Y-12645174D02*
X2474705Y-12692793D01*
X2474705Y-12692793D02*
X2465182Y-12730888D01*
X2465182Y-12730888D02*
X2455658Y-12749936D01*
X2455658Y-12749936D02*
X2446134Y-12759460D01*
X2446134Y-12759460D02*
X2427086Y-12768984D01*
X2427086Y-12768984D02*
X2408039Y-12768984D01*
X2408039Y-12768984D02*
X2388991Y-12759460D01*
X2388991Y-12759460D02*
X2379467Y-12749936D01*
X2379467Y-12749936D02*
X2369944Y-12730888D01*
X2369944Y-12730888D02*
X2360420Y-12692793D01*
X2360420Y-12692793D02*
X2360420Y-12645174D01*
X2360420Y-12645174D02*
X2369944Y-12607079D01*
X2369944Y-12607079D02*
X2379467Y-12588031D01*
X2379467Y-12588031D02*
X2388991Y-12578508D01*
X2388991Y-12578508D02*
X2408039Y-12568984D01*
X2560420Y-12768984D02*
X2560420Y-12635650D01*
X2560420Y-12654698D02*
X2569944Y-12645174D01*
X2569944Y-12645174D02*
X2588991Y-12635650D01*
X2588991Y-12635650D02*
X2617563Y-12635650D01*
X2617563Y-12635650D02*
X2636610Y-12645174D01*
X2636610Y-12645174D02*
X2646134Y-12664222D01*
X2646134Y-12664222D02*
X2646134Y-12768984D01*
X2646134Y-12664222D02*
X2655658Y-12645174D01*
X2655658Y-12645174D02*
X2674705Y-12635650D01*
X2674705Y-12635650D02*
X2703277Y-12635650D01*
X2703277Y-12635650D02*
X2722325Y-12645174D01*
X2722325Y-12645174D02*
X2731848Y-12664222D01*
X2731848Y-12664222D02*
X2731848Y-12768984D01*
X2827086Y-12768984D02*
X2827086Y-12635650D01*
X2827086Y-12654698D02*
X2836610Y-12645174D01*
X2836610Y-12645174D02*
X2855658Y-12635650D01*
X2855658Y-12635650D02*
X2884229Y-12635650D01*
X2884229Y-12635650D02*
X2903277Y-12645174D01*
X2903277Y-12645174D02*
X2912801Y-12664222D01*
X2912801Y-12664222D02*
X2912801Y-12768984D01*
X2912801Y-12664222D02*
X2922324Y-12645174D01*
X2922324Y-12645174D02*
X2941372Y-12635650D01*
X2941372Y-12635650D02*
X2969943Y-12635650D01*
X2969943Y-12635650D02*
X2988991Y-12645174D01*
X2988991Y-12645174D02*
X2998515Y-12664222D01*
X2998515Y-12664222D02*
X2998515Y-12768984D01*
X3388991Y-12559460D02*
X3217563Y-12816603D01*
X3646134Y-12568984D02*
X3665182Y-12568984D01*
X3665182Y-12568984D02*
X3684229Y-12578508D01*
X3684229Y-12578508D02*
X3693753Y-12588031D01*
X3693753Y-12588031D02*
X3703277Y-12607079D01*
X3703277Y-12607079D02*
X3712801Y-12645174D01*
X3712801Y-12645174D02*
X3712801Y-12692793D01*
X3712801Y-12692793D02*
X3703277Y-12730888D01*
X3703277Y-12730888D02*
X3693753Y-12749936D01*
X3693753Y-12749936D02*
X3684229Y-12759460D01*
X3684229Y-12759460D02*
X3665182Y-12768984D01*
X3665182Y-12768984D02*
X3646134Y-12768984D01*
X3646134Y-12768984D02*
X3627086Y-12759460D01*
X3627086Y-12759460D02*
X3617563Y-12749936D01*
X3617563Y-12749936D02*
X3608039Y-12730888D01*
X3608039Y-12730888D02*
X3598515Y-12692793D01*
X3598515Y-12692793D02*
X3598515Y-12645174D01*
X3598515Y-12645174D02*
X3608039Y-12607079D01*
X3608039Y-12607079D02*
X3617563Y-12588031D01*
X3617563Y-12588031D02*
X3627086Y-12578508D01*
X3627086Y-12578508D02*
X3646134Y-12568984D01*
X3798515Y-12749936D02*
X3808039Y-12759460D01*
X3808039Y-12759460D02*
X3798515Y-12768984D01*
X3798515Y-12768984D02*
X3788991Y-12759460D01*
X3788991Y-12759460D02*
X3798515Y-12749936D01*
X3798515Y-12749936D02*
X3798515Y-12768984D01*
X3998515Y-12768984D02*
X3884229Y-12768984D01*
X3941372Y-12768984D02*
X3941372Y-12568984D01*
X3941372Y-12568984D02*
X3922325Y-12597555D01*
X3922325Y-12597555D02*
X3903277Y-12616603D01*
X3903277Y-12616603D02*
X3884229Y-12626127D01*
X4188991Y-12768984D02*
X4074706Y-12768984D01*
X4131848Y-12768984D02*
X4131848Y-12568984D01*
X4131848Y-12568984D02*
X4112801Y-12597555D01*
X4112801Y-12597555D02*
X4093753Y-12616603D01*
X4093753Y-12616603D02*
X4074706Y-12626127D01*
X4303277Y-12654698D02*
X4284229Y-12645174D01*
X4284229Y-12645174D02*
X4274706Y-12635650D01*
X4274706Y-12635650D02*
X4265182Y-12616603D01*
X4265182Y-12616603D02*
X4265182Y-12607079D01*
X4265182Y-12607079D02*
X4274706Y-12588031D01*
X4274706Y-12588031D02*
X4284229Y-12578508D01*
X4284229Y-12578508D02*
X4303277Y-12568984D01*
X4303277Y-12568984D02*
X4341372Y-12568984D01*
X4341372Y-12568984D02*
X4360420Y-12578508D01*
X4360420Y-12578508D02*
X4369944Y-12588031D01*
X4369944Y-12588031D02*
X4379468Y-12607079D01*
X4379468Y-12607079D02*
X4379468Y-12616603D01*
X4379468Y-12616603D02*
X4369944Y-12635650D01*
X4369944Y-12635650D02*
X4360420Y-12645174D01*
X4360420Y-12645174D02*
X4341372Y-12654698D01*
X4341372Y-12654698D02*
X4303277Y-12654698D01*
X4303277Y-12654698D02*
X4284229Y-12664222D01*
X4284229Y-12664222D02*
X4274706Y-12673746D01*
X4274706Y-12673746D02*
X4265182Y-12692793D01*
X4265182Y-12692793D02*
X4265182Y-12730888D01*
X4265182Y-12730888D02*
X4274706Y-12749936D01*
X4274706Y-12749936D02*
X4284229Y-12759460D01*
X4284229Y-12759460D02*
X4303277Y-12768984D01*
X4303277Y-12768984D02*
X4341372Y-12768984D01*
X4341372Y-12768984D02*
X4360420Y-12759460D01*
X4360420Y-12759460D02*
X4369944Y-12749936D01*
X4369944Y-12749936D02*
X4379468Y-12730888D01*
X4379468Y-12730888D02*
X4379468Y-12692793D01*
X4379468Y-12692793D02*
X4369944Y-12673746D01*
X4369944Y-12673746D02*
X4360420Y-12664222D01*
X4360420Y-12664222D02*
X4341372Y-12654698D01*
X4569944Y-12768984D02*
X4455658Y-12768984D01*
X4512801Y-12768984D02*
X4512801Y-12568984D01*
X4512801Y-12568984D02*
X4493753Y-12597555D01*
X4493753Y-12597555D02*
X4474706Y-12616603D01*
X4474706Y-12616603D02*
X4455658Y-12626127D01*
X4646134Y-12568984D02*
X4646134Y-12607079D01*
X4722325Y-12568984D02*
X4722325Y-12607079D01*
X5017563Y-12845174D02*
X5008039Y-12835650D01*
X5008039Y-12835650D02*
X4988991Y-12807079D01*
X4988991Y-12807079D02*
X4979468Y-12788031D01*
X4979468Y-12788031D02*
X4969944Y-12759460D01*
X4969944Y-12759460D02*
X4960420Y-12711841D01*
X4960420Y-12711841D02*
X4960420Y-12673746D01*
X4960420Y-12673746D02*
X4969944Y-12626127D01*
X4969944Y-12626127D02*
X4979468Y-12597555D01*
X4979468Y-12597555D02*
X4988991Y-12578508D01*
X4988991Y-12578508D02*
X5008039Y-12549936D01*
X5008039Y-12549936D02*
X5017563Y-12540412D01*
X5179468Y-12568984D02*
X5141372Y-12568984D01*
X5141372Y-12568984D02*
X5122325Y-12578508D01*
X5122325Y-12578508D02*
X5112801Y-12588031D01*
X5112801Y-12588031D02*
X5093753Y-12616603D01*
X5093753Y-12616603D02*
X5084230Y-12654698D01*
X5084230Y-12654698D02*
X5084230Y-12730888D01*
X5084230Y-12730888D02*
X5093753Y-12749936D01*
X5093753Y-12749936D02*
X5103277Y-12759460D01*
X5103277Y-12759460D02*
X5122325Y-12768984D01*
X5122325Y-12768984D02*
X5160420Y-12768984D01*
X5160420Y-12768984D02*
X5179468Y-12759460D01*
X5179468Y-12759460D02*
X5188991Y-12749936D01*
X5188991Y-12749936D02*
X5198515Y-12730888D01*
X5198515Y-12730888D02*
X5198515Y-12683269D01*
X5198515Y-12683269D02*
X5188991Y-12664222D01*
X5188991Y-12664222D02*
X5179468Y-12654698D01*
X5179468Y-12654698D02*
X5160420Y-12645174D01*
X5160420Y-12645174D02*
X5122325Y-12645174D01*
X5122325Y-12645174D02*
X5103277Y-12654698D01*
X5103277Y-12654698D02*
X5093753Y-12664222D01*
X5093753Y-12664222D02*
X5084230Y-12683269D01*
X5293753Y-12768984D02*
X5331849Y-12768984D01*
X5331849Y-12768984D02*
X5350896Y-12759460D01*
X5350896Y-12759460D02*
X5360420Y-12749936D01*
X5360420Y-12749936D02*
X5379468Y-12721365D01*
X5379468Y-12721365D02*
X5388991Y-12683269D01*
X5388991Y-12683269D02*
X5388991Y-12607079D01*
X5388991Y-12607079D02*
X5379468Y-12588031D01*
X5379468Y-12588031D02*
X5369944Y-12578508D01*
X5369944Y-12578508D02*
X5350896Y-12568984D01*
X5350896Y-12568984D02*
X5312801Y-12568984D01*
X5312801Y-12568984D02*
X5293753Y-12578508D01*
X5293753Y-12578508D02*
X5284230Y-12588031D01*
X5284230Y-12588031D02*
X5274706Y-12607079D01*
X5274706Y-12607079D02*
X5274706Y-12654698D01*
X5274706Y-12654698D02*
X5284230Y-12673746D01*
X5284230Y-12673746D02*
X5293753Y-12683269D01*
X5293753Y-12683269D02*
X5312801Y-12692793D01*
X5312801Y-12692793D02*
X5350896Y-12692793D01*
X5350896Y-12692793D02*
X5369944Y-12683269D01*
X5369944Y-12683269D02*
X5379468Y-12673746D01*
X5379468Y-12673746D02*
X5388991Y-12654698D01*
X5627087Y-12768984D02*
X5627087Y-12568984D01*
X5712801Y-12768984D02*
X5712801Y-12664222D01*
X5712801Y-12664222D02*
X5703277Y-12645174D01*
X5703277Y-12645174D02*
X5684230Y-12635650D01*
X5684230Y-12635650D02*
X5655658Y-12635650D01*
X5655658Y-12635650D02*
X5636610Y-12645174D01*
X5636610Y-12645174D02*
X5627087Y-12654698D01*
X5836610Y-12768984D02*
X5817563Y-12759460D01*
X5817563Y-12759460D02*
X5808039Y-12749936D01*
X5808039Y-12749936D02*
X5798515Y-12730888D01*
X5798515Y-12730888D02*
X5798515Y-12673746D01*
X5798515Y-12673746D02*
X5808039Y-12654698D01*
X5808039Y-12654698D02*
X5817563Y-12645174D01*
X5817563Y-12645174D02*
X5836610Y-12635650D01*
X5836610Y-12635650D02*
X5865182Y-12635650D01*
X5865182Y-12635650D02*
X5884230Y-12645174D01*
X5884230Y-12645174D02*
X5893753Y-12654698D01*
X5893753Y-12654698D02*
X5903277Y-12673746D01*
X5903277Y-12673746D02*
X5903277Y-12730888D01*
X5903277Y-12730888D02*
X5893753Y-12749936D01*
X5893753Y-12749936D02*
X5884230Y-12759460D01*
X5884230Y-12759460D02*
X5865182Y-12768984D01*
X5865182Y-12768984D02*
X5836610Y-12768984D01*
X6017563Y-12768984D02*
X5998515Y-12759460D01*
X5998515Y-12759460D02*
X5988991Y-12740412D01*
X5988991Y-12740412D02*
X5988991Y-12568984D01*
X6169944Y-12759460D02*
X6150896Y-12768984D01*
X6150896Y-12768984D02*
X6112801Y-12768984D01*
X6112801Y-12768984D02*
X6093753Y-12759460D01*
X6093753Y-12759460D02*
X6084230Y-12740412D01*
X6084230Y-12740412D02*
X6084230Y-12664222D01*
X6084230Y-12664222D02*
X6093753Y-12645174D01*
X6093753Y-12645174D02*
X6112801Y-12635650D01*
X6112801Y-12635650D02*
X6150896Y-12635650D01*
X6150896Y-12635650D02*
X6169944Y-12645174D01*
X6169944Y-12645174D02*
X6179468Y-12664222D01*
X6179468Y-12664222D02*
X6179468Y-12683269D01*
X6179468Y-12683269D02*
X6084230Y-12702317D01*
X6255658Y-12759460D02*
X6274706Y-12768984D01*
X6274706Y-12768984D02*
X6312801Y-12768984D01*
X6312801Y-12768984D02*
X6331849Y-12759460D01*
X6331849Y-12759460D02*
X6341372Y-12740412D01*
X6341372Y-12740412D02*
X6341372Y-12730888D01*
X6341372Y-12730888D02*
X6331849Y-12711841D01*
X6331849Y-12711841D02*
X6312801Y-12702317D01*
X6312801Y-12702317D02*
X6284230Y-12702317D01*
X6284230Y-12702317D02*
X6265182Y-12692793D01*
X6265182Y-12692793D02*
X6255658Y-12673746D01*
X6255658Y-12673746D02*
X6255658Y-12664222D01*
X6255658Y-12664222D02*
X6265182Y-12645174D01*
X6265182Y-12645174D02*
X6284230Y-12635650D01*
X6284230Y-12635650D02*
X6312801Y-12635650D01*
X6312801Y-12635650D02*
X6331849Y-12645174D01*
X6408039Y-12845174D02*
X6417563Y-12835650D01*
X6417563Y-12835650D02*
X6436611Y-12807079D01*
X6436611Y-12807079D02*
X6446134Y-12788031D01*
X6446134Y-12788031D02*
X6455658Y-12759460D01*
X6455658Y-12759460D02*
X6465182Y-12711841D01*
X6465182Y-12711841D02*
X6465182Y-12673746D01*
X6465182Y-12673746D02*
X6455658Y-12626127D01*
X6455658Y-12626127D02*
X6446134Y-12597555D01*
X6446134Y-12597555D02*
X6436611Y-12578508D01*
X6436611Y-12578508D02*
X6417563Y-12549936D01*
X6417563Y-12549936D02*
X6408039Y-12540412D01*
X6769944Y-12845174D02*
X6760420Y-12835650D01*
X6760420Y-12835650D02*
X6741372Y-12807079D01*
X6741372Y-12807079D02*
X6731849Y-12788031D01*
X6731849Y-12788031D02*
X6722325Y-12759460D01*
X6722325Y-12759460D02*
X6712801Y-12711841D01*
X6712801Y-12711841D02*
X6712801Y-12673746D01*
X6712801Y-12673746D02*
X6722325Y-12626127D01*
X6722325Y-12626127D02*
X6731849Y-12597555D01*
X6731849Y-12597555D02*
X6741372Y-12578508D01*
X6741372Y-12578508D02*
X6760420Y-12549936D01*
X6760420Y-12549936D02*
X6769944Y-12540412D01*
X6846134Y-12635650D02*
X6846134Y-12768984D01*
X6846134Y-12654698D02*
X6855658Y-12645174D01*
X6855658Y-12645174D02*
X6874706Y-12635650D01*
X6874706Y-12635650D02*
X6903277Y-12635650D01*
X6903277Y-12635650D02*
X6922325Y-12645174D01*
X6922325Y-12645174D02*
X6931849Y-12664222D01*
X6931849Y-12664222D02*
X6931849Y-12768984D01*
X7055658Y-12768984D02*
X7036611Y-12759460D01*
X7036611Y-12759460D02*
X7027087Y-12749936D01*
X7027087Y-12749936D02*
X7017563Y-12730888D01*
X7017563Y-12730888D02*
X7017563Y-12673746D01*
X7017563Y-12673746D02*
X7027087Y-12654698D01*
X7027087Y-12654698D02*
X7036611Y-12645174D01*
X7036611Y-12645174D02*
X7055658Y-12635650D01*
X7055658Y-12635650D02*
X7084230Y-12635650D01*
X7084230Y-12635650D02*
X7103277Y-12645174D01*
X7103277Y-12645174D02*
X7112801Y-12654698D01*
X7112801Y-12654698D02*
X7122325Y-12673746D01*
X7122325Y-12673746D02*
X7122325Y-12730888D01*
X7122325Y-12730888D02*
X7112801Y-12749936D01*
X7112801Y-12749936D02*
X7103277Y-12759460D01*
X7103277Y-12759460D02*
X7084230Y-12768984D01*
X7084230Y-12768984D02*
X7055658Y-12768984D01*
X7179468Y-12635650D02*
X7255658Y-12635650D01*
X7208039Y-12568984D02*
X7208039Y-12740412D01*
X7208039Y-12740412D02*
X7217563Y-12759460D01*
X7217563Y-12759460D02*
X7236611Y-12768984D01*
X7236611Y-12768984D02*
X7255658Y-12768984D01*
X7474706Y-12635650D02*
X7474706Y-12835650D01*
X7474706Y-12645174D02*
X7493753Y-12635650D01*
X7493753Y-12635650D02*
X7531849Y-12635650D01*
X7531849Y-12635650D02*
X7550896Y-12645174D01*
X7550896Y-12645174D02*
X7560420Y-12654698D01*
X7560420Y-12654698D02*
X7569944Y-12673746D01*
X7569944Y-12673746D02*
X7569944Y-12730888D01*
X7569944Y-12730888D02*
X7560420Y-12749936D01*
X7560420Y-12749936D02*
X7550896Y-12759460D01*
X7550896Y-12759460D02*
X7531849Y-12768984D01*
X7531849Y-12768984D02*
X7493753Y-12768984D01*
X7493753Y-12768984D02*
X7474706Y-12759460D01*
X7684230Y-12768984D02*
X7665182Y-12759460D01*
X7665182Y-12759460D02*
X7655658Y-12740412D01*
X7655658Y-12740412D02*
X7655658Y-12568984D01*
X7846134Y-12768984D02*
X7846134Y-12664222D01*
X7846134Y-12664222D02*
X7836611Y-12645174D01*
X7836611Y-12645174D02*
X7817563Y-12635650D01*
X7817563Y-12635650D02*
X7779468Y-12635650D01*
X7779468Y-12635650D02*
X7760420Y-12645174D01*
X7846134Y-12759460D02*
X7827087Y-12768984D01*
X7827087Y-12768984D02*
X7779468Y-12768984D01*
X7779468Y-12768984D02*
X7760420Y-12759460D01*
X7760420Y-12759460D02*
X7750896Y-12740412D01*
X7750896Y-12740412D02*
X7750896Y-12721365D01*
X7750896Y-12721365D02*
X7760420Y-12702317D01*
X7760420Y-12702317D02*
X7779468Y-12692793D01*
X7779468Y-12692793D02*
X7827087Y-12692793D01*
X7827087Y-12692793D02*
X7846134Y-12683269D01*
X7912801Y-12635650D02*
X7988992Y-12635650D01*
X7941373Y-12568984D02*
X7941373Y-12740412D01*
X7941373Y-12740412D02*
X7950896Y-12759460D01*
X7950896Y-12759460D02*
X7969944Y-12768984D01*
X7969944Y-12768984D02*
X7988992Y-12768984D01*
X8131849Y-12759460D02*
X8112801Y-12768984D01*
X8112801Y-12768984D02*
X8074706Y-12768984D01*
X8074706Y-12768984D02*
X8055658Y-12759460D01*
X8055658Y-12759460D02*
X8046134Y-12740412D01*
X8046134Y-12740412D02*
X8046134Y-12664222D01*
X8046134Y-12664222D02*
X8055658Y-12645174D01*
X8055658Y-12645174D02*
X8074706Y-12635650D01*
X8074706Y-12635650D02*
X8112801Y-12635650D01*
X8112801Y-12635650D02*
X8131849Y-12645174D01*
X8131849Y-12645174D02*
X8141373Y-12664222D01*
X8141373Y-12664222D02*
X8141373Y-12683269D01*
X8141373Y-12683269D02*
X8046134Y-12702317D01*
X8312801Y-12768984D02*
X8312801Y-12568984D01*
X8312801Y-12759460D02*
X8293754Y-12768984D01*
X8293754Y-12768984D02*
X8255658Y-12768984D01*
X8255658Y-12768984D02*
X8236611Y-12759460D01*
X8236611Y-12759460D02*
X8227087Y-12749936D01*
X8227087Y-12749936D02*
X8217563Y-12730888D01*
X8217563Y-12730888D02*
X8217563Y-12673746D01*
X8217563Y-12673746D02*
X8227087Y-12654698D01*
X8227087Y-12654698D02*
X8236611Y-12645174D01*
X8236611Y-12645174D02*
X8255658Y-12635650D01*
X8255658Y-12635650D02*
X8293754Y-12635650D01*
X8293754Y-12635650D02*
X8312801Y-12645174D01*
X8388992Y-12845174D02*
X8398516Y-12835650D01*
X8398516Y-12835650D02*
X8417563Y-12807079D01*
X8417563Y-12807079D02*
X8427087Y-12788031D01*
X8427087Y-12788031D02*
X8436611Y-12759460D01*
X8436611Y-12759460D02*
X8446135Y-12711841D01*
X8446135Y-12711841D02*
X8446135Y-12673746D01*
X8446135Y-12673746D02*
X8436611Y-12626127D01*
X8436611Y-12626127D02*
X8427087Y-12597555D01*
X8427087Y-12597555D02*
X8417563Y-12578508D01*
X8417563Y-12578508D02*
X8398516Y-12549936D01*
X8398516Y-12549936D02*
X8388992Y-12540412D01*
X1413211Y-13068211D02*
X1413211Y-12926789D01*
X1271789Y-12926789D01*
X1271789Y-13068211D01*
X1413211Y-13068211D01*
X1684229Y-12888984D02*
X1808039Y-12888984D01*
X1808039Y-12888984D02*
X1741372Y-12965174D01*
X1741372Y-12965174D02*
X1769943Y-12965174D01*
X1769943Y-12965174D02*
X1788991Y-12974698D01*
X1788991Y-12974698D02*
X1798515Y-12984222D01*
X1798515Y-12984222D02*
X1808039Y-13003269D01*
X1808039Y-13003269D02*
X1808039Y-13050888D01*
X1808039Y-13050888D02*
X1798515Y-13069936D01*
X1798515Y-13069936D02*
X1788991Y-13079460D01*
X1788991Y-13079460D02*
X1769943Y-13088984D01*
X1769943Y-13088984D02*
X1712801Y-13088984D01*
X1712801Y-13088984D02*
X1693753Y-13079460D01*
X1693753Y-13079460D02*
X1684229Y-13069936D01*
X1893753Y-13069936D02*
X1903277Y-13079460D01*
X1903277Y-13079460D02*
X1893753Y-13088984D01*
X1893753Y-13088984D02*
X1884229Y-13079460D01*
X1884229Y-13079460D02*
X1893753Y-13069936D01*
X1893753Y-13069936D02*
X1893753Y-13088984D01*
X2074705Y-12955650D02*
X2074705Y-13088984D01*
X2027086Y-12879460D02*
X1979467Y-13022317D01*
X1979467Y-13022317D02*
X2103277Y-13022317D01*
X2217563Y-12888984D02*
X2236610Y-12888984D01*
X2236610Y-12888984D02*
X2255658Y-12898508D01*
X2255658Y-12898508D02*
X2265182Y-12908031D01*
X2265182Y-12908031D02*
X2274705Y-12927079D01*
X2274705Y-12927079D02*
X2284229Y-12965174D01*
X2284229Y-12965174D02*
X2284229Y-13012793D01*
X2284229Y-13012793D02*
X2274705Y-13050888D01*
X2274705Y-13050888D02*
X2265182Y-13069936D01*
X2265182Y-13069936D02*
X2255658Y-13079460D01*
X2255658Y-13079460D02*
X2236610Y-13088984D01*
X2236610Y-13088984D02*
X2217563Y-13088984D01*
X2217563Y-13088984D02*
X2198515Y-13079460D01*
X2198515Y-13079460D02*
X2188991Y-13069936D01*
X2188991Y-13069936D02*
X2179467Y-13050888D01*
X2179467Y-13050888D02*
X2169944Y-13012793D01*
X2169944Y-13012793D02*
X2169944Y-12965174D01*
X2169944Y-12965174D02*
X2179467Y-12927079D01*
X2179467Y-12927079D02*
X2188991Y-12908031D01*
X2188991Y-12908031D02*
X2198515Y-12898508D01*
X2198515Y-12898508D02*
X2217563Y-12888984D01*
X2408039Y-12888984D02*
X2427086Y-12888984D01*
X2427086Y-12888984D02*
X2446134Y-12898508D01*
X2446134Y-12898508D02*
X2455658Y-12908031D01*
X2455658Y-12908031D02*
X2465182Y-12927079D01*
X2465182Y-12927079D02*
X2474705Y-12965174D01*
X2474705Y-12965174D02*
X2474705Y-13012793D01*
X2474705Y-13012793D02*
X2465182Y-13050888D01*
X2465182Y-13050888D02*
X2455658Y-13069936D01*
X2455658Y-13069936D02*
X2446134Y-13079460D01*
X2446134Y-13079460D02*
X2427086Y-13088984D01*
X2427086Y-13088984D02*
X2408039Y-13088984D01*
X2408039Y-13088984D02*
X2388991Y-13079460D01*
X2388991Y-13079460D02*
X2379467Y-13069936D01*
X2379467Y-13069936D02*
X2369944Y-13050888D01*
X2369944Y-13050888D02*
X2360420Y-13012793D01*
X2360420Y-13012793D02*
X2360420Y-12965174D01*
X2360420Y-12965174D02*
X2369944Y-12927079D01*
X2369944Y-12927079D02*
X2379467Y-12908031D01*
X2379467Y-12908031D02*
X2388991Y-12898508D01*
X2388991Y-12898508D02*
X2408039Y-12888984D01*
X2560420Y-13088984D02*
X2560420Y-12955650D01*
X2560420Y-12974698D02*
X2569944Y-12965174D01*
X2569944Y-12965174D02*
X2588991Y-12955650D01*
X2588991Y-12955650D02*
X2617563Y-12955650D01*
X2617563Y-12955650D02*
X2636610Y-12965174D01*
X2636610Y-12965174D02*
X2646134Y-12984222D01*
X2646134Y-12984222D02*
X2646134Y-13088984D01*
X2646134Y-12984222D02*
X2655658Y-12965174D01*
X2655658Y-12965174D02*
X2674705Y-12955650D01*
X2674705Y-12955650D02*
X2703277Y-12955650D01*
X2703277Y-12955650D02*
X2722325Y-12965174D01*
X2722325Y-12965174D02*
X2731848Y-12984222D01*
X2731848Y-12984222D02*
X2731848Y-13088984D01*
X2827086Y-13088984D02*
X2827086Y-12955650D01*
X2827086Y-12974698D02*
X2836610Y-12965174D01*
X2836610Y-12965174D02*
X2855658Y-12955650D01*
X2855658Y-12955650D02*
X2884229Y-12955650D01*
X2884229Y-12955650D02*
X2903277Y-12965174D01*
X2903277Y-12965174D02*
X2912801Y-12984222D01*
X2912801Y-12984222D02*
X2912801Y-13088984D01*
X2912801Y-12984222D02*
X2922324Y-12965174D01*
X2922324Y-12965174D02*
X2941372Y-12955650D01*
X2941372Y-12955650D02*
X2969943Y-12955650D01*
X2969943Y-12955650D02*
X2988991Y-12965174D01*
X2988991Y-12965174D02*
X2998515Y-12984222D01*
X2998515Y-12984222D02*
X2998515Y-13088984D01*
X3388991Y-12879460D02*
X3217563Y-13136603D01*
X3646134Y-12888984D02*
X3665182Y-12888984D01*
X3665182Y-12888984D02*
X3684229Y-12898508D01*
X3684229Y-12898508D02*
X3693753Y-12908031D01*
X3693753Y-12908031D02*
X3703277Y-12927079D01*
X3703277Y-12927079D02*
X3712801Y-12965174D01*
X3712801Y-12965174D02*
X3712801Y-13012793D01*
X3712801Y-13012793D02*
X3703277Y-13050888D01*
X3703277Y-13050888D02*
X3693753Y-13069936D01*
X3693753Y-13069936D02*
X3684229Y-13079460D01*
X3684229Y-13079460D02*
X3665182Y-13088984D01*
X3665182Y-13088984D02*
X3646134Y-13088984D01*
X3646134Y-13088984D02*
X3627086Y-13079460D01*
X3627086Y-13079460D02*
X3617563Y-13069936D01*
X3617563Y-13069936D02*
X3608039Y-13050888D01*
X3608039Y-13050888D02*
X3598515Y-13012793D01*
X3598515Y-13012793D02*
X3598515Y-12965174D01*
X3598515Y-12965174D02*
X3608039Y-12927079D01*
X3608039Y-12927079D02*
X3617563Y-12908031D01*
X3617563Y-12908031D02*
X3627086Y-12898508D01*
X3627086Y-12898508D02*
X3646134Y-12888984D01*
X3798515Y-13069936D02*
X3808039Y-13079460D01*
X3808039Y-13079460D02*
X3798515Y-13088984D01*
X3798515Y-13088984D02*
X3788991Y-13079460D01*
X3788991Y-13079460D02*
X3798515Y-13069936D01*
X3798515Y-13069936D02*
X3798515Y-13088984D01*
X3998515Y-13088984D02*
X3884229Y-13088984D01*
X3941372Y-13088984D02*
X3941372Y-12888984D01*
X3941372Y-12888984D02*
X3922325Y-12917555D01*
X3922325Y-12917555D02*
X3903277Y-12936603D01*
X3903277Y-12936603D02*
X3884229Y-12946127D01*
X4065182Y-12888984D02*
X4188991Y-12888984D01*
X4188991Y-12888984D02*
X4122325Y-12965174D01*
X4122325Y-12965174D02*
X4150896Y-12965174D01*
X4150896Y-12965174D02*
X4169944Y-12974698D01*
X4169944Y-12974698D02*
X4179467Y-12984222D01*
X4179467Y-12984222D02*
X4188991Y-13003269D01*
X4188991Y-13003269D02*
X4188991Y-13050888D01*
X4188991Y-13050888D02*
X4179467Y-13069936D01*
X4179467Y-13069936D02*
X4169944Y-13079460D01*
X4169944Y-13079460D02*
X4150896Y-13088984D01*
X4150896Y-13088984D02*
X4093753Y-13088984D01*
X4093753Y-13088984D02*
X4074706Y-13079460D01*
X4074706Y-13079460D02*
X4065182Y-13069936D01*
X4255658Y-12888984D02*
X4379468Y-12888984D01*
X4379468Y-12888984D02*
X4312801Y-12965174D01*
X4312801Y-12965174D02*
X4341372Y-12965174D01*
X4341372Y-12965174D02*
X4360420Y-12974698D01*
X4360420Y-12974698D02*
X4369944Y-12984222D01*
X4369944Y-12984222D02*
X4379468Y-13003269D01*
X4379468Y-13003269D02*
X4379468Y-13050888D01*
X4379468Y-13050888D02*
X4369944Y-13069936D01*
X4369944Y-13069936D02*
X4360420Y-13079460D01*
X4360420Y-13079460D02*
X4341372Y-13088984D01*
X4341372Y-13088984D02*
X4284229Y-13088984D01*
X4284229Y-13088984D02*
X4265182Y-13079460D01*
X4265182Y-13079460D02*
X4255658Y-13069936D01*
X4474706Y-13088984D02*
X4512801Y-13088984D01*
X4512801Y-13088984D02*
X4531849Y-13079460D01*
X4531849Y-13079460D02*
X4541372Y-13069936D01*
X4541372Y-13069936D02*
X4560420Y-13041365D01*
X4560420Y-13041365D02*
X4569944Y-13003269D01*
X4569944Y-13003269D02*
X4569944Y-12927079D01*
X4569944Y-12927079D02*
X4560420Y-12908031D01*
X4560420Y-12908031D02*
X4550896Y-12898508D01*
X4550896Y-12898508D02*
X4531849Y-12888984D01*
X4531849Y-12888984D02*
X4493753Y-12888984D01*
X4493753Y-12888984D02*
X4474706Y-12898508D01*
X4474706Y-12898508D02*
X4465182Y-12908031D01*
X4465182Y-12908031D02*
X4455658Y-12927079D01*
X4455658Y-12927079D02*
X4455658Y-12974698D01*
X4455658Y-12974698D02*
X4465182Y-12993746D01*
X4465182Y-12993746D02*
X4474706Y-13003269D01*
X4474706Y-13003269D02*
X4493753Y-13012793D01*
X4493753Y-13012793D02*
X4531849Y-13012793D01*
X4531849Y-13012793D02*
X4550896Y-13003269D01*
X4550896Y-13003269D02*
X4560420Y-12993746D01*
X4560420Y-12993746D02*
X4569944Y-12974698D01*
X4646134Y-12888984D02*
X4646134Y-12927079D01*
X4722325Y-12888984D02*
X4722325Y-12927079D01*
X5017563Y-13165174D02*
X5008039Y-13155650D01*
X5008039Y-13155650D02*
X4988991Y-13127079D01*
X4988991Y-13127079D02*
X4979468Y-13108031D01*
X4979468Y-13108031D02*
X4969944Y-13079460D01*
X4969944Y-13079460D02*
X4960420Y-13031841D01*
X4960420Y-13031841D02*
X4960420Y-12993746D01*
X4960420Y-12993746D02*
X4969944Y-12946127D01*
X4969944Y-12946127D02*
X4979468Y-12917555D01*
X4979468Y-12917555D02*
X4988991Y-12898508D01*
X4988991Y-12898508D02*
X5008039Y-12869936D01*
X5008039Y-12869936D02*
X5017563Y-12860412D01*
X5084230Y-12908031D02*
X5093753Y-12898508D01*
X5093753Y-12898508D02*
X5112801Y-12888984D01*
X5112801Y-12888984D02*
X5160420Y-12888984D01*
X5160420Y-12888984D02*
X5179468Y-12898508D01*
X5179468Y-12898508D02*
X5188991Y-12908031D01*
X5188991Y-12908031D02*
X5198515Y-12927079D01*
X5198515Y-12927079D02*
X5198515Y-12946127D01*
X5198515Y-12946127D02*
X5188991Y-12974698D01*
X5188991Y-12974698D02*
X5074706Y-13088984D01*
X5074706Y-13088984D02*
X5198515Y-13088984D01*
X5265182Y-12888984D02*
X5388991Y-12888984D01*
X5388991Y-12888984D02*
X5322325Y-12965174D01*
X5322325Y-12965174D02*
X5350896Y-12965174D01*
X5350896Y-12965174D02*
X5369944Y-12974698D01*
X5369944Y-12974698D02*
X5379468Y-12984222D01*
X5379468Y-12984222D02*
X5388991Y-13003269D01*
X5388991Y-13003269D02*
X5388991Y-13050888D01*
X5388991Y-13050888D02*
X5379468Y-13069936D01*
X5379468Y-13069936D02*
X5369944Y-13079460D01*
X5369944Y-13079460D02*
X5350896Y-13088984D01*
X5350896Y-13088984D02*
X5293753Y-13088984D01*
X5293753Y-13088984D02*
X5274706Y-13079460D01*
X5274706Y-13079460D02*
X5265182Y-13069936D01*
X5627087Y-13088984D02*
X5627087Y-12888984D01*
X5712801Y-13088984D02*
X5712801Y-12984222D01*
X5712801Y-12984222D02*
X5703277Y-12965174D01*
X5703277Y-12965174D02*
X5684230Y-12955650D01*
X5684230Y-12955650D02*
X5655658Y-12955650D01*
X5655658Y-12955650D02*
X5636610Y-12965174D01*
X5636610Y-12965174D02*
X5627087Y-12974698D01*
X5836610Y-13088984D02*
X5817563Y-13079460D01*
X5817563Y-13079460D02*
X5808039Y-13069936D01*
X5808039Y-13069936D02*
X5798515Y-13050888D01*
X5798515Y-13050888D02*
X5798515Y-12993746D01*
X5798515Y-12993746D02*
X5808039Y-12974698D01*
X5808039Y-12974698D02*
X5817563Y-12965174D01*
X5817563Y-12965174D02*
X5836610Y-12955650D01*
X5836610Y-12955650D02*
X5865182Y-12955650D01*
X5865182Y-12955650D02*
X5884230Y-12965174D01*
X5884230Y-12965174D02*
X5893753Y-12974698D01*
X5893753Y-12974698D02*
X5903277Y-12993746D01*
X5903277Y-12993746D02*
X5903277Y-13050888D01*
X5903277Y-13050888D02*
X5893753Y-13069936D01*
X5893753Y-13069936D02*
X5884230Y-13079460D01*
X5884230Y-13079460D02*
X5865182Y-13088984D01*
X5865182Y-13088984D02*
X5836610Y-13088984D01*
X6017563Y-13088984D02*
X5998515Y-13079460D01*
X5998515Y-13079460D02*
X5988991Y-13060412D01*
X5988991Y-13060412D02*
X5988991Y-12888984D01*
X6169944Y-13079460D02*
X6150896Y-13088984D01*
X6150896Y-13088984D02*
X6112801Y-13088984D01*
X6112801Y-13088984D02*
X6093753Y-13079460D01*
X6093753Y-13079460D02*
X6084230Y-13060412D01*
X6084230Y-13060412D02*
X6084230Y-12984222D01*
X6084230Y-12984222D02*
X6093753Y-12965174D01*
X6093753Y-12965174D02*
X6112801Y-12955650D01*
X6112801Y-12955650D02*
X6150896Y-12955650D01*
X6150896Y-12955650D02*
X6169944Y-12965174D01*
X6169944Y-12965174D02*
X6179468Y-12984222D01*
X6179468Y-12984222D02*
X6179468Y-13003269D01*
X6179468Y-13003269D02*
X6084230Y-13022317D01*
X6255658Y-13079460D02*
X6274706Y-13088984D01*
X6274706Y-13088984D02*
X6312801Y-13088984D01*
X6312801Y-13088984D02*
X6331849Y-13079460D01*
X6331849Y-13079460D02*
X6341372Y-13060412D01*
X6341372Y-13060412D02*
X6341372Y-13050888D01*
X6341372Y-13050888D02*
X6331849Y-13031841D01*
X6331849Y-13031841D02*
X6312801Y-13022317D01*
X6312801Y-13022317D02*
X6284230Y-13022317D01*
X6284230Y-13022317D02*
X6265182Y-13012793D01*
X6265182Y-13012793D02*
X6255658Y-12993746D01*
X6255658Y-12993746D02*
X6255658Y-12984222D01*
X6255658Y-12984222D02*
X6265182Y-12965174D01*
X6265182Y-12965174D02*
X6284230Y-12955650D01*
X6284230Y-12955650D02*
X6312801Y-12955650D01*
X6312801Y-12955650D02*
X6331849Y-12965174D01*
X6408039Y-13165174D02*
X6417563Y-13155650D01*
X6417563Y-13155650D02*
X6436611Y-13127079D01*
X6436611Y-13127079D02*
X6446134Y-13108031D01*
X6446134Y-13108031D02*
X6455658Y-13079460D01*
X6455658Y-13079460D02*
X6465182Y-13031841D01*
X6465182Y-13031841D02*
X6465182Y-12993746D01*
X6465182Y-12993746D02*
X6455658Y-12946127D01*
X6455658Y-12946127D02*
X6446134Y-12917555D01*
X6446134Y-12917555D02*
X6436611Y-12898508D01*
X6436611Y-12898508D02*
X6417563Y-12869936D01*
X6417563Y-12869936D02*
X6408039Y-12860412D01*
X6769944Y-13165174D02*
X6760420Y-13155650D01*
X6760420Y-13155650D02*
X6741372Y-13127079D01*
X6741372Y-13127079D02*
X6731849Y-13108031D01*
X6731849Y-13108031D02*
X6722325Y-13079460D01*
X6722325Y-13079460D02*
X6712801Y-13031841D01*
X6712801Y-13031841D02*
X6712801Y-12993746D01*
X6712801Y-12993746D02*
X6722325Y-12946127D01*
X6722325Y-12946127D02*
X6731849Y-12917555D01*
X6731849Y-12917555D02*
X6741372Y-12898508D01*
X6741372Y-12898508D02*
X6760420Y-12869936D01*
X6760420Y-12869936D02*
X6769944Y-12860412D01*
X6846134Y-12955650D02*
X6846134Y-13088984D01*
X6846134Y-12974698D02*
X6855658Y-12965174D01*
X6855658Y-12965174D02*
X6874706Y-12955650D01*
X6874706Y-12955650D02*
X6903277Y-12955650D01*
X6903277Y-12955650D02*
X6922325Y-12965174D01*
X6922325Y-12965174D02*
X6931849Y-12984222D01*
X6931849Y-12984222D02*
X6931849Y-13088984D01*
X7055658Y-13088984D02*
X7036611Y-13079460D01*
X7036611Y-13079460D02*
X7027087Y-13069936D01*
X7027087Y-13069936D02*
X7017563Y-13050888D01*
X7017563Y-13050888D02*
X7017563Y-12993746D01*
X7017563Y-12993746D02*
X7027087Y-12974698D01*
X7027087Y-12974698D02*
X7036611Y-12965174D01*
X7036611Y-12965174D02*
X7055658Y-12955650D01*
X7055658Y-12955650D02*
X7084230Y-12955650D01*
X7084230Y-12955650D02*
X7103277Y-12965174D01*
X7103277Y-12965174D02*
X7112801Y-12974698D01*
X7112801Y-12974698D02*
X7122325Y-12993746D01*
X7122325Y-12993746D02*
X7122325Y-13050888D01*
X7122325Y-13050888D02*
X7112801Y-13069936D01*
X7112801Y-13069936D02*
X7103277Y-13079460D01*
X7103277Y-13079460D02*
X7084230Y-13088984D01*
X7084230Y-13088984D02*
X7055658Y-13088984D01*
X7179468Y-12955650D02*
X7255658Y-12955650D01*
X7208039Y-12888984D02*
X7208039Y-13060412D01*
X7208039Y-13060412D02*
X7217563Y-13079460D01*
X7217563Y-13079460D02*
X7236611Y-13088984D01*
X7236611Y-13088984D02*
X7255658Y-13088984D01*
X7474706Y-12955650D02*
X7474706Y-13155650D01*
X7474706Y-12965174D02*
X7493753Y-12955650D01*
X7493753Y-12955650D02*
X7531849Y-12955650D01*
X7531849Y-12955650D02*
X7550896Y-12965174D01*
X7550896Y-12965174D02*
X7560420Y-12974698D01*
X7560420Y-12974698D02*
X7569944Y-12993746D01*
X7569944Y-12993746D02*
X7569944Y-13050888D01*
X7569944Y-13050888D02*
X7560420Y-13069936D01*
X7560420Y-13069936D02*
X7550896Y-13079460D01*
X7550896Y-13079460D02*
X7531849Y-13088984D01*
X7531849Y-13088984D02*
X7493753Y-13088984D01*
X7493753Y-13088984D02*
X7474706Y-13079460D01*
X7684230Y-13088984D02*
X7665182Y-13079460D01*
X7665182Y-13079460D02*
X7655658Y-13060412D01*
X7655658Y-13060412D02*
X7655658Y-12888984D01*
X7846134Y-13088984D02*
X7846134Y-12984222D01*
X7846134Y-12984222D02*
X7836611Y-12965174D01*
X7836611Y-12965174D02*
X7817563Y-12955650D01*
X7817563Y-12955650D02*
X7779468Y-12955650D01*
X7779468Y-12955650D02*
X7760420Y-12965174D01*
X7846134Y-13079460D02*
X7827087Y-13088984D01*
X7827087Y-13088984D02*
X7779468Y-13088984D01*
X7779468Y-13088984D02*
X7760420Y-13079460D01*
X7760420Y-13079460D02*
X7750896Y-13060412D01*
X7750896Y-13060412D02*
X7750896Y-13041365D01*
X7750896Y-13041365D02*
X7760420Y-13022317D01*
X7760420Y-13022317D02*
X7779468Y-13012793D01*
X7779468Y-13012793D02*
X7827087Y-13012793D01*
X7827087Y-13012793D02*
X7846134Y-13003269D01*
X7912801Y-12955650D02*
X7988992Y-12955650D01*
X7941373Y-12888984D02*
X7941373Y-13060412D01*
X7941373Y-13060412D02*
X7950896Y-13079460D01*
X7950896Y-13079460D02*
X7969944Y-13088984D01*
X7969944Y-13088984D02*
X7988992Y-13088984D01*
X8131849Y-13079460D02*
X8112801Y-13088984D01*
X8112801Y-13088984D02*
X8074706Y-13088984D01*
X8074706Y-13088984D02*
X8055658Y-13079460D01*
X8055658Y-13079460D02*
X8046134Y-13060412D01*
X8046134Y-13060412D02*
X8046134Y-12984222D01*
X8046134Y-12984222D02*
X8055658Y-12965174D01*
X8055658Y-12965174D02*
X8074706Y-12955650D01*
X8074706Y-12955650D02*
X8112801Y-12955650D01*
X8112801Y-12955650D02*
X8131849Y-12965174D01*
X8131849Y-12965174D02*
X8141373Y-12984222D01*
X8141373Y-12984222D02*
X8141373Y-13003269D01*
X8141373Y-13003269D02*
X8046134Y-13022317D01*
X8312801Y-13088984D02*
X8312801Y-12888984D01*
X8312801Y-13079460D02*
X8293754Y-13088984D01*
X8293754Y-13088984D02*
X8255658Y-13088984D01*
X8255658Y-13088984D02*
X8236611Y-13079460D01*
X8236611Y-13079460D02*
X8227087Y-13069936D01*
X8227087Y-13069936D02*
X8217563Y-13050888D01*
X8217563Y-13050888D02*
X8217563Y-12993746D01*
X8217563Y-12993746D02*
X8227087Y-12974698D01*
X8227087Y-12974698D02*
X8236611Y-12965174D01*
X8236611Y-12965174D02*
X8255658Y-12955650D01*
X8255658Y-12955650D02*
X8293754Y-12955650D01*
X8293754Y-12955650D02*
X8312801Y-12965174D01*
X8388992Y-13165174D02*
X8398516Y-13155650D01*
X8398516Y-13155650D02*
X8417563Y-13127079D01*
X8417563Y-13127079D02*
X8427087Y-13108031D01*
X8427087Y-13108031D02*
X8436611Y-13079460D01*
X8436611Y-13079460D02*
X8446135Y-13031841D01*
X8446135Y-13031841D02*
X8446135Y-12993746D01*
X8446135Y-12993746D02*
X8436611Y-12946127D01*
X8436611Y-12946127D02*
X8427087Y-12917555D01*
X8427087Y-12917555D02*
X8417563Y-12898508D01*
X8417563Y-12898508D02*
X8398516Y-12869936D01*
X8398516Y-12869936D02*
X8388992Y-12860412D01*
M02*
