M48
; DRILL file {KiCad 9.0.2} date 2025-05-25T15:49:36+0200
; FORMAT={-:-/ absolute / metric / decimal}
; #@! TF.CreationDate,2025-05-25T15:49:36+02:00
; #@! TF.GenerationSoftware,Kicad,Pcbnew,9.0.2
; #@! TF.FileFunction,NonPlated,1,2,NPTH
FMAT,2
METRIC
; #@! TA.AperFunction,NonPlated,NPTH,ComponentDrill
T1C1.900
; #@! TA.AperFunction,NonPlated,NPTH,ComponentDrill
T2C2.200
; #@! TA.AperFunction,NonPlated,NPTH,ComponentDrill
T3C3.000
; #@! TA.AperFunction,NonPlated,NPTH,ComponentDrill
T4C3.400
%
G90
G05
T1
X20.5Y-45.5
X20.5Y-56.5
X20.5Y-62.5
X20.5Y-73.5
X37.5Y-28.5
X37.5Y-39.5
X37.5Y-45.5
X37.5Y-56.5
X37.5Y-62.5
X37.5Y-73.5
X37.5Y-79.5
X37.5Y-90.5
X54.5Y-20.5
X54.5Y-31.5
X54.5Y-37.5
X54.5Y-48.5
X54.5Y-54.5
X54.5Y-65.5
X54.5Y-71.5
X54.5Y-82.5
X71.5Y-18.5
X71.5Y-29.5
X71.5Y-35.5
X71.5Y-46.5
X71.5Y-52.5
X71.5Y-63.5
X71.5Y-69.5
X71.5Y-80.5
X88.5Y-26.5
X88.5Y-37.5
X88.5Y-43.5
X88.5Y-54.5
X88.5Y-60.5
X88.5Y-71.5
X88.5Y-77.5
X88.5Y-88.5
X105.5Y-26.5
X105.5Y-37.5
X105.5Y-43.5
X105.5Y-54.5
X105.5Y-60.5
X105.5Y-71.5
X105.5Y-77.5
X105.5Y-88.5
X105.5Y-98.5
X105.5Y-109.5
T2
X16.5Y-16.0
X16.5Y-112.0
X112.5Y-16.0
X112.5Y-112.0
T3
X24.25Y-46.0
X24.25Y-56.0
X24.25Y-63.0
X24.25Y-73.0
X26.45Y-51.0
X26.45Y-68.0
X41.25Y-29.0
X41.25Y-39.0
X41.25Y-46.0
X41.25Y-56.0
X41.25Y-63.0
X41.25Y-73.0
X41.25Y-80.0
X41.25Y-90.0
X43.45Y-34.0
X43.45Y-51.0
X43.45Y-68.0
X43.45Y-85.0
X58.25Y-21.0
X58.25Y-31.0
X58.25Y-38.0
X58.25Y-48.0
X58.25Y-55.0
X58.25Y-65.0
X58.25Y-72.0
X58.25Y-82.0
X60.45Y-26.0
X60.45Y-43.0
X60.45Y-60.0
X60.45Y-77.0
X75.25Y-19.0
X75.25Y-29.0
X75.25Y-36.0
X75.25Y-46.0
X75.25Y-53.0
X75.25Y-63.0
X75.25Y-70.0
X75.25Y-80.0
X77.45Y-24.0
X77.45Y-41.0
X77.45Y-58.0
X77.45Y-75.0
X92.25Y-27.0
X92.25Y-37.0
X92.25Y-44.0
X92.25Y-54.0
X92.25Y-61.0
X92.25Y-71.0
X92.25Y-78.0
X92.25Y-88.0
X94.45Y-32.0
X94.45Y-49.0
X94.45Y-66.0
X94.45Y-83.0
X109.25Y-27.0
X109.25Y-37.0
X109.25Y-44.0
X109.25Y-54.0
X109.25Y-61.0
X109.25Y-71.0
X109.25Y-78.0
X109.25Y-88.0
X109.25Y-99.0
X109.25Y-109.0
X111.45Y-32.0
X111.45Y-49.0
X111.45Y-66.0
X111.45Y-83.0
X111.45Y-104.0
T4
X20.5Y-51.0
X20.5Y-68.0
X37.5Y-34.0
X37.5Y-51.0
X37.5Y-68.0
X37.5Y-85.0
X54.5Y-26.0
X54.5Y-43.0
X54.5Y-60.0
X54.5Y-77.0
X71.5Y-24.0
X71.5Y-41.0
X71.5Y-58.0
X71.5Y-75.0
X88.5Y-32.0
X88.5Y-49.0
X88.5Y-66.0
X88.5Y-83.0
X105.5Y-32.0
X105.5Y-49.0
X105.5Y-66.0
X105.5Y-83.0
X105.5Y-104.0
M30
